<svg width="34" height="27" viewBox="0 0 34 27" fill="none" xmlns="http://www.w3.org/2000/svg">
<path d="M1.55895 14.7324L3.68459 15.9303C3.84795 16.023 4.03253 16.0719 4.22038 16.0721C4.32608 16.072 4.43122 16.0566 4.53256 16.0266C4.67332 15.9855 4.80433 15.9164 4.91769 15.8234C5.03105 15.7305 5.12442 15.6155 5.19218 15.4855L5.53688 14.8294L6.63791 15.7482L5.1047 17.8763C4.83429 18.2516 4.72405 18.7191 4.79824 19.1757C4.87244 19.6324 5.12498 20.0409 5.50033 20.3113L5.68458 20.4441C5.98066 20.6579 6.33668 20.7729 6.70191 20.7725C6.85706 20.7723 7.0115 20.7515 7.16121 20.7107C7.17565 20.9701 7.24791 21.2229 7.3727 21.4507C7.49748 21.6786 7.67164 21.8756 7.88242 22.0274L8.0666 22.1601C8.3621 22.3742 8.71767 22.4894 9.08257 22.4895C9.23816 22.4895 9.39306 22.4689 9.54323 22.4281C9.55782 22.6872 9.63011 22.9397 9.75483 23.1672C9.87954 23.3947 10.0535 23.5915 10.264 23.7432L10.4482 23.8759C10.7443 24.0898 11.1003 24.2047 11.4656 24.2043C11.6203 24.2041 11.7744 24.1834 11.9238 24.1428C11.9272 24.2033 11.9337 24.2636 11.9433 24.3235C11.9794 24.5498 12.0601 24.7667 12.1807 24.9616C12.3013 25.1566 12.4593 25.3256 12.6457 25.4591L12.8299 25.5918C13.2054 25.8618 13.6727 25.9718 14.1292 25.8976C14.5858 25.8235 14.9942 25.5711 15.2649 25.1961L15.8775 24.3459L16.8396 25.115C17.1298 25.3638 17.4853 25.5242 17.8639 25.5772C18.2426 25.6302 18.6284 25.5735 18.9758 25.4138C19.3232 25.2542 19.6175 24.9984 19.8239 24.6766C20.0303 24.3548 20.1401 23.9805 20.1404 23.5982C20.4445 23.7338 20.7778 23.7912 21.1098 23.7652C21.4418 23.7391 21.762 23.6305 22.0413 23.4492C22.3207 23.2678 22.5502 23.0195 22.7091 22.7269C22.868 22.4342 22.9512 22.1064 22.9512 21.7734C23.2061 21.8873 23.4823 21.9461 23.7615 21.9459C23.8109 21.9459 23.8605 21.9441 23.9103 21.9404C24.4039 21.9046 24.8666 21.6868 25.2087 21.3293C25.5509 20.9718 25.7482 20.5001 25.7625 20.0054C26.0576 20.1702 26.3901 20.2565 26.7281 20.2561C26.7785 20.2561 26.8293 20.2543 26.8801 20.2505C27.1433 20.2312 27.4 20.1601 27.6355 20.0411C27.871 19.9222 28.0807 19.7578 28.2524 19.5575L28.2788 19.5268C28.4465 19.3327 28.5743 19.1074 28.6549 18.8639C28.7355 18.6204 28.7674 18.3634 28.7487 18.1076C28.7299 17.8518 28.661 17.6022 28.5458 17.373C28.4306 17.1438 28.2714 16.9396 28.0772 16.772L27.3818 16.1723C27.8715 15.8797 28.3006 15.4959 28.6457 15.0418L28.6754 15.1047C28.7631 15.2926 28.9025 15.4517 29.0774 15.5631C29.2523 15.6746 29.4554 15.7339 29.6628 15.734C29.8137 15.7338 29.9629 15.7026 30.1012 15.6424L32.3402 14.6725C32.4747 14.6142 32.5961 14.5295 32.6972 14.4235C32.7984 14.3175 32.8772 14.1922 32.9291 14.0551C32.981 13.9181 33.0048 13.772 32.9992 13.6256C32.9936 13.4791 32.9586 13.3353 32.8964 13.2026L27.4706 1.62972C27.352 1.37789 27.1421 1.18056 26.8835 1.07769C26.6249 0.974811 26.3368 0.974085 26.0776 1.07566L23.7767 1.98229C23.6373 2.03722 23.5107 2.12018 23.4046 2.22602C23.2985 2.33187 23.2153 2.45835 23.1601 2.59765C23.1049 2.73694 23.0788 2.88609 23.0836 3.03585C23.0883 3.18562 23.1237 3.33282 23.1877 3.46835L23.5199 4.17297L23.2344 4.29472C22.3108 4.4886 21.6727 4.46271 20.7235 4.19593L18.4251 3.54984C17.7807 3.36816 17.0971 3.37921 16.4589 3.58164L14.24 4.28327C13.7854 4.42714 13.3658 4.66415 13.0079 4.97918C12.6186 4.84572 11.8427 4.66141 10.798 4.81099L11.135 4.16946C11.264 3.9228 11.2944 3.63634 11.2201 3.36809C11.1458 3.09984 10.9723 2.86987 10.7347 2.72476L8.6221 1.43941C8.49411 1.36157 8.35151 1.31081 8.20313 1.29028C8.05474 1.26974 7.90372 1.27987 7.75941 1.32004C7.61509 1.36021 7.48055 1.42956 7.36411 1.5238C7.24767 1.61804 7.15181 1.73518 7.08245 1.86795L1.12592 13.2716C0.993107 13.5234 0.964051 13.8172 1.04497 14.0901C1.12588 14.3631 1.31035 14.5936 1.55895 14.7324ZM6.14082 19.8109L5.95657 19.6778C5.74916 19.5284 5.60961 19.3026 5.56862 19.0503C5.52763 18.798 5.58854 18.5397 5.73798 18.3322L8.08475 15.0749C8.15875 14.9721 8.25226 14.885 8.35994 14.8184C8.46762 14.7518 8.58737 14.7071 8.71233 14.6868C8.8373 14.6665 8.96504 14.6711 9.08826 14.7001C9.21147 14.7292 9.32775 14.7823 9.43046 14.8563L9.61458 14.989C9.82177 15.1386 9.96115 15.3643 10.0021 15.6166C10.0431 15.8688 9.98239 16.1271 9.83324 16.3346L7.4864 19.5919C7.33684 19.7992 7.11116 19.9386 6.8589 19.9797C6.60663 20.0207 6.34838 19.96 6.14082 19.8109ZM9.24061 21.6961C9.11568 21.7169 8.98788 21.7126 8.86462 21.6835C8.74136 21.6545 8.62508 21.6013 8.52252 21.527L8.3384 21.3944C8.13119 21.2448 7.9918 21.0191 7.9508 20.7668C7.90981 20.5146 7.97057 20.2563 8.11974 20.0488L9.85769 17.6365C9.93145 17.5335 10.0249 17.4463 10.1326 17.3797C10.2403 17.3131 10.3601 17.2685 10.4852 17.2486C10.537 17.2401 10.5894 17.2359 10.6419 17.2359C10.8435 17.2359 11.04 17.2996 11.2032 17.418L11.3875 17.5507C11.4902 17.6247 11.5773 17.7182 11.6439 17.8259C11.7104 17.9336 11.7552 18.0533 11.7755 18.1782C11.7958 18.3032 11.7913 18.4309 11.7622 18.5541C11.7331 18.6773 11.6801 18.7936 11.6061 18.8963L9.86823 21.3086C9.79441 21.4114 9.70094 21.4987 9.59321 21.5652C9.48549 21.6317 9.36564 21.6762 9.24061 21.6961ZM10.9042 23.2427L10.72 23.1099C10.5128 22.9603 10.3735 22.7346 10.3325 22.4823C10.2915 22.2301 10.3522 21.9718 10.5014 21.7643L11.7411 20.0436C11.8907 19.8364 12.1164 19.697 12.3687 19.656C12.621 19.615 12.8792 19.6757 13.0867 19.8249L13.271 19.9576C13.4784 20.1071 13.618 20.3328 13.659 20.5851C13.7 20.8375 13.6391 21.0958 13.4896 21.3032L12.2499 23.024C12.1002 23.2312 11.8745 23.3706 11.6222 23.4116C11.37 23.4526 11.1118 23.3918 10.9042 23.2427ZM14.6316 24.7399C14.4819 24.9471 14.2562 25.0864 14.0039 25.1274C13.7517 25.1684 13.4935 25.1077 13.2859 24.9586L13.1017 24.8258C12.8943 24.6764 12.7547 24.4507 12.7137 24.1983C12.6727 23.946 12.7336 23.6876 12.8831 23.4802L13.6245 22.4509C13.7741 22.2437 13.9998 22.1043 14.2521 22.0633C14.5043 22.0223 14.7626 22.0831 14.9701 22.2323L15.1543 22.365C15.257 22.439 15.3442 22.5325 15.4108 22.6402C15.4773 22.7478 15.522 22.8675 15.5423 22.9925C15.5627 23.1174 15.5581 23.2452 15.5291 23.3684C15.5 23.4916 15.447 23.6079 15.373 23.7106L14.6316 24.7399ZM23.8856 2.88528C23.9013 2.84515 23.9252 2.80872 23.9557 2.77828C23.9862 2.74784 24.0226 2.72406 24.0628 2.70844L26.3637 1.80187C26.4382 1.77266 26.521 1.77286 26.5953 1.80241C26.6696 1.83196 26.7299 1.88866 26.764 1.96102L32.1898 13.5337C32.2077 13.5718 32.2177 13.6131 32.2193 13.6552C32.2209 13.6973 32.2141 13.7393 32.1992 13.7786C32.1843 13.818 32.1616 13.854 32.1325 13.8845C32.1035 13.9149 32.0686 13.9393 32.0299 13.956L29.791 14.9259C29.716 14.9588 29.6312 14.9611 29.5546 14.9322C29.4781 14.9033 29.4158 14.8456 29.3812 14.7715L29.0886 14.1507C29.0764 14.0834 29.0466 14.0204 29.0024 13.9681L23.8935 3.13541C23.875 3.09653 23.8647 3.05423 23.8633 3.01118C23.862 2.96812 23.8695 2.92526 23.8856 2.88528ZM14.4753 5.02751L16.6939 4.32574C17.1872 4.16931 17.7155 4.16076 18.2136 4.30116L20.5123 4.94725C21.5991 5.25293 22.3637 5.27959 23.4342 5.05007C23.4586 5.04487 23.4825 5.03731 23.5054 5.02751L23.8531 4.87935L28.2583 14.2201C27.8995 14.8228 27.3763 15.3107 26.75 15.6267L24.9072 14.0358L18.8652 8.06199C18.4871 7.68877 18.0208 7.41723 17.5096 7.27262L16.4698 6.97937C16.4348 6.96963 16.3986 6.96469 16.3622 6.96467C15.7249 6.96733 15.2009 7.31587 14.8464 7.97276C14.6933 8.26162 14.5838 8.57158 14.5216 8.89253C14.5194 8.90524 14.5179 8.91804 14.517 8.9309C14.5144 8.96949 14.5113 9.00756 14.5076 9.04511C14.4719 9.41236 14.3546 9.76698 14.1641 10.083C13.9737 10.3991 13.715 10.6685 13.407 10.8716C13.074 11.0869 12.6956 11.2219 12.3016 11.2659C11.9076 11.3099 11.5087 11.2618 11.1365 11.1253L11.7011 9.40178C11.8362 8.9895 11.9882 8.57683 12.153 8.17529L12.8294 6.52722C12.9787 6.17288 13.2032 5.85522 13.4874 5.59626C13.7716 5.3373 14.1087 5.14323 14.4753 5.02751ZM12.1579 5.57753C12.2598 5.5923 12.3522 5.61005 12.4355 5.62878C12.3072 5.81702 12.1979 6.01744 12.109 6.22713L11.431 7.87911C11.259 8.29815 11.1004 8.7287 10.9594 9.15893L10.283 11.2239C10.253 11.3157 10.258 11.4154 10.2972 11.5036C10.3364 11.5919 10.4069 11.6626 10.4951 11.7019L10.6408 11.7669C11.1511 12.0005 11.7124 12.1006 12.2719 12.0577C12.8315 12.0148 13.371 11.8304 13.8397 11.5217C14.2442 11.2545 14.584 10.9003 14.834 10.4848C15.084 10.0694 15.2379 9.60335 15.2845 9.12075C15.2882 9.08372 15.2914 9.04632 15.2941 9.00856C15.323 8.86547 15.5643 7.79605 16.316 7.7476L17.2981 8.0246C17.6823 8.13323 18.0327 8.3373 18.3169 8.61781L24.3682 14.6006C24.3747 14.6071 24.3812 14.6128 24.3877 14.6186L27.5674 17.3632C27.684 17.4638 27.7796 17.5864 27.8487 17.724C27.9179 17.8616 27.9593 18.0114 27.9706 18.165C27.9818 18.3186 27.9627 18.4729 27.9143 18.6191C27.8659 18.7653 27.7892 18.9005 27.6885 19.017L27.662 19.0477C27.557 19.1703 27.4288 19.271 27.2847 19.3439C27.1406 19.4168 26.9835 19.4605 26.8224 19.4724C26.6627 19.4847 26.5021 19.4652 26.35 19.4149C26.1979 19.3647 26.0572 19.2847 25.9362 19.1797L25.0801 18.4397C25.0775 18.4375 25.0751 18.4351 25.0725 18.4328L22.8903 16.5478L22.7933 16.4641C22.7546 16.4301 22.7096 16.4041 22.6608 16.3876C22.612 16.3711 22.5604 16.3644 22.509 16.368C22.4576 16.3715 22.4074 16.3852 22.3613 16.4082C22.3153 16.4312 22.2742 16.4632 22.2405 16.5022C22.2069 16.5411 22.1812 16.5864 22.1651 16.6353C22.149 16.6843 22.1428 16.7359 22.1467 16.7873C22.1507 16.8386 22.1648 16.8887 22.1882 16.9346C22.2116 16.9805 22.2439 17.0213 22.2831 17.0546L22.3492 17.1117C22.6084 17.3355 23.6002 18.1924 24.5662 19.0272C24.8083 19.2397 24.9565 19.5394 24.9783 19.8609C25.0002 20.1823 24.8939 20.4993 24.6828 20.7427C24.4716 20.986 24.1727 21.1359 23.8514 21.1596C23.5301 21.1833 23.2125 21.0788 22.968 20.8691L22.2616 20.2589L22.2606 20.258L20.6884 18.8996C20.6497 18.8657 20.6047 18.8398 20.5559 18.8233C20.5071 18.8069 20.4556 18.8003 20.4042 18.8039C20.3529 18.8074 20.3027 18.8211 20.2567 18.8442C20.2106 18.8672 20.1696 18.8991 20.136 18.9381C20.1023 18.977 20.0767 19.0222 20.0606 19.0711C20.0445 19.12 20.0383 19.1716 20.0422 19.223C20.0461 19.2743 20.0602 19.3243 20.0835 19.3702C20.1069 19.4161 20.1391 19.4569 20.1783 19.4902L21.7501 20.848C21.8715 20.9527 21.9711 21.0802 22.0433 21.2233C22.1154 21.3665 22.1586 21.5224 22.1704 21.6823C22.1822 21.8421 22.1623 22.0028 22.112 22.1549C22.0617 22.3071 21.9818 22.4479 21.877 22.5692C21.7723 22.6905 21.6446 22.7899 21.5013 22.8619C21.3581 22.9338 21.2021 22.9767 21.0422 22.9883C20.8823 22.9999 20.7217 22.9798 20.5696 22.9293C20.4175 22.8787 20.2769 22.7987 20.1557 22.6937L18.5838 21.3363C18.5451 21.3024 18.5 21.2764 18.4513 21.26C18.4025 21.2436 18.3509 21.2369 18.2996 21.2405C18.2482 21.2441 18.1981 21.2578 18.152 21.2808C18.106 21.3038 18.065 21.3358 18.0313 21.3747C17.9977 21.4137 17.9721 21.4589 17.956 21.5078C17.9399 21.5567 17.9336 21.6083 17.9376 21.6596C17.9415 21.7109 17.9555 21.761 17.9789 21.8069C18.0022 21.8527 18.0344 21.8935 18.0736 21.9269L18.8678 22.6129L18.9381 22.6737C19.0605 22.778 19.161 22.9055 19.2339 23.0488C19.3068 23.1922 19.3507 23.3485 19.3629 23.5089C19.3751 23.6692 19.3555 23.8304 19.3052 23.9831C19.2549 24.1359 19.1749 24.2772 19.0698 24.3988C18.9647 24.5205 18.8365 24.6202 18.6927 24.6922C18.5489 24.7642 18.3923 24.807 18.2318 24.8182C18.0714 24.8294 17.9104 24.8087 17.758 24.7574C17.6055 24.7061 17.4648 24.6252 17.3438 24.5193C17.34 24.516 17.3362 24.5128 17.3323 24.5098L16.2609 23.6536C16.3661 23.3055 16.36 22.9332 16.2434 22.5887C16.1268 22.2442 15.9055 21.9448 15.6105 21.7321L15.4263 21.5994C15.1192 21.3776 14.748 21.2623 14.3693 21.2712C14.4813 20.9205 14.4794 20.5433 14.3641 20.1937C14.2488 19.844 14.0259 19.5398 13.7272 19.3245L13.5429 19.1917C13.2358 18.97 12.8645 18.8548 12.4858 18.8639C12.5978 18.5132 12.5959 18.136 12.4806 17.7863C12.3653 17.4367 12.1424 17.1324 11.8437 16.9171L11.6594 16.7843C11.3672 16.5728 11.0162 16.4578 10.6554 16.4555C10.8103 16.0911 10.8368 15.6848 10.7306 15.3034C10.6243 14.9219 10.3917 14.5879 10.0708 14.3559L9.88657 14.2233C9.51119 13.9529 9.04376 13.8427 8.58711 13.9169C8.13045 13.9911 7.72198 14.2436 7.45154 14.619L7.09526 15.1133L5.90753 14.1228L10.3305 5.70156C10.9253 5.53918 11.5466 5.49701 12.1579 5.57753ZM1.81774 13.6326L7.77387 2.2293C7.79365 2.19102 7.82116 2.15726 7.85466 2.13015C7.88815 2.10303 7.9269 2.08316 7.96846 2.07178C7.9962 2.06402 8.02486 2.06009 8.05366 2.06007C8.11106 2.06018 8.16732 2.07612 8.21626 2.10612L10.3289 3.39186C10.3971 3.43356 10.447 3.49963 10.4683 3.5767C10.4897 3.65377 10.4809 3.73607 10.4439 3.80693L4.50089 15.1227C4.48129 15.1599 4.45442 15.1929 4.42187 15.2196C4.38931 15.2463 4.35173 15.2662 4.31135 15.2781C4.27097 15.29 4.22861 15.2937 4.18677 15.289C4.14494 15.2842 4.10448 15.2711 4.0678 15.2505L1.94215 14.0525C1.87069 14.0126 1.81767 13.9463 1.79442 13.8679C1.77117 13.7894 1.77954 13.705 1.81774 13.6326Z" fill="#3E4784" stroke="#3E4784" stroke-width="0.8"/>
</svg>
