<svg width="16" height="16" viewBox="0 0 16 16" fill="none" xmlns="http://www.w3.org/2000/svg">
<path d="M10.6668 3.33301L12.0002 4.66634L14.6668 1.99967M14.6668 7.99967V11.4663C14.6668 12.5864 14.6668 13.1465 14.4488 13.5743C14.2571 13.9506 13.9511 14.2566 13.5748 14.4484C13.147 14.6663 12.5869 14.6663 11.4668 14.6663H4.5335C3.41339 14.6663 2.85334 14.6663 2.42552 14.4484C2.04919 14.2566 1.74323 13.9506 1.55148 13.5743C1.3335 13.1465 1.3335 12.5864 1.3335 11.4663V4.53301C1.3335 3.4129 1.3335 2.85285 1.55148 2.42503C1.74323 2.0487 2.04919 1.74274 2.42552 1.55099C2.85334 1.33301 3.41339 1.33301 4.5335 1.33301H8.00016M1.4305 13.2839C1.74326 12.1587 2.77521 11.333 4.00001 11.333H8.66668C9.28622 11.333 9.59599 11.333 9.85358 11.3842C10.9114 11.5947 11.7384 12.4216 11.9488 13.4794C12 13.737 12 14.0468 12 14.6663M9.3335 6.33301C9.3335 7.80577 8.13959 8.99967 6.66683 8.99967C5.19407 8.99967 4.00016 7.80577 4.00016 6.33301C4.00016 4.86025 5.19407 3.66634 6.66683 3.66634C8.13959 3.66634 9.3335 4.86025 9.3335 6.33301Z" stroke="white" stroke-width="1.66" stroke-linecap="round" stroke-linejoin="round"/>
</svg>
