<svg width="16" height="15" viewBox="0 0 16 15" fill="none" xmlns="http://www.w3.org/2000/svg">
<path d="M10.6673 2.83594L12.0007 4.16927L14.6673 1.5026M14.6673 7.5026V10.9693C14.6673 12.0894 14.6673 12.6494 14.4493 13.0773C14.2576 13.4536 13.9516 13.7595 13.5753 13.9513C13.1475 14.1693 12.5874 14.1693 11.4673 14.1693H4.53398C3.41388 14.1693 2.85383 14.1693 2.426 13.9513C2.04968 13.7595 1.74372 13.4536 1.55197 13.0773C1.33398 12.6494 1.33398 12.0894 1.33398 10.9693V4.03594C1.33398 2.91583 1.33398 2.35578 1.55197 1.92796C1.74372 1.55163 2.04968 1.24567 2.426 1.05392C2.85383 0.835938 3.41388 0.835938 4.53398 0.835938H8.00065M1.43099 12.7868C1.74375 11.6617 2.77569 10.8359 4.0005 10.8359H8.66716C9.2867 10.8359 9.59647 10.8359 9.85407 10.8872C10.9119 11.0976 11.7388 11.9245 11.9493 12.9824C12.0005 13.24 12.0005 13.5497 12.0005 14.1693M9.33398 5.83594C9.33398 7.3087 8.14008 8.5026 6.66732 8.5026C5.19456 8.5026 4.00065 7.3087 4.00065 5.83594C4.00065 4.36318 5.19456 3.16927 6.66732 3.16927C8.14008 3.16927 9.33398 4.36318 9.33398 5.83594Z" stroke="#667085" stroke-width="1.66" stroke-linecap="round" stroke-linejoin="round"/>
</svg>
