<svg width="16" height="17" viewBox="0 0 16 17" fill="none" xmlns="http://www.w3.org/2000/svg">
<path d="M10.6673 3.83594L12.0007 5.16927L14.6673 2.5026M14.6673 8.5026V11.9693C14.6673 13.0894 14.6673 13.6494 14.4493 14.0773C14.2576 14.4536 13.9516 14.7595 13.5753 14.9513C13.1475 15.1693 12.5874 15.1693 11.4673 15.1693H4.53398C3.41388 15.1693 2.85383 15.1693 2.426 14.9513C2.04968 14.7595 1.74372 14.4536 1.55197 14.0773C1.33398 13.6494 1.33398 13.0894 1.33398 11.9693V5.03594C1.33398 3.91583 1.33398 3.35578 1.55197 2.92796C1.74372 2.55163 2.04968 2.24567 2.426 2.05392C2.85383 1.83594 3.41388 1.83594 4.53398 1.83594H8.00065M1.43099 13.7868C1.74375 12.6617 2.77569 11.8359 4.0005 11.8359H8.66716C9.2867 11.8359 9.59647 11.8359 9.85407 11.8872C10.9119 12.0976 11.7388 12.9245 11.9493 13.9824C12.0005 14.24 12.0005 14.5497 12.0005 15.1693M9.33398 6.83594C9.33398 8.3087 8.14008 9.5026 6.66732 9.5026C5.19456 9.5026 4.00065 8.3087 4.00065 6.83594C4.00065 5.36318 5.19456 4.16927 6.66732 4.16927C8.14008 4.16927 9.33398 5.36318 9.33398 6.83594Z" stroke="#2E90FA" stroke-width="1.66" stroke-linecap="round" stroke-linejoin="round"/>
</svg>
