<svg width="24" height="28" viewBox="0 0 24 28" fill="none" xmlns="http://www.w3.org/2000/svg">
<path fill-rule="evenodd" clip-rule="evenodd" d="M7.12472 22.9991V26.375C7.12472 26.9963 6.62106 27.5 5.99977 27.5C5.37847 27.5 4.87481 26.9963 4.87481 26.375V22.9991H1.49995C0.878659 22.9991 0.375 22.4954 0.375 21.8741C0.375 21.2528 0.878659 20.7492 1.49995 20.7492H4.87481V17.3754C4.87481 16.7541 5.37847 16.2505 5.99977 16.2505C6.62106 16.2505 7.12472 16.7541 7.12472 17.3754V20.7492H10.4996C11.1209 20.7492 11.6245 21.2528 11.6245 21.8741C11.6245 22.4954 11.1209 22.9991 10.4996 22.9991H7.12472ZM16.1243 1.6659C16.0041 1.63889 15.8804 1.62495 15.7554 1.62495H6.56224C5.63094 1.62495 4.87481 2.38108 4.87481 3.31238V13.437C4.87481 13.7476 4.62298 13.9994 4.31234 13.9994C4.00169 13.9994 3.74986 13.7476 3.74986 13.437V3.31238C3.74986 1.75979 5.00965 0.5 6.56224 0.5H15.7554C16.5007 0.5 17.2164 0.796616 17.7438 1.32397L23.175 6.75524C23.7025 7.28273 23.999 7.99846 23.999 8.74478V22.4366C23.999 23.9892 22.7392 25.249 21.1866 25.249H14.4369C14.1263 25.249 13.8744 24.9971 13.8744 24.6865C13.8744 24.3758 14.1263 24.124 14.4369 24.124H21.1866C22.1179 24.124 22.8741 23.3679 22.8741 22.4366V8.74478C22.8741 8.61928 22.8601 8.49521 22.833 8.37467H18.9367C17.3841 8.37467 16.1243 7.11488 16.1243 5.56229V1.6659Z" fill="#2E90FA"/>
</svg>
