<svg width="1032" height="708" viewBox="0 0 1032 708" fill="none" xmlns="http://www.w3.org/2000/svg">
<g filter="url(#filter0_d_3059_23683)">
<rect width="1024" height="700" transform="translate(4)" fill="#070707"/>
<g clip-path="url(#clip0_3059_23683)">
<g opacity="0.5">
<path d="M283.938 116.953V460.125L4 524.496" stroke="#FCFCFD" stroke-width="0.108159" stroke-linecap="round" stroke-linejoin="round"/>
<path d="M329.277 116.953V460.125L4 553.615" stroke="#FCFCFD" stroke-width="0.108159" stroke-linecap="round" stroke-linejoin="round"/>
<path d="M374.617 116.953V460.125L4 602.132" stroke="#FCFCFD" stroke-width="0.108159" stroke-linecap="round" stroke-linejoin="round"/>
<path d="M419.932 116.953V460.121L14.5547 698.995" stroke="#FCFCFD" stroke-width="0.108159" stroke-linecap="round" stroke-linejoin="round"/>
<path d="M465.301 116.953V460.125L257.25 699.001" stroke="#FCFCFD" stroke-width="0.108159" stroke-linecap="round" stroke-linejoin="round"/>
<path d="M521.196 116.953V460.125L520.842 699.001" stroke="#FCFCFD" stroke-width="0.108159" stroke-linecap="round" stroke-linejoin="round"/>
<path d="M566.547 116.953V460.125L773.881 699.001" stroke="#FCFCFD" stroke-width="0.108159" stroke-linecap="round" stroke-linejoin="round"/>
<path d="M611.883 116.953V460.125L1026.91 699.001" stroke="#FCFCFD" stroke-width="0.108159" stroke-linecap="round" stroke-linejoin="round"/>
<path d="M657.227 116.953V460.125L1028 602.354" stroke="#FCFCFD" stroke-width="0.108159" stroke-linecap="round" stroke-linejoin="round"/>
<path d="M702.562 116.953V460.125L1028 553.739" stroke="#FCFCFD" stroke-width="0.108159" stroke-linecap="round" stroke-linejoin="round"/>
<path d="M747.898 116.953V460.125L1027.99 524.577" stroke="#FCFCFD" stroke-width="0.108159" stroke-linecap="round" stroke-linejoin="round"/>
<path d="M793.242 116.953V460.125L1027.99 505.138" stroke="#FCFCFD" stroke-width="0.108159" stroke-linecap="round" stroke-linejoin="round"/>
<path d="M838.586 116.953V460.125L1028 491.255" stroke="#FCFCFD" stroke-width="0.108159" stroke-linecap="round" stroke-linejoin="round"/>
<path d="M883.922 116.953V460.125L1028 480.843" stroke="#FCFCFD" stroke-width="0.108159" stroke-linecap="round" stroke-linejoin="round"/>
<path d="M929.273 116.953V460.125L1028 472.745" stroke="#FCFCFD" stroke-width="0.108159" stroke-linecap="round" stroke-linejoin="round"/>
<path d="M974.609 116.953V460.125L1028 466.268" stroke="#FCFCFD" stroke-width="0.108159" stroke-linecap="round" stroke-linejoin="round"/>
<path d="M1019.95 116.953V460.125L1028 460.966" stroke="#FCFCFD" stroke-width="0.108159" stroke-linecap="round" stroke-linejoin="round"/>
<path d="M4 491.212L193.255 460.125V116.953" stroke="#FCFCFD" stroke-width="0.108159" stroke-linecap="round" stroke-linejoin="round"/>
<path d="M238.595 116.953V460.125L4 505.082" stroke="#FCFCFD" stroke-width="0.108159" stroke-linecap="round" stroke-linejoin="round"/>
<path d="M158.472 116.953V460.125L14.5547 480.812" stroke="#FCFCFD" stroke-width="0.108159" stroke-linecap="round" stroke-linejoin="round"/>
<path d="M113.126 116.953V460.125L14.5547 472.718" stroke="#FCFCFD" stroke-width="0.108159" stroke-linecap="round" stroke-linejoin="round"/>
<path d="M67.788 116.953V460.125L14.5547 466.245" stroke="#FCFCFD" stroke-width="0.108159" stroke-linecap="round" stroke-linejoin="round"/>
<path d="M22.4437 116.953V460.125L14.5547 460.95" stroke="#FCFCFD" stroke-width="0.108159" stroke-linecap="round" stroke-linejoin="round"/>
<path d="M14.5547 434.083H1028" stroke="#FCFCFD" stroke-width="0.108159" stroke-linecap="round" stroke-linejoin="round"/>
<path d="M14.5547 408.048H1028" stroke="#FCFCFD" stroke-width="0.108159" stroke-linecap="round" stroke-linejoin="round"/>
<path d="M14.5547 382.001H1028" stroke="#FCFCFD" stroke-width="0.108159" stroke-linecap="round" stroke-linejoin="round"/>
<path d="M14.5547 355.966H1028" stroke="#FCFCFD" stroke-width="0.108159" stroke-linecap="round" stroke-linejoin="round"/>
<path d="M14.5547 329.923H1028" stroke="#FCFCFD" stroke-width="0.108159" stroke-linecap="round" stroke-linejoin="round"/>
<path d="M14.5547 303.884H1028" stroke="#FCFCFD" stroke-width="0.108159" stroke-linecap="round" stroke-linejoin="round"/>
<path d="M14.5547 277.841H1028" stroke="#FCFCFD" stroke-width="0.108159" stroke-linecap="round" stroke-linejoin="round"/>
<path d="M14.5547 251.806H1028" stroke="#FCFCFD" stroke-width="0.108159" stroke-linecap="round" stroke-linejoin="round"/>
<path d="M14.5547 225.759H1028" stroke="#FCFCFD" stroke-width="0.108159" stroke-linecap="round" stroke-linejoin="round"/>
<path d="M14.5547 199.72H1028" stroke="#FCFCFD" stroke-width="0.108159" stroke-linecap="round" stroke-linejoin="round"/>
<path d="M14.5547 173.681H1028" stroke="#FCFCFD" stroke-width="0.108159" stroke-linecap="round" stroke-linejoin="round"/>
<path d="M14.5547 147.646H1028" stroke="#FCFCFD" stroke-width="0.108159" stroke-linecap="round" stroke-linejoin="round"/>
<path d="M14.5547 121.599H1028" stroke="#FCFCFD" stroke-width="0.108159" stroke-linecap="round" stroke-linejoin="round"/>
<path d="M1028 574.693H14.5547" stroke="#FCFCFD" stroke-width="0.108159" stroke-linecap="round" stroke-linejoin="round"/>
<path d="M1028 554.568H14.5547" stroke="#FCFCFD" stroke-width="0.108159" stroke-linecap="round" stroke-linejoin="round"/>
<path d="M1028 538.775H14.5547" stroke="#FCFCFD" stroke-width="0.108159" stroke-linecap="round" stroke-linejoin="round"/>
<path d="M1028 601.232H14.5547" stroke="#FCFCFD" stroke-width="0.108159" stroke-linecap="round" stroke-linejoin="round"/>
<path d="M1028 526.048H14.5547" stroke="#FCFCFD" stroke-width="0.108159" stroke-linecap="round" stroke-linejoin="round"/>
<path d="M1028 515.583H14.5547" stroke="#FCFCFD" stroke-width="0.108159" stroke-linecap="round" stroke-linejoin="round"/>
<path d="M1028 462.466H14.5547" stroke="#FCFCFD" stroke-width="0.108159" stroke-linecap="round" stroke-linejoin="round"/>
<path d="M1028 460.13H14.5547" stroke="#FCFCFD" stroke-width="0.108159" stroke-linecap="round" stroke-linejoin="round"/>
<path d="M1028 467.833H14.5547" stroke="#FCFCFD" stroke-width="0.108159" stroke-linecap="round" stroke-linejoin="round"/>
<path d="M1028 465.025H14.5547" stroke="#FCFCFD" stroke-width="0.108159" stroke-linecap="round" stroke-linejoin="round"/>
<path d="M1017.44 492.986H4" stroke="#FCFCFD" stroke-width="0.108159" stroke-linecap="round" stroke-linejoin="round"/>
<path d="M1028 506.83H14.5547" stroke="#FCFCFD" stroke-width="0.108159" stroke-linecap="round" stroke-linejoin="round"/>
<path d="M1028 637.806H14.5547" stroke="#FCFCFD" stroke-width="0.108159" stroke-linecap="round" stroke-linejoin="round"/>
<path d="M1028 474.388H14.5547" stroke="#FCFCFD" stroke-width="0.108159" stroke-linecap="round" stroke-linejoin="round"/>
<path d="M1028 470.939H14.5547" stroke="#FCFCFD" stroke-width="0.108159" stroke-linecap="round" stroke-linejoin="round"/>
<path d="M1017.44 487.427H4" stroke="#FCFCFD" stroke-width="0.108159" stroke-linecap="round" stroke-linejoin="round"/>
<path d="M1028 482.544H14.5547" stroke="#FCFCFD" stroke-width="0.108159" stroke-linecap="round" stroke-linejoin="round"/>
<path d="M1028 478.232H14.5547" stroke="#FCFCFD" stroke-width="0.108159" stroke-linecap="round" stroke-linejoin="round"/>
<path d="M1017.44 499.376H4" stroke="#FCFCFD" stroke-width="0.108159" stroke-linecap="round" stroke-linejoin="round"/>
<rect x="4" y="60.0078" width="1024" height="291.92" fill="url(#paint0_linear_3059_23683)"/>
</g>
</g>
</g>
<defs>
<filter id="filter0_d_3059_23683" x="0" y="0" width="1032" height="708" filterUnits="userSpaceOnUse" color-interpolation-filters="sRGB">
<feFlood flood-opacity="0" result="BackgroundImageFix"/>
<feColorMatrix in="SourceAlpha" type="matrix" values="0 0 0 0 0 0 0 0 0 0 0 0 0 0 0 0 0 0 127 0" result="hardAlpha"/>
<feOffset dy="4"/>
<feGaussianBlur stdDeviation="2"/>
<feComposite in2="hardAlpha" operator="out"/>
<feColorMatrix type="matrix" values="0 0 0 0 0 0 0 0 0 0 0 0 0 0 0 0 0 0 0.25 0"/>
<feBlend mode="normal" in2="BackgroundImageFix" result="effect1_dropShadow_3059_23683"/>
<feBlend mode="normal" in="SourceGraphic" in2="effect1_dropShadow_3059_23683" result="shape"/>
</filter>
<linearGradient id="paint0_linear_3059_23683" x1="516" y1="60.0078" x2="516" y2="351.927" gradientUnits="userSpaceOnUse">
<stop stop-color="#070707"/>
<stop offset="1" stop-color="#070707" stop-opacity="0.21"/>
</linearGradient>
<clipPath id="clip0_3059_23683">
<rect width="1024" height="639" fill="white" transform="translate(4 60)"/>
</clipPath>
</defs>
</svg>
