<svg width="17" height="20" viewBox="0 0 17 20" fill="none" xmlns="http://www.w3.org/2000/svg">
<path d="M12.1641 2.76999V17.0139C12.1641 18.6077 13.2647 19.4958 14.4302 19.4958C15.5092 19.4958 16.6962 18.7405 16.6962 17.0139V2.8779C16.6962 1.41681 15.6172 0.503906 14.4302 0.503906C13.2432 0.503906 12.1641 1.51069 12.1641 2.76999Z" fill="#F9AB00"/>
<path d="M6.23438 10.0005V17.0145C6.23438 18.6083 7.33505 19.4964 8.50047 19.4964C9.57956 19.4964 10.7666 18.7411 10.7666 17.0145V10.1084C10.7666 8.64728 9.68747 7.73438 8.50047 7.73438C7.31347 7.73438 6.23438 8.74116 6.23438 10.0005Z" fill="#E37400"/>
<path d="M2.56297 19.497C3.8145 19.497 4.82906 18.4824 4.82906 17.2309C4.82906 15.9794 3.8145 14.9648 2.56297 14.9648C1.31144 14.9648 0.296875 15.9794 0.296875 17.2309C0.296875 18.4824 1.31144 19.497 2.56297 19.497Z" fill="#E37400"/>
</svg>
