<svg width="21" height="21" viewBox="0 0 21 21" fill="none" xmlns="http://www.w3.org/2000/svg">
<path d="M3.99872 18.8505C4.50086 19.0026 5.17911 19.0026 6.33203 19.0026H14.9987C16.1516 19.0026 16.8299 19.0026 17.332 18.8505M3.99872 18.8505C3.89105 18.8178 3.79148 18.7782 3.69706 18.7301C3.22665 18.4904 2.8442 18.108 2.60451 17.6376C2.33203 17.1028 2.33203 16.4027 2.33203 15.0026V6.33594C2.33203 4.93581 2.33203 4.23574 2.60451 3.70096C2.8442 3.23056 3.22665 2.8481 3.69706 2.60842C4.23183 2.33594 4.9319 2.33594 6.33203 2.33594H14.9987C16.3988 2.33594 17.0989 2.33594 17.6337 2.60842C18.1041 2.8481 18.4865 3.23056 18.7262 3.70096C18.9987 4.23574 18.9987 4.93581 18.9987 6.33594V15.0026C18.9987 16.4027 18.9987 17.1028 18.7262 17.6376C18.4865 18.108 18.1041 18.4904 17.6337 18.7301C17.5393 18.7782 17.4397 18.8178 17.332 18.8505M3.99872 18.8505C3.99899 18.176 4.00304 17.8192 4.06275 17.519C4.32577 16.1967 5.35943 15.163 6.68173 14.9C7.00373 14.8359 7.39094 14.8359 8.16536 14.8359H13.1654C13.9398 14.8359 14.327 14.8359 14.649 14.9C15.9713 15.163 17.005 16.1967 17.268 17.519C17.3277 17.8192 17.3317 18.176 17.332 18.8505M13.9987 8.58594C13.9987 10.4269 12.5063 11.9193 10.6654 11.9193C8.82442 11.9193 7.33203 10.4269 7.33203 8.58594C7.33203 6.74499 8.82442 5.2526 10.6654 5.2526C12.5063 5.2526 13.9987 6.74499 13.9987 8.58594Z" stroke="#2E90FA" stroke-width="2" stroke-linecap="round" stroke-linejoin="round"/>
</svg>
