<svg width="16" height="17" viewBox="0 0 16 17" fill="none" xmlns="http://www.w3.org/2000/svg">
<path d="M12.109 1.83594H3.89228C3.58394 1.83594 3.33398 2.08589 3.33398 2.39423C3.33398 4.17106 4.03982 5.87511 5.29623 7.13152L6.10902 7.94431C6.18974 8.02502 6.23009 8.06538 6.25899 8.10414C6.43524 8.34055 6.43524 8.66466 6.25899 8.90107C6.23009 8.93983 6.18974 8.98018 6.10902 9.0609L5.29623 9.87369C4.03983 11.1301 3.33398 12.8341 3.33398 14.611C3.33398 14.9193 3.58394 15.1693 3.89228 15.1693H12.109C12.4174 15.1693 12.6673 14.9193 12.6673 14.611C12.6673 12.8341 11.9615 11.1301 10.7051 9.87369L9.89228 9.0609C9.81156 8.98018 9.77121 8.93983 9.74231 8.90107C9.56606 8.66466 9.56606 8.34055 9.74231 8.10414C9.77121 8.06538 9.81156 8.02502 9.89228 7.94431L10.7051 7.13152C11.9615 5.87511 12.6673 4.17106 12.6673 2.39423C12.6673 2.08589 12.4174 1.83594 12.109 1.83594Z" stroke="#667085" stroke-width="1.66" stroke-linecap="round" stroke-linejoin="round"/>
</svg>
