<svg width="30" height="28" viewBox="0 0 30 28" fill="none" xmlns="http://www.w3.org/2000/svg">
<path d="M7.3053 2.64107V5.54286H2.57014C1.30731 5.54286 0.275 6.5446 0.275 7.7835V20.6451C0.275 21.8869 1.30411 22.8857 2.57014 22.8857H17.072C17.3675 22.8857 17.6114 22.6514 17.6114 22.3571C17.6114 22.0629 17.3675 21.8286 17.072 21.8286H6.62651V6.6H19.6083V14.6429C19.6083 14.9371 19.8522 15.1714 20.1477 15.1714C20.4433 15.1714 20.6871 14.9371 20.6871 14.6429V6.6H23.6647C24.3401 6.6 24.8811 7.13053 24.8811 7.7835V11.2165C24.8811 11.5108 25.1249 11.7451 25.4205 11.7451C25.716 11.7451 25.9598 11.5108 25.9598 11.2165V7.7835C25.9598 6.54162 24.9307 5.54286 23.6647 5.54286H18.9295V2.64107C18.9295 1.40355 17.9 0.4 16.6369 0.4H9.5979C8.33318 0.4 7.3053 1.40101 7.3053 2.64107ZM2.57014 6.6H5.54773V21.8286H2.57014C1.89478 21.8286 1.35379 21.298 1.35379 20.6451V7.7835C1.35379 7.13354 1.89795 6.6 2.57014 6.6ZM17.8508 2.64107V5.54286H8.38409V2.64107C8.38409 1.98887 8.92492 1.45714 9.5979 1.45714H16.6369C17.3081 1.45714 17.8508 1.99118 17.8508 2.64107ZM24.6005 15.4461L25.4321 16.2571H24.5417C21.8194 16.2571 19.6083 18.4102 19.6083 21.0714C19.6083 21.3657 19.8522 21.6 20.1477 21.6C20.4433 21.6 20.6871 21.3657 20.6871 21.0714C20.6871 18.9988 22.4105 17.3143 24.5417 17.3143H25.4321L24.6005 18.1254C24.3887 18.332 24.3887 18.668 24.6005 18.8746C24.811 19.0799 25.1511 19.0799 25.3616 18.8746L27.1192 17.1603C27.331 16.9537 27.331 16.6177 27.1192 16.4111L25.3616 14.6968C25.1511 14.4915 24.811 14.4915 24.6005 14.6968C24.3887 14.9034 24.3887 15.2394 24.6005 15.4461ZM24.4828 26.6968L23.6512 25.8857H24.5417C27.2639 25.8857 29.475 23.7326 29.475 21.0714C29.475 20.7772 29.2311 20.5429 28.9356 20.5429C28.6401 20.5429 28.3962 20.7772 28.3962 21.0714C28.3962 23.1441 26.6728 24.8286 24.5417 24.8286H23.6512L24.4828 24.0175C24.6946 23.8109 24.6946 23.4748 24.4828 23.2682C24.2724 23.063 23.9322 23.063 23.7218 23.2682L21.9642 24.9825C21.7523 25.1891 21.7523 25.5252 21.9642 25.7318L23.7218 27.4461C23.9322 27.6513 24.2724 27.6513 24.4828 27.4461C24.6946 27.2395 24.6946 26.9034 24.4828 26.6968Z" fill="#2E90FA" stroke="#2E90FA" stroke-width="0.2"/>
</svg>
