<svg width="27" height="21" viewBox="0 0 27 21" fill="none" xmlns="http://www.w3.org/2000/svg">
<path d="M15 6C15 5.07003 15 4.60504 14.8978 4.22354C14.6204 3.18827 13.8117 2.37962 12.7765 2.10222C12.395 2 11.93 2 11 2C10.07 2 9.60504 2 9.22354 2.10222C8.18827 2.37962 7.37962 3.18827 7.10222 4.22354C7 4.60504 7 5.07003 7 6M4.2 20H17.8C18.9201 20 19.4802 20 19.908 19.782C20.2843 19.5903 20.5903 19.2843 20.782 18.908C21 18.4802 21 17.9201 21 16.8V9.2C21 8.07989 21 7.51984 20.782 7.09202C20.5903 6.71569 20.2843 6.40973 19.908 6.21799C19.4802 6 18.9201 6 17.8 6H4.2C3.07989 6 2.51984 6 2.09202 6.21799C1.71569 6.40973 1.40973 6.71569 1.21799 7.09202C1 7.51984 1 8.07989 1 9.2V16.8C1 17.9201 1 18.4802 1.21799 18.908C1.40973 19.2843 1.71569 19.5903 2.09202 19.782C2.51984 20 3.0799 20 4.2 20Z" stroke="#2E90FA" stroke-width="2" stroke-linecap="round" stroke-linejoin="round"/>
<circle cx="22" cy="5" r="5" fill="#2E90FA"/>
</svg>
