<svg width="23" height="22" viewBox="0 0 23 22" fill="none" xmlns="http://www.w3.org/2000/svg">
<path d="M12.1218 13.8446L17.0004 20.9999M9.87903 13.8446L5.00041 20.9999M13.0004 12.2C13.0004 13.3045 12.105 14.2 11.0004 14.2C9.89584 14.2 9.00041 13.3045 9.00041 12.2C9.00041 11.0954 9.89584 10.2 11.0004 10.2C12.105 10.2 13.0004 11.0954 13.0004 12.2ZM16.1489 3.53225L4.36462 6.68984C4.09414 6.76232 3.95889 6.79855 3.86969 6.87888C3.79122 6.94953 3.73713 7.04321 3.71518 7.14649C3.69022 7.26391 3.72646 7.39915 3.79893 7.66964L4.67892 10.9538C4.7514 11.2243 4.78763 11.3595 4.86796 11.4487C4.93861 11.5272 5.03229 11.5813 5.13557 11.6032C5.25299 11.6282 5.38823 11.5919 5.65871 11.5195L17.443 8.36188L16.1489 3.53225ZM20.7928 8.49958C19.7109 8.78949 19.1699 8.93444 18.7002 8.83461C18.2871 8.74679 17.9124 8.53045 17.6298 8.21657C17.3085 7.85975 17.1635 7.31878 16.8736 6.23684L16.7183 5.65728C16.4284 4.57535 16.2835 4.03438 16.3833 3.56471C16.4711 3.15158 16.6875 2.77686 17.0013 2.49425C17.3582 2.17296 17.8991 2.02801 18.9811 1.7381C19.2515 1.66562 19.3868 1.62939 19.5042 1.65434C19.6075 1.6763 19.7012 1.73038 19.7718 1.80885C19.8521 1.89806 19.8884 2.0333 19.9609 2.30379L21.3585 7.51979C21.431 7.79027 21.4672 7.92551 21.4422 8.04293C21.4203 8.14621 21.3662 8.23989 21.2877 8.31055C21.1985 8.39087 21.0633 8.42711 20.7928 8.49958ZM2.50212 11.33L3.85441 10.9677C4.1249 10.8952 4.26014 10.8589 4.34935 10.7786C4.42782 10.708 4.4819 10.6143 4.50386 10.511C4.52881 10.3936 4.49258 10.2583 4.4201 9.98786L4.05775 8.63556C3.98528 8.36508 3.94904 8.22983 3.86872 8.14063C3.79806 8.06216 3.70438 8.00807 3.6011 7.98612C3.48368 7.96116 3.34844 7.9974 3.07796 8.06988L1.72566 8.43222C1.45518 8.5047 1.31993 8.54094 1.23073 8.62126C1.15226 8.69191 1.09817 8.78559 1.07622 8.88888C1.05126 9.00629 1.0875 9.14153 1.15998 9.41202L1.52232 10.7643C1.5948 11.0348 1.63104 11.17 1.71136 11.2592C1.78201 11.3377 1.87569 11.3918 1.97898 11.4138C2.09639 11.4387 2.23163 11.4025 2.50212 11.33Z" stroke="white" stroke-width="2" stroke-linecap="round" stroke-linejoin="round"/>
</svg>
