<svg width="16" height="17" viewBox="0 0 16 17" fill="none" xmlns="http://www.w3.org/2000/svg">
<path d="M5.00065 7.83333H3.06732C2.69395 7.83333 2.50727 7.83333 2.36466 7.906C2.23922 7.96991 2.13723 8.0719 2.07331 8.19734C2.00065 8.33995 2.00065 8.52663 2.00065 8.9V14.5M11.0007 7.83333H12.934C13.3074 7.83333 13.494 7.83333 13.6366 7.906C13.7621 7.96991 13.8641 8.0719 13.928 8.19734C14.0007 8.33995 14.0007 8.52663 14.0007 8.9V14.5M11.0007 14.5V4.63333C11.0007 3.8866 11.0007 3.51323 10.8553 3.22801C10.7275 2.97713 10.5235 2.77316 10.2726 2.64532C9.98742 2.5 9.61405 2.5 8.86732 2.5H7.13398C6.38725 2.5 6.01388 2.5 5.72866 2.64532C5.47778 2.77316 5.27381 2.97713 5.14598 3.22801C5.00065 3.51323 5.00065 3.8866 5.00065 4.63333V14.5M14.6673 14.5H1.33398M7.33398 5.16667H8.66732M7.33398 7.83333H8.66732M7.33398 10.5H8.66732" stroke="#667085" stroke-width="1.5" stroke-linecap="round" stroke-linejoin="round"/>
</svg>
