<svg width="16" height="17" viewBox="0 0 16 17" fill="none" xmlns="http://www.w3.org/2000/svg">
<g clip-path="url(#clip0_12193_25143)">
<path d="M14 7.16634H2M14 8.83301V6.36634C14 5.24624 14 4.68618 13.782 4.25836C13.5903 3.88204 13.2843 3.57607 12.908 3.38433C12.4802 3.16634 11.9201 3.16634 10.8 3.16634H5.2C4.0799 3.16634 3.51984 3.16634 3.09202 3.38433C2.71569 3.57607 2.40973 3.88204 2.21799 4.25836C2 4.68618 2 5.24624 2 6.36634V11.9663C2 13.0864 2 13.6465 2.21799 14.0743C2.40973 14.4506 2.71569 14.7566 3.09202 14.9484C3.51984 15.1663 4.0799 15.1663 5.2 15.1663H8M10.6667 1.83301V4.49967M5.33333 1.83301V4.49967M9.66667 13.1663L11 14.4997L14 11.4997" stroke="#667085" stroke-width="2" stroke-linecap="round" stroke-linejoin="round"/>
</g>
<defs>
<clipPath id="clip0_12193_25143">
<rect width="16" height="16" fill="white" transform="translate(0 0.5)"/>
</clipPath>
</defs>
</svg>
