<svg width="16" height="17" viewBox="0 0 16 17" fill="none" xmlns="http://www.w3.org/2000/svg">
<g clip-path="url(#clip0_6097_87600)">
<path d="M14.6673 7.89309V8.50642C14.6665 9.94404 14.201 11.3429 13.3402 12.4943C12.4794 13.6457 11.2695 14.4881 9.89089 14.8957C8.51227 15.3033 7.03882 15.2544 5.6903 14.7561C4.34177 14.2579 3.19042 13.3372 2.40796 12.1311C1.6255 10.9251 1.25385 9.49846 1.34844 8.06396C1.44303 6.62946 1.99879 5.26397 2.93284 4.17114C3.86689 3.0783 5.12917 2.31667 6.53144 1.99985C7.93371 1.68303 9.40083 1.82798 10.714 2.41309M14.6673 3.16927L8.00065 9.8426L6.00065 7.8426" stroke="#667085" stroke-width="2" stroke-linecap="round" stroke-linejoin="round"/>
</g>
<defs>
<clipPath id="clip0_6097_87600">
<rect width="16" height="16" fill="white" transform="translate(0 0.5)"/>
</clipPath>
</defs>
</svg>
