<svg width="56" height="56" viewBox="0 0 56 56" fill="none" xmlns="http://www.w3.org/2000/svg">
<rect x="4" y="4" width="48" height="48" rx="24" fill="#F4EBFF"/>
<path d="M23.1583 27.2557L28.85 30.5724M28.8417 21.4224L23.1583 24.7391M33.5 20.1641C33.5 21.5448 32.3807 22.6641 31 22.6641C29.6193 22.6641 28.5 21.5448 28.5 20.1641C28.5 18.7834 29.6193 17.6641 31 17.6641C32.3807 17.6641 33.5 18.7834 33.5 20.1641ZM23.5 25.9974C23.5 27.3781 22.3807 28.4974 21 28.4974C19.6193 28.4974 18.5 27.3781 18.5 25.9974C18.5 24.6167 19.6193 23.4974 21 23.4974C22.3807 23.4974 23.5 24.6167 23.5 25.9974ZM33.5 31.8307C33.5 33.2114 32.3807 34.3307 31 34.3307C29.6193 34.3307 28.5 33.2114 28.5 31.8307C28.5 30.45 29.6193 29.3307 31 29.3307C32.3807 29.3307 33.5 30.45 33.5 31.8307Z" stroke="#7F56D9" stroke-width="2" stroke-linecap="round" stroke-linejoin="round"/>
<rect x="4" y="4" width="48" height="48" rx="24" stroke="#F9F5FF" stroke-width="8"/>
</svg>
