<svg width="56" height="56" viewBox="0 0 56 56" fill="none" xmlns="http://www.w3.org/2000/svg">
<rect x="4" y="4" width="48" height="48" rx="24" fill="#F2F4F7"/>
<path d="M27 19.9963H20C19.4696 19.9963 18.9609 20.207 18.5858 20.5821C18.2107 20.9572 18 21.4659 18 21.9963V35.9963C18 36.5268 18.2107 37.0355 18.5858 37.4105C18.9609 37.7856 19.4696 37.9963 20 37.9963H34C34.5304 37.9963 35.0391 37.7856 35.4142 37.4105C35.7893 37.0355 36 36.5268 36 35.9963V28.9963M34.5 18.4963C34.8978 18.0985 35.4374 17.875 36 17.875C36.5626 17.875 37.1022 18.0985 37.5 18.4963C37.8978 18.8941 38.1213 19.4337 38.1213 19.9963C38.1213 20.5589 37.8978 21.0985 37.5 21.4963L28 30.9963L24 31.9963L25 27.9963L34.5 18.4963Z" stroke="#475467" stroke-width="2" stroke-linecap="round" stroke-linejoin="round"/>
<rect x="4" y="4" width="48" height="48" rx="24" stroke="#F9FAFB" stroke-width="8"/>
</svg>
