<svg width="6" height="7" viewBox="0 0 6 7" fill="none" xmlns="http://www.w3.org/2000/svg">
<g clip-path="url(#clip0_9084_129400)">
<g clip-path="url(#clip1_9084_129400)">
<g clip-path="url(#clip2_9084_129400)">
<path d="M3.82018 1.8318L4.32018 1.8318C4.3666 1.83161 4.41254 1.84112 4.45507 1.85971C4.4976 1.87831 4.53578 1.90558 4.56716 1.93979C4.59854 1.97399 4.62243 2.01437 4.6373 2.05834C4.65217 2.10231 4.65769 2.1489 4.65351 2.19513C4.59779 2.70799 4.42254 3.20063 4.14185 3.63346C3.88596 4.03616 3.54454 4.37758 3.14185 4.63346C2.70705 4.91514 2.21201 5.09042 1.69685 5.14513C1.65076 5.1493 1.60431 5.14382 1.56045 5.12905C1.51659 5.11428 1.47629 5.09054 1.44212 5.05934C1.40794 5.02814 1.38063 4.99016 1.36193 4.94783C1.34323 4.9055 1.33356 4.85974 1.33351 4.81346L1.33351 4.31346C1.33272 4.23258 1.36136 4.15417 1.4141 4.09284C1.46684 4.03151 1.54009 3.99145 1.62018 3.98013C1.78019 3.95903 1.9373 3.91989 2.08851 3.86346C2.14817 3.84104 2.213 3.83619 2.27533 3.84948C2.33765 3.86277 2.39486 3.89365 2.44018 3.93846L2.65185 4.15013C3.0691 3.91287 3.41459 3.56739 3.65185 3.15013L3.44018 2.93846C3.39537 2.89315 3.36449 2.83594 3.35119 2.77361C3.3379 2.71128 3.34275 2.64645 3.36518 2.5868C3.4216 2.43559 3.46074 2.27848 3.48185 2.11846C3.49327 2.0375 3.53405 1.96356 3.59643 1.91071C3.65881 1.85785 3.73844 1.82977 3.82018 1.8318Z" stroke="#E2EAFC" stroke-width="0.333333" stroke-linecap="round" stroke-linejoin="round"/>
</g>
</g>
</g>
<defs>
<clipPath id="clip0_9084_129400">
<rect width="5.33333" height="5.33333" fill="white" transform="translate(0.333496 6.16602) rotate(-90)"/>
</clipPath>
<clipPath id="clip1_9084_129400">
<rect width="5.33333" height="5.33333" fill="white" transform="translate(0.333496 5.72168) rotate(-90)"/>
</clipPath>
<clipPath id="clip2_9084_129400">
<rect width="4" height="4" fill="white" transform="translate(1 5.49902) rotate(-90)"/>
</clipPath>
</defs>
</svg>
