<svg width="31" height="32" viewBox="0 0 31 32" fill="none" xmlns="http://www.w3.org/2000/svg">
<path d="M21.0499 0.30957H9.94085C4.72983 0.30957 0.499023 4.73503 0.499023 10.1858V21.8147C0.499023 27.2567 4.72983 31.6909 9.94085 31.6909H21.0582C26.2609 31.6909 30.5001 27.2654 30.5001 21.8147V10.1858C30.5001 4.74379 26.2693 0.30957 21.0582 0.30957H21.0499ZM3.12967 23.0941C3.05427 22.6735 3.01238 22.2441 3.01238 21.8059V10.1858C3.01238 6.18973 6.12056 2.93856 9.94085 2.93856H21.0582C23.0103 2.93856 24.778 3.78859 26.0347 5.15567L22.3233 9.04656C20.2205 7.76712 17.506 8.0826 15.7132 9.95794L3.12967 23.0941ZM27.9783 21.8059C27.9783 25.802 24.8702 29.0531 21.0499 29.0531H9.94085C7.98881 29.0531 6.22109 28.1943 4.95604 26.8273L8.65904 22.9539C10.7786 24.2333 13.5014 23.9091 15.3027 22.0337L27.8611 8.88006C27.9365 9.3007 27.9783 9.73886 27.9783 10.1858V21.8147V21.8059Z" fill="white"/>
</svg>
