<svg width="17" height="16" viewBox="0 0 17 16" fill="none" xmlns="http://www.w3.org/2000/svg">
<path d="M9.25 4L8.41334 2.32669C8.17255 1.8451 8.05215 1.6043 7.87253 1.42837C7.71368 1.2728 7.52224 1.15448 7.31206 1.08198C7.07437 1 6.80516 1 6.26672 1H3.4C2.55992 1 2.13988 1 1.81901 1.16349C1.53677 1.3073 1.3073 1.53677 1.16349 1.81901C1 2.13988 1 2.55992 1 3.4V4M1 4H12.4C13.6601 4 14.2902 4 14.7715 4.24524C15.1948 4.46095 15.539 4.80516 15.7548 5.22852C16 5.70982 16 6.33988 16 7.6V10.9C16 12.1601 16 12.7902 15.7548 13.2715C15.539 13.6948 15.1948 14.039 14.7715 14.2548C14.2902 14.5 13.6601 14.5 12.4 14.5H4.6C3.33988 14.5 2.70982 14.5 2.22852 14.2548C1.80516 14.039 1.46095 13.6948 1.24524 13.2715C1 12.7902 1 12.1601 1 10.9V4Z" stroke="#2E90FA" stroke-width="2" stroke-linecap="round" stroke-linejoin="round"/>
</svg>
