<svg width="18" height="17" viewBox="0 0 18 17" fill="none" xmlns="http://www.w3.org/2000/svg">
<path d="M9.75 4.75L8.91334 3.07669C8.67255 2.5951 8.55215 2.3543 8.37253 2.17837C8.21368 2.0228 8.02224 1.90448 7.81206 1.83198C7.57437 1.75 7.30516 1.75 6.76672 1.75H3.9C3.05992 1.75 2.63988 1.75 2.31901 1.91349C2.03677 2.0573 1.8073 2.28677 1.66349 2.56901C1.5 2.88988 1.5 3.30992 1.5 4.15V4.75M1.5 4.75H12.9C14.1601 4.75 14.7902 4.75 15.2715 4.99524C15.6948 5.21095 16.039 5.55516 16.2548 5.97852C16.5 6.45982 16.5 7.08988 16.5 8.35V11.65C16.5 12.9101 16.5 13.5402 16.2548 14.0215C16.039 14.4448 15.6948 14.789 15.2715 15.0048C14.7902 15.25 14.1601 15.25 12.9 15.25H5.1C3.83988 15.25 3.20982 15.25 2.72852 15.0048C2.30516 14.789 1.96095 14.4448 1.74524 14.0215C1.5 13.5402 1.5 12.9101 1.5 11.65V4.75Z" stroke="#667085" stroke-width="2" stroke-linecap="round" stroke-linejoin="round"/>
</svg>
