<svg width="25" height="22" viewBox="0 0 25 22" fill="none" xmlns="http://www.w3.org/2000/svg">
<path d="M17.3329 5.44444C17.3329 4.41114 17.3329 3.89449 17.2193 3.4706C16.9111 2.3203 16.0126 1.4218 14.8623 1.11358C14.4384 1 13.9218 1 12.8885 1C11.8552 1 11.3385 1 10.9146 1.11358C9.76431 1.4218 8.86581 2.3203 8.55759 3.4706C8.44401 3.89449 8.44401 4.41114 8.44401 5.44444M16.2218 16.7778L12.8885 13.4444L9.55512 16.7778M16.2218 12.1111L12.8885 8.77778L9.55512 12.1111M5.3329 21H20.444C21.6886 21 22.3109 21 22.7862 20.7578C23.2044 20.5447 23.5443 20.2048 23.7574 19.7866C23.9996 19.3113 23.9996 18.689 23.9996 17.4444V9C23.9996 7.75544 23.9996 7.13316 23.7574 6.6578C23.5443 6.23966 23.2044 5.8997 22.7862 5.68665C22.3109 5.44444 21.6886 5.44444 20.444 5.44444H5.3329C4.08834 5.44444 3.46606 5.44444 2.9907 5.68665C2.57256 5.8997 2.2326 6.23966 2.01955 6.6578C1.77734 7.13316 1.77734 7.75544 1.77734 9V17.4444C1.77734 18.689 1.77734 19.3113 2.01955 19.7866C2.2326 20.2048 2.57256 20.5447 2.9907 20.7578C3.46606 21 4.08834 21 5.3329 21Z" stroke="#2E90FA" stroke-width="2" stroke-linecap="round" stroke-linejoin="round"/>
</svg>
