<svg width="16" height="17" viewBox="0 0 16 17" fill="none" xmlns="http://www.w3.org/2000/svg">
<path d="M1.61342 8.97806C1.52262 8.8343 1.47723 8.76242 1.45182 8.65155C1.43273 8.56827 1.43273 8.43694 1.45182 8.35366C1.47723 8.24279 1.52262 8.17091 1.61341 8.02715C2.36369 6.83916 4.59693 3.83594 8.00027 3.83594C11.4036 3.83594 13.6369 6.83916 14.3871 8.02715C14.4779 8.17091 14.5233 8.24279 14.5487 8.35366C14.5678 8.43694 14.5678 8.56827 14.5487 8.65155C14.5233 8.76242 14.4779 8.8343 14.3871 8.97806C13.6369 10.166 11.4036 13.1693 8.00027 13.1693C4.59693 13.1693 2.36369 10.166 1.61342 8.97806Z" stroke="#1570EF" stroke-width="2" stroke-linecap="round" stroke-linejoin="round"/>
<path d="M8.00027 10.5026C9.10484 10.5026 10.0003 9.60717 10.0003 8.5026C10.0003 7.39803 9.10484 6.5026 8.00027 6.5026C6.8957 6.5026 6.00027 7.39803 6.00027 8.5026C6.00027 9.60717 6.8957 10.5026 8.00027 10.5026Z" stroke="#1570EF" stroke-width="2" stroke-linecap="round" stroke-linejoin="round"/>
</svg>
