<svg width="56" height="56" viewBox="0 0 56 56" fill="none" xmlns="http://www.w3.org/2000/svg">
<rect x="4" y="4" width="48" height="48" rx="24" fill="#FF8970"/>
<rect x="4" y="4" width="48" height="48" rx="24" stroke="#FF8970" stroke-width="8"/>
<path d="M27.9988 24.0012V28.0012M27.9988 32.0012H28.0088M26.2888 18.8612L17.8188 33.0012C17.6442 33.3036 17.5518 33.6465 17.5508 33.9957C17.5498 34.3449 17.6403 34.6883 17.8132 34.9917C17.9862 35.2951 18.2355 35.5479 18.5365 35.725C18.8375 35.9021 19.1796 35.9973 19.5288 36.0012H36.4688C36.818 35.9973 37.1601 35.9021 37.4611 35.725C37.7621 35.5479 38.0114 35.2951 38.1844 34.9917C38.3573 34.6883 38.4478 34.3449 38.4468 33.9957C38.4458 33.6465 38.3534 33.3036 38.1788 33.0012L29.7088 18.8612C29.5305 18.5673 29.2795 18.3243 28.98 18.1557C28.6805 17.987 28.3425 17.8984 27.9988 17.8984C27.6551 17.8984 27.3171 17.987 27.0176 18.1557C26.7181 18.3243 26.4671 18.5673 26.2888 18.8612Z" stroke="white" stroke-width="2" stroke-linecap="round" stroke-linejoin="round"/>
</svg>
