<svg width="38" height="38" viewBox="0 0 38 38" fill="none" xmlns="http://www.w3.org/2000/svg">
<rect x="3" y="3" width="31.92" height="31.92" rx="15.96" fill="#101828"/>
<rect x="3" y="3" width="31.92" height="31.92" rx="15.96" stroke="#CCD9EE" stroke-width="5.32"/>
<g clip-path="url(#clip0_9084_129451)">
<g clip-path="url(#clip1_9084_129451)">
<path d="M27.5566 19.1388L24.162 13.7582C24.1353 13.7049 24.0551 13.6517 24.0017 13.6517C23.9215 13.625 23.868 13.6517 23.7878 13.6783L22.1841 14.6905C22.0504 14.7704 22.0237 14.9302 22.1039 15.0634L22.1841 15.1966C21.5426 15.09 20.5536 15.0368 19.9121 15.3298H19.8854C19.1904 15.09 18.0143 15.2232 17.3194 15.3564L17.5332 15.0101C17.6134 14.8769 17.5599 14.7171 17.4263 14.6372L15.8493 13.7049C15.7958 13.6783 15.7156 13.6517 15.6354 13.6783C15.5552 13.7049 15.5018 13.7316 15.475 13.8115L12.3477 19.2986C12.2675 19.4318 12.321 19.5916 12.4547 19.6716L14.0049 20.5506C14.0584 20.5772 14.0851 20.5772 14.1386 20.5772C14.2188 20.5772 14.3257 20.5239 14.3792 20.444L14.6999 19.8846C14.7801 20.0711 14.887 20.2309 14.9939 20.3375C14.8068 20.5506 14.6999 20.8169 14.6999 21.0833C14.6999 21.3763 14.8068 21.6693 15.0207 21.8824C15.2345 22.0955 15.5285 22.202 15.8225 22.202C15.8493 22.202 15.876 22.202 15.9294 22.202C15.9294 22.2287 15.9294 22.2553 15.9294 22.3086C15.9294 22.6016 16.0364 22.8946 16.2502 23.1077C16.464 23.3208 16.7313 23.4273 17.0521 23.4273C17.0788 23.4273 17.1055 23.4273 17.159 23.4273C17.159 23.454 17.159 23.4806 17.159 23.5339C17.159 23.8269 17.2659 24.1199 17.4797 24.333C17.6936 24.5461 17.9876 24.6526 18.2816 24.6526C18.5756 24.6526 18.8429 24.5461 19.0835 24.333L19.1904 24.2264L19.8319 24.7059C20.0457 24.8657 20.2596 24.9456 20.5001 24.9456C20.8476 24.9456 21.1684 24.8124 21.3555 24.5461C21.4891 24.3596 21.5693 24.1732 21.5693 23.9601C21.596 23.9601 21.596 23.9601 21.6228 23.9601C21.9435 23.9601 22.2643 23.8269 22.4781 23.5605C22.6117 23.3741 22.6919 23.161 22.6919 22.9745C22.7187 22.9745 22.7454 22.9745 22.7721 22.9745C23.0929 22.9745 23.4136 22.8413 23.6275 22.6016C23.7611 22.4418 23.8413 22.2553 23.8413 22.0156C24.1086 21.9889 24.3759 21.8558 24.5362 21.616C24.7768 21.2964 24.8035 20.8968 24.6432 20.5772L25.3648 20.151L25.5787 20.4973C25.6054 20.5506 25.6856 20.6038 25.7391 20.6038C25.7658 20.6038 25.7658 20.6038 25.7925 20.6038C25.846 20.6038 25.8994 20.5772 25.9262 20.5506L27.5299 19.5117C27.6101 19.4052 27.6368 19.2454 27.5566 19.1388ZM14.0317 19.9379L12.9358 19.3253L15.7958 14.2643L16.9184 14.9302L14.0317 19.9379ZM15.3681 21.5095C15.2612 21.4029 15.2078 21.2431 15.2078 21.1099C15.2078 20.9501 15.2612 20.8169 15.3681 20.7104L15.5285 20.5506C15.7423 20.3375 16.1433 20.3375 16.3571 20.5506C16.464 20.6571 16.5175 20.8169 16.5175 20.9501C16.5175 21.1099 16.464 21.2431 16.3571 21.3497L16.1967 21.5095C15.9829 21.7226 15.6087 21.7226 15.3681 21.5095ZM16.5709 22.7081C16.464 22.6016 16.4106 22.4418 16.4106 22.3086C16.4106 22.1488 16.464 22.0156 16.5709 21.909L16.7313 21.7492C16.8382 21.6427 16.9986 21.5894 17.1323 21.5894C17.2659 21.5894 17.4263 21.6427 17.5332 21.7492C17.7738 21.9889 17.7738 22.3352 17.5332 22.575L17.3728 22.7348C17.1857 22.9212 16.8115 22.9212 16.5709 22.7081ZM18.6024 23.9068C18.3618 24.1199 18.0143 24.1199 17.7738 23.9068C17.6668 23.8002 17.6134 23.6404 17.6134 23.5072C17.6134 23.3474 17.6668 23.2142 17.7738 23.1077L17.9341 22.9479C18.0411 22.8413 18.2014 22.7881 18.3351 22.7881C18.4687 22.7881 18.6291 22.8413 18.736 22.9479C18.8429 23.0544 18.8964 23.2142 18.8964 23.3474C18.8964 23.5072 18.8429 23.6404 18.736 23.747L18.6024 23.9068ZM24.0284 21.2431C23.9215 21.3763 23.7611 21.4562 23.574 21.4296C23.5473 21.4029 23.4938 21.4029 23.4403 21.4029C23.3869 21.3763 23.3334 21.3497 23.28 21.323L22.7454 20.8968C22.6385 20.8169 22.4514 20.8169 22.3712 20.9501C22.291 21.0567 22.291 21.2431 22.4246 21.323L22.9592 21.7492C23.0394 21.8025 23.1196 21.8558 23.2265 21.909C23.2265 22.0156 23.1998 22.1221 23.1463 22.202C22.9592 22.4151 22.6117 22.4684 22.3979 22.3086L22.3712 22.282C22.3712 22.282 22.3445 22.282 22.3445 22.2553L21.8099 21.8291C21.703 21.7492 21.5158 21.7492 21.4357 21.8824C21.3555 21.9889 21.3555 22.1754 21.4891 22.2553L22.0237 22.6815L22.0504 22.7081C22.1306 22.8413 22.1306 23.0544 22.0237 23.1876C21.8633 23.3741 21.5426 23.454 21.3287 23.3208C21.302 23.2941 21.2753 23.2941 21.2486 23.2675L21.2218 23.2409L20.6872 22.8147C20.5803 22.7348 20.3932 22.7348 20.313 22.868C20.2328 22.9745 20.2328 23.161 20.3665 23.2409L20.9011 23.6671C20.9278 23.6671 20.9278 23.6937 20.9545 23.7203C21.008 23.8802 21.008 24.04 20.8743 24.1998C20.7942 24.333 20.6338 24.3863 20.4467 24.3863C20.313 24.3863 20.2061 24.3596 20.0992 24.2531L19.5646 23.8535L19.431 23.7736C19.4844 23.6404 19.5112 23.5072 19.5112 23.3474C19.5112 23.0544 19.4042 22.7614 19.1904 22.5483C18.9498 22.3086 18.6291 22.202 18.3083 22.2287C18.3351 21.909 18.2282 21.5894 17.9876 21.3497C17.747 21.1099 17.4263 21.0034 17.1055 21.03C17.1055 21.0034 17.1055 20.9768 17.1055 20.9235C17.1055 20.6305 16.9986 20.3375 16.7848 20.1244C16.5709 19.9113 16.3037 19.8047 15.9829 19.8047C15.7691 19.8047 15.5552 19.858 15.3949 19.9646C15.2879 19.8314 15.1276 19.5916 15.0741 19.2454L16.9986 15.9158C17.5332 15.8092 18.6558 15.6228 19.4042 15.7293L17.5599 17.4341C17.2392 17.7537 17.2124 18.2598 17.5332 18.6061C17.6936 18.7925 17.9341 18.8991 18.1747 18.8991C18.3351 18.8991 18.4954 18.8458 18.6291 18.7659L20.1527 17.7537C20.3665 17.5939 20.6338 17.5406 20.9011 17.5939L21.1684 17.6205L23.6007 20.1777L24.0284 20.6305C24.162 20.7637 24.162 21.0567 24.0284 21.2431ZM24.2422 20.0977L23.9482 19.7781L21.9702 17.6738L22.3177 17.7004C22.4514 17.7271 22.585 17.6205 22.6117 17.4607C22.6385 17.3275 22.5316 17.1943 22.3712 17.1677L21.3555 17.0612C21.302 17.0345 21.2753 17.0345 21.2218 17.0345L20.9545 17.0079C20.5803 16.9546 20.1527 17.0345 19.8319 17.2743L18.3083 18.2864C18.1747 18.3664 18.0143 18.3397 17.9074 18.2332C17.8005 18.1 17.8005 17.9135 17.9074 17.807L19.9121 15.9424C19.9388 15.9158 19.9923 15.8891 20.019 15.8359C20.0725 15.8359 20.0992 15.8092 20.1259 15.7826C20.6872 15.5162 21.8366 15.6228 22.5583 15.7826L24.9906 19.6449L24.2422 20.0977ZM25.8192 19.9379L25.6321 19.6716C25.6321 19.6449 25.6321 19.6183 25.6054 19.5916C25.5787 19.565 25.552 19.5384 25.552 19.5117L22.7187 14.9835L23.868 14.2643L26.9686 19.1921L25.8192 19.9379Z" fill="white"/>
</g>
</g>
<defs>
<clipPath id="clip0_9084_129451">
<rect width="15.96" height="15.96" fill="white" transform="translate(10.98 10.9805)"/>
</clipPath>
<clipPath id="clip1_9084_129451">
<rect width="15.96" height="15.96" fill="white" transform="translate(12.3101 10.9805)"/>
</clipPath>
</defs>
</svg>
