<svg width="32" height="32" viewBox="0 0 32 32" fill="none" xmlns="http://www.w3.org/2000/svg">
<rect width="32" height="32" rx="16" fill="#3E4784"/>
<path d="M16.75 12.25L15.9133 10.5767C15.6726 10.0951 15.5521 9.8543 15.3725 9.67837C15.2137 9.5228 15.0222 9.40448 14.8121 9.33198C14.5744 9.25 14.3052 9.25 13.7667 9.25H10.9C10.0599 9.25 9.63988 9.25 9.31901 9.41349C9.03677 9.5573 8.8073 9.78677 8.66349 10.069C8.5 10.3899 8.5 10.8099 8.5 11.65V12.25M8.5 12.25H19.9C21.1601 12.25 21.7902 12.25 22.2715 12.4952C22.6948 12.711 23.039 13.0552 23.2548 13.4785C23.5 13.9598 23.5 14.5899 23.5 15.85V19.15C23.5 20.4101 23.5 21.0402 23.2548 21.5215C23.039 21.9448 22.6948 22.289 22.2715 22.5048C21.7902 22.75 21.1601 22.75 19.9 22.75H12.1C10.8399 22.75 10.2098 22.75 9.72852 22.5048C9.30516 22.289 8.96095 21.9448 8.74524 21.5215C8.5 21.0402 8.5 20.4101 8.5 19.15V12.25Z" stroke="white" stroke-width="2" stroke-linecap="round" stroke-linejoin="round"/>
</svg>
