<svg width="34" height="27" viewBox="0 0 34 27" fill="none" xmlns="http://www.w3.org/2000/svg">
<path d="M7.52142 14.0857C8.26538 14.0857 8.86847 14.6888 8.86847 15.4328V16.2656L9.3609 16.2661L9.40901 16.2599C9.4402 16.2519 9.46913 16.2361 9.49294 16.2136C10.7169 15.059 11.7853 14.4167 12.7363 14.3092C14.3848 14.1229 16.0593 14.3835 17.2316 15.1984L17.4036 15.3247L17.5813 15.4563C18.1746 15.8745 18.837 16.1349 19.5754 16.2394L19.8244 16.2685L23.8315 16.2661L23.9373 16.3097L24.0671 16.369C24.7387 16.7077 25.0749 17.3971 25.0882 18.3362C25.09 18.469 25.0866 18.596 25.0779 18.7171C26.5245 18.0206 27.5807 17.5034 28.2437 17.1661L28.3634 17.1049L28.9064 16.8212C29.9616 16.282 30.5167 16.2371 31.5711 16.5799C32.9405 17.0251 33.1936 19.5901 32.1193 20.322C30.9484 21.1196 23.209 25.1529 22.102 25.3651C21.3167 25.5155 20.824 25.55 20.3047 25.4979L20.2405 25.4911L20.1751 25.4834L19.8851 25.4415C19.8517 25.4362 19.7847 25.4251 19.7127 25.4132L19.6399 25.401L18.995 25.2864C18.6853 25.2274 18.2491 25.1413 17.6859 25.0282L17.4688 24.9846L11.2517 23.7075H8.86847V24.6697C8.86847 25.4137 8.26538 26.0168 7.52142 26.0168H2.13319C1.38923 26.0168 0.786133 25.4137 0.786133 24.6697V15.4328C0.786133 14.6888 1.38923 14.0857 2.13319 14.0857H7.52142ZM7.52142 15.2403H2.13319C2.02691 15.2403 1.94075 15.3265 1.94075 15.4328V24.6697C1.94075 24.776 2.02691 24.8622 2.13319 24.8622H7.52142C7.6277 24.8622 7.71385 24.776 7.71385 24.6697L7.71447 23.2086L7.7092 23.1302C7.7092 23.1037 7.71099 23.0775 7.71447 23.0519L7.71385 15.4328C7.71385 15.3265 7.6277 15.2403 7.52142 15.2403ZM12.866 15.4565C12.217 15.5299 11.344 16.0547 10.2852 17.0535C10.0665 17.2598 9.78601 17.3862 9.48907 17.4146L9.36094 17.4207L8.86847 17.4202V22.5529H11.3088L11.426 22.5649L17.581 23.8293C18.4519 24.0051 19.0603 24.125 19.4045 24.1887L19.4851 24.2035L20.2581 24.3298L20.42 24.3491C20.8171 24.3889 21.2013 24.362 21.8847 24.2311C22.7402 24.0671 29.5525 20.5334 31.2208 19.5249L31.3164 19.4663L31.4693 19.3677C31.7744 19.1599 31.6419 17.8171 31.2141 17.678C30.4607 17.433 30.2082 17.4455 29.4147 17.8577L29.2593 17.9397L29.0939 18.027C28.7741 18.194 28.3175 18.4235 27.7233 18.7157L27.4941 18.8282L24.307 20.3657C24.2252 20.4048 24.1388 20.423 24.0538 20.4223C23.7834 20.5406 23.4576 20.6048 23.0752 20.6146C22.8151 20.6213 22.4231 20.6256 21.8987 20.6275L21.6958 20.6281L17.8923 20.6148C17.5735 20.6127 17.3167 20.3525 17.3189 20.0336C17.321 19.7148 17.5812 19.4581 17.9 19.4602C20.0157 19.4744 21.5244 19.4776 22.4216 19.4698L22.5515 19.4686L23.1455 19.4564C23.7542 19.4225 23.9276 19.2179 23.9341 18.4804L23.9337 18.3525L23.9287 18.2145C23.9075 17.8623 23.8236 17.635 23.6813 17.4968L23.6253 17.4491L23.582 17.4202L19.7712 17.4207L19.5196 17.3933C18.4408 17.2554 17.5102 16.8696 16.6953 16.2366C15.7987 15.5402 14.326 15.2915 12.866 15.4565ZM4.8273 20.2437C5.78382 20.2437 6.55923 21.0191 6.55923 21.9756C6.55923 22.9321 5.78382 23.7075 4.8273 23.7075C3.87079 23.7075 3.09537 22.9321 3.09537 21.9756C3.09537 21.0191 3.87079 20.2437 4.8273 20.2437ZM4.8273 21.3983C4.50846 21.3983 4.24999 21.6568 4.24999 21.9756C4.24999 22.2944 4.50846 22.5529 4.8273 22.5529C5.14614 22.5529 5.40461 22.2944 5.40461 21.9756C5.40461 21.6568 5.14614 21.3983 4.8273 21.3983ZM20.992 1C24.4992 1 27.3424 3.84318 27.3424 7.35041C27.3424 10.8576 24.4992 13.7008 20.992 13.7008C17.4848 13.7008 14.6416 10.8576 14.6416 7.35041C14.6416 3.84318 17.4848 1 20.992 1ZM20.992 2.15462C18.1224 2.15462 15.7962 4.48086 15.7962 7.35041C15.7962 10.22 18.1224 12.5462 20.992 12.5462C23.8615 12.5462 26.1878 10.22 26.1878 7.35041C26.1878 4.48086 23.8615 2.15462 20.992 2.15462ZM20.9822 3.46489C21.1851 3.46489 21.3615 3.57696 21.3615 3.84147V4.21356C21.9129 4.28529 22.4026 4.49151 22.729 4.80533C22.976 5.0519 23.1216 5.32537 23.1216 5.57642C23.1216 5.83644 22.9319 6.01128 22.6849 6.01128C22.482 6.01128 22.332 5.93507 22.1379 5.72885C21.7541 5.29399 21.4101 5.12363 20.916 5.12363C20.3073 5.12363 19.9191 5.45538 19.9191 5.91266C19.9191 6.29372 20.1926 6.55374 20.7528 6.67926L21.6483 6.88549C22.7378 7.12757 23.2627 7.66554 23.2627 8.5532C23.2627 9.58431 22.5217 10.2926 21.3351 10.4226V10.7813C21.3351 11.0503 21.1586 11.1624 20.9601 11.1624C20.7572 11.1624 20.5808 11.0503 20.5808 10.7813V10.4271C19.9676 10.3688 19.4162 10.1671 19.0633 9.83984C18.7942 9.60224 18.6443 9.32877 18.6443 9.06427C18.6443 8.7639 18.8472 8.58906 19.1163 8.58906C19.2839 8.58906 19.4074 8.63837 19.6324 8.86701C20.0294 9.30187 20.4661 9.50361 20.991 9.50361C21.6924 9.50361 22.085 9.18083 22.085 8.66976C22.085 8.27525 21.8159 8.04212 21.163 7.88522L20.2676 7.67451C19.2618 7.44587 18.7369 6.86755 18.7369 5.99783C18.7369 5.00259 19.4647 4.30771 20.6072 4.20011V3.84147C20.6072 3.57248 20.7837 3.46489 20.9822 3.46489Z" fill="#099250" stroke="#099250" stroke-width="0.57731"/>
</svg>
