<svg width="22" height="16" viewBox="0 0 22 16" fill="none" xmlns="http://www.w3.org/2000/svg">
<path d="M4.99916 7H8.99916M6.99916 5V9M13.9992 8H14.0092M16.9992 6H17.0092M9.44811 1H12.5502C15.1751 1 16.4875 1 17.5177 1.49743C18.4247 1.9354 19.1783 2.63709 19.6798 3.51059C20.2494 4.5027 20.3429 5.81181 20.5299 8.43002L20.7759 11.8745C20.8965 13.5634 19.5589 15 17.8657 15C16.9998 15 16.1787 14.6154 15.6243 13.9502L15.2492 13.5C14.906 13.0882 14.7344 12.8823 14.5391 12.7159C14.1295 12.3672 13.6337 12.1349 13.1035 12.0436C12.8506 12 12.5826 12 12.0466 12H9.95172C9.41569 12 9.14768 12 8.89479 12.0436C8.36466 12.1349 7.86884 12.3672 7.45927 12.7159C7.2639 12.8823 7.09232 13.0882 6.74916 13.5L6.374 13.9502C5.81967 14.6154 4.99851 15 4.13262 15C2.4394 15 1.10177 13.5634 1.22241 11.8745L1.46844 8.43002C1.65546 5.81181 1.74897 4.5027 2.31853 3.51059C2.82001 2.63709 3.5736 1.9354 4.48062 1.49743C5.51078 1 6.82323 1 9.44811 1Z" stroke="#6172F3" stroke-width="2" stroke-linecap="round" stroke-linejoin="round"/>
</svg>
