<svg width="16" height="17" viewBox="0 0 16 17" fill="none" xmlns="http://www.w3.org/2000/svg">
<path d="M1.33594 8.5026H14.6693M1.33594 8.5026C1.33594 12.1845 4.32071 15.1693 8.0026 15.1693M1.33594 8.5026C1.33594 4.82071 4.32071 1.83594 8.0026 1.83594M14.6693 8.5026C14.6693 12.1845 11.6845 15.1693 8.0026 15.1693M14.6693 8.5026C14.6693 4.82071 11.6845 1.83594 8.0026 1.83594M8.0026 1.83594C9.67012 3.66151 10.6178 6.03063 10.6693 8.5026C10.6178 10.9746 9.67012 13.3437 8.0026 15.1693M8.0026 1.83594C6.33508 3.66151 5.38744 6.03063 5.33594 8.5026C5.38744 10.9746 6.33508 13.3437 8.0026 15.1693" stroke="#667085" stroke-width="2" stroke-linecap="round" stroke-linejoin="round"/>
</svg>
