<svg width="16" height="15" viewBox="0 0 16 15" fill="none" xmlns="http://www.w3.org/2000/svg">
<path d="M6.99903 8.50012L13.999 1.50012M7.08408 8.71883L8.83616 13.2242C8.99051 13.6211 9.06768 13.8195 9.17888 13.8774C9.27528 13.9277 9.39012 13.9277 9.48658 13.8776C9.59785 13.8198 9.67525 13.6215 9.83007 13.2247L14.2236 1.96625C14.3634 1.60813 14.4333 1.42907 14.395 1.31465C14.3618 1.21528 14.2839 1.1373 14.1845 1.10411C14.0701 1.06588 13.891 1.13576 13.5329 1.27552L2.2744 5.66908C1.87768 5.82389 1.67933 5.9013 1.62152 6.01257C1.57141 6.10903 1.57148 6.22386 1.6217 6.32026C1.67964 6.43146 1.87809 6.50864 2.27498 6.66299L6.78032 8.41506C6.86089 8.44639 6.90117 8.46206 6.93509 8.48625C6.96515 8.5077 6.99145 8.53399 7.01289 8.56406C7.03709 8.59798 7.05275 8.63826 7.08408 8.71883Z" stroke="#2E90FA" stroke-width="1.66" stroke-linecap="round" stroke-linejoin="round"/>
</svg>
