<svg width="24" height="25" viewBox="0 0 24 25" fill="none" xmlns="http://www.w3.org/2000/svg">
<path d="M10 17.8969V20.2383C10 21.3429 10.8954 22.2383 12 22.2383C13.1046 22.2383 14 21.3428 14 20.2383V17.8969M12 2.23828V3.23828M3 12.2383H2M5.5 5.73828L4.8999 5.13818M18.5 5.73828L19.1002 5.13818M22 12.2383H21M18 12.2383C18 15.552 15.3137 18.2383 12 18.2383C8.68629 18.2383 6 15.552 6 12.2383C6 8.92457 8.68629 6.23828 12 6.23828C15.3137 6.23828 18 8.92457 18 12.2383Z" stroke="#FEDF89" stroke-width="2" stroke-linecap="round" stroke-linejoin="round"/>
</svg>
