<svg width="24" height="24" viewBox="0 0 24 24" fill="none" xmlns="http://www.w3.org/2000/svg">
<path d="M0.842224 2.24172C0.842224 1.33236 1.60353 0.594238 2.542 0.594238H22.1415C23.0803 0.594238 23.8412 1.33236 23.8412 2.24172V21.946C23.8412 22.8557 23.0803 23.5933 22.1415 23.5933H2.542C1.60362 23.5933 0.842224 22.8558 0.842224 21.9463V2.24145V2.24172Z" fill="#0A66C2"/>
<path d="M7.83143 19.8412V9.48693H4.38984V19.8412H7.83179H7.83143ZM6.11135 8.07348C7.31125 8.07348 8.05827 7.2784 8.05827 6.28477C8.03581 5.2685 7.31125 4.49561 6.13417 4.49561C4.95628 4.49561 4.18698 5.2685 4.18698 6.28468C4.18698 7.27831 4.93373 8.07339 6.0888 8.07339H6.11108L6.11135 8.07348ZM9.73639 19.8412H13.1777V14.0595C13.1777 13.7505 13.2002 13.4406 13.2911 13.2199C13.5398 12.6013 14.106 11.961 15.057 11.961C16.302 11.961 16.8003 12.9105 16.8003 14.3025V19.8412H20.2416V13.9044C20.2416 10.7241 18.5439 9.24418 16.2797 9.24418C14.4233 9.24418 13.608 10.2817 13.1551 10.9884H13.178V9.48729H9.73657C9.78149 10.4586 9.7363 19.8415 9.7363 19.8415L9.73639 19.8412Z" fill="white"/>
</svg>
