<svg width="12" height="13" viewBox="0 0 12 13" fill="none" xmlns="http://www.w3.org/2000/svg">
<path d="M1 4.41992L5.08246 7.27764C5.41304 7.50905 5.57834 7.62476 5.75813 7.66958C5.91695 7.70916 6.08305 7.70916 6.24187 7.66958C6.42166 7.62476 6.58695 7.50905 6.91754 7.27764L11 4.41992M3.4 10.9199H8.6C9.44008 10.9199 9.86012 10.9199 10.181 10.7564C10.4632 10.6126 10.6927 10.3832 10.8365 10.1009C11 9.78004 11 9.36 11 8.51992V5.31992C11 4.47984 11 4.0598 10.8365 3.73894C10.6927 3.45669 10.4632 3.22722 10.181 3.08341C9.86012 2.91992 9.44008 2.91992 8.6 2.91992H3.4C2.55992 2.91992 2.13988 2.91992 1.81901 3.08341C1.53677 3.22722 1.3073 3.45669 1.16349 3.73894C1 4.0598 1 4.47984 1 5.31992V8.51992C1 9.36 1 9.78004 1.16349 10.1009C1.3073 10.3832 1.53677 10.6126 1.81901 10.7564C2.13988 10.9199 2.55992 10.9199 3.4 10.9199Z" stroke="#667085" stroke-width="1.2153" stroke-linecap="round" stroke-linejoin="round"/>
</svg>
