<svg width="678" height="127" viewBox="0 0 678 127" fill="none" xmlns="http://www.w3.org/2000/svg">
<g clip-path="url(#clip0_668_129)">
<path d="M152.122 33.7721C152.122 26.3933 155.956 22.7394 163.589 22.7394H183.86C209.314 22.7394 222.769 37.7807 222.769 66.267C222.769 94.7533 209.314 109.724 183.86 109.724H163.589C155.921 109.724 152.122 106.105 152.122 98.6911V33.7721ZM181.695 95.6402C197.706 95.6402 205.161 86.2039 205.161 66.267C205.161 46.3302 197.635 36.752 181.695 36.752H169.34V95.6402H181.695Z" fill="white"/>
<path d="M291.677 71.7657V79.7475C291.677 99.8263 278.932 111.214 260.507 111.214C242.082 111.214 229.266 99.8263 229.266 79.8185V71.8721C229.266 52.3609 242.011 40.7252 260.507 40.7252C279.003 40.7252 291.677 52.3964 291.677 71.8011V71.7657ZM246.555 72.1559V79.6766C246.555 91.2059 251.916 98.159 260.507 98.159C269.098 98.159 274.424 91.2059 274.424 79.6766V72.1559C274.424 60.7685 269.276 53.7444 260.507 53.7444C251.738 53.7444 246.555 60.7685 246.555 72.1559Z" fill="white"/>
<path d="M352.384 110.362C346.952 110.362 343.97 107.063 343.97 101.139V69.0341C343.97 60.1654 339.568 55.1989 331.793 55.1989C323.06 55.1989 317.593 61.6198 317.593 72.1559V101.139C317.593 107.063 314.54 110.362 309.179 110.362C303.818 110.362 300.765 107.063 300.765 101.139V50.4807C300.765 44.9467 303.96 41.5056 309.037 41.5056C314.114 41.5056 317.025 44.4855 317.202 49.9131V54.0637H318.019C320.646 46.0464 328.208 41.0799 338.183 41.0799C352.597 41.0799 360.762 49.6293 360.762 64.4578V101.21C360.762 107.134 357.78 110.398 352.419 110.398L352.384 110.362Z" fill="white"/>
<path d="M369.424 71.6238C369.424 53.1414 381.672 40.6542 399.849 40.6542C417.067 40.6542 429.244 52.8931 429.244 69.5663C429.244 77.1579 427.078 79.6411 420.759 79.6411H386.536V82.5855C386.607 92.0218 392.607 98.0526 402.618 98.0526C407.837 98.0526 411.529 96.7755 414.546 94.2922C417.812 91.809 418.948 90.8512 421.576 90.8512C425.09 90.8512 427.504 93.2635 427.504 96.9528C427.504 99.9327 425.658 102.806 422.463 105.112C417.99 108.872 410.286 111.178 401.553 111.178C381.708 111.178 369.495 99.507 369.495 80.3506V71.6238H369.424ZM413.162 68.9987V68.8568C413.162 59.6333 408.05 53.638 400.097 53.638C392.145 53.638 386.5 59.7397 386.5 68.8568V68.9987H413.162Z" fill="white"/>
<path d="M450.047 33.7721C450.047 26.3933 453.882 22.7394 461.514 22.7394H481.785C507.24 22.7394 520.695 37.7807 520.695 66.267C520.695 94.7533 507.24 109.724 481.785 109.724H461.514C453.846 109.724 450.047 106.105 450.047 98.6911V33.7721ZM479.62 95.6402C495.631 95.6402 503.086 86.2039 503.086 66.267C503.086 46.3302 495.56 36.752 479.62 36.752H467.265V95.6402H479.62Z" fill="white"/>
<path d="M527.369 71.6238C527.369 53.1414 539.617 40.6542 557.793 40.6542C575.011 40.6542 587.188 52.8931 587.188 69.5663C587.188 77.1579 585.023 79.6411 578.703 79.6411H544.48V82.5855C544.551 92.0218 550.551 98.0526 560.562 98.0526C565.781 98.0526 569.473 96.7755 572.491 94.2922C575.757 91.809 576.893 90.8512 579.52 90.8512C583.035 90.8512 585.449 93.2635 585.449 96.9528C585.449 99.9327 583.603 102.806 580.408 105.112C575.934 108.872 568.231 111.178 559.497 111.178C539.652 111.178 527.44 99.507 527.44 80.3506V71.6238H527.369ZM571.106 68.9987V68.8568C571.106 59.6333 565.994 53.638 558.042 53.638C550.09 53.638 544.445 59.7397 544.445 68.8568V68.9987H571.106Z" fill="white"/>
<path d="M614.489 110.611C601.282 110.611 592.371 102.345 592.371 90.0352C592.371 77.7254 601.602 69.85 616.974 69.85H633.056V64.3159C633.056 57.5048 628.795 53.9218 621.056 53.9218C615.944 53.9218 612.323 55.8375 608.56 59.2076C606.643 60.733 604.868 61.4425 602.134 61.4425C598.442 61.4425 596.134 58.9592 596.134 55.5182C596.134 51.5805 598.868 47.5363 604.797 44.5564C609.057 42.3215 614.737 41.0444 622.121 41.0444C639.836 41.0444 649.777 49.452 649.777 64.4224V101.387C649.777 107.134 646.83 110.362 641.611 110.362C637.138 110.362 634.227 107.879 633.695 103.48V101.103H632.878C629.435 107.17 622.725 110.611 614.453 110.611H614.489ZM620.098 98.5137C627.375 98.5137 633.056 93.5472 633.056 87.1618V80.1377H620.062C613.175 80.1377 609.092 83.4369 609.092 89.0065C609.092 94.576 613.565 98.5137 620.133 98.5137H620.098Z" fill="white"/>
<path d="M661.172 101.139V26.9609C661.172 20.8592 664.368 17.6665 669.586 17.6665C674.805 17.6665 678 20.8592 678 26.9609V101.139C678 107.241 674.734 110.362 669.586 110.362C664.439 110.362 661.172 107.241 661.172 101.139Z" fill="white"/>
<path d="M87.0842 0H40.0097C17.9281 0 0 17.9148 0 39.9802V87.0553C0 109.085 17.9281 127.035 40.0097 127.035H87.1197C109.166 127.035 127.129 109.121 127.129 87.0553V39.9802C127.129 17.9503 109.201 0 87.1197 0H87.0842ZM11.1473 92.2346C10.8278 90.5318 10.6503 88.7936 10.6503 87.0198V39.9802C10.6503 23.8036 23.8212 10.6425 40.0097 10.6425H87.1197C95.3915 10.6425 102.882 14.0835 108.207 19.6176L92.4804 35.3684C83.5696 30.1891 72.0672 31.4662 64.47 39.0578L11.1473 92.2346ZM116.444 87.0198C116.444 103.196 103.273 116.358 87.0842 116.358H40.0097C31.738 116.358 24.2473 112.881 18.8866 107.347L34.5781 91.667C43.5598 96.8464 55.0977 95.5338 62.7304 87.9422L115.947 34.6944C116.266 36.3972 116.444 38.171 116.444 39.9802V87.0553V87.0198Z" fill="white"/>
</g>
<defs>
<clipPath id="clip0_668_129">
<rect width="678" height="127" fill="white"/>
</clipPath>
</defs>
</svg>
