<svg width="16" height="17" viewBox="0 0 16 17" fill="none" xmlns="http://www.w3.org/2000/svg">
<path d="M10.6673 5.16667C10.6673 4.54669 10.6673 4.2367 10.5992 3.98236C10.4142 3.29218 9.87514 2.75308 9.18496 2.56815C8.93062 2.5 8.62063 2.5 8.00065 2.5C7.38067 2.5 7.07068 2.5 6.81635 2.56815C6.12616 2.75308 5.58707 3.29218 5.40213 3.98236C5.33398 4.2367 5.33398 4.54669 5.33398 5.16667M3.46732 14.5H12.534C13.2807 14.5 13.6541 14.5 13.9393 14.3547C14.1902 14.2268 14.3942 14.0229 14.522 13.772C14.6673 13.4868 14.6673 13.1134 14.6673 12.3667V7.3C14.6673 6.55326 14.6673 6.1799 14.522 5.89468C14.3942 5.6438 14.1902 5.43982 13.9393 5.31199C13.6541 5.16667 13.2807 5.16667 12.534 5.16667H3.46732C2.72058 5.16667 2.34721 5.16667 2.062 5.31199C1.81111 5.43982 1.60714 5.6438 1.47931 5.89468C1.33398 6.1799 1.33398 6.55326 1.33398 7.3V12.3667C1.33398 13.1134 1.33398 13.4868 1.47931 13.772C1.60714 14.0229 1.81111 14.2268 2.062 14.3547C2.34721 14.5 2.72058 14.5 3.46732 14.5Z" stroke="#1570EF" stroke-width="2" stroke-linecap="round" stroke-linejoin="round"/>
</svg>
