<svg width="42" height="42" viewBox="0 0 42 42" fill="none" xmlns="http://www.w3.org/2000/svg">
<circle cx="21" cy="21" r="21" fill="#B9E6FE"/>
<path d="M22.8572 26.6195C22.7435 26.5627 22.6582 26.4774 22.5445 26.4206C22.4024 26.3353 22.2319 26.3922 22.1466 26.5343C21.9761 26.8753 21.6919 27.3016 21.2656 27.6995C20.953 27.9838 20.4982 27.6711 20.5835 27.3016L22.914 18.6332C22.9708 18.4343 22.8003 18.2638 22.6014 18.2922L18.1961 19.0311C18.054 19.0595 17.9403 19.2016 17.9687 19.3438L18.0256 19.7985C18.054 19.9406 18.1677 20.0259 18.3098 20.0259H19.3898L17.2582 27.8701C17.2298 28.069 17.173 28.5522 17.4003 29.0353C17.8835 29.9448 19.0203 30.0016 19.1909 30.0016C19.333 30.0016 19.9014 30.0301 20.6972 29.6038C22.0045 28.8932 22.6582 27.6711 22.9424 26.9606C22.9993 26.8185 22.9708 26.6764 22.8572 26.6195Z" fill="#026AA2"/>
<path d="M21.8651 13C20.8136 13 19.9609 13.8526 19.9609 14.9042C19.9609 15.9558 20.8136 16.8084 21.8651 16.8084C22.9167 16.8084 23.7694 15.9558 23.7694 14.9042C23.7694 13.8526 22.9167 13 21.8651 13Z" fill="#026AA2"/>
<path d="M20.5 8C13.0537 8 7 14.0537 7 21.5C7 28.9463 13.0537 35 20.5 35C27.9463 35 34 28.9463 34 21.5C34 14.0537 27.9463 8 20.5 8ZM20.5 33.4084C13.9347 33.4084 8.59158 28.0653 8.59158 21.5C8.59158 14.9347 13.9347 9.59158 20.5 9.59158C27.0653 9.59158 32.4084 14.9347 32.4084 21.5C32.4084 28.0653 27.0653 33.4084 20.5 33.4084Z" fill="#026AA2"/>
</svg>
