<svg width="16" height="17" viewBox="0 0 16 17" fill="none" xmlns="http://www.w3.org/2000/svg">
<path d="M9.33366 2.01318V4.76688C9.33366 5.14025 9.33366 5.32693 9.40632 5.46954C9.47024 5.59498 9.57222 5.69697 9.69766 5.76088C9.84027 5.83354 10.027 5.83354 10.4003 5.83354H13.154M6.00033 11.1668L7.33366 12.5002L10.3337 9.50016M9.33366 1.8335H5.86699C4.74689 1.8335 4.18683 1.8335 3.75901 2.05148C3.38269 2.24323 3.07673 2.54919 2.88498 2.92552C2.66699 3.35334 2.66699 3.91339 2.66699 5.0335V11.9668C2.66699 13.0869 2.66699 13.647 2.88498 14.0748C3.07673 14.4511 3.38269 14.7571 3.75901 14.9488C4.18683 15.1668 4.74689 15.1668 5.86699 15.1668H10.1337C11.2538 15.1668 11.8138 15.1668 12.2416 14.9488C12.618 14.7571 12.9239 14.4511 13.1157 14.0748C13.3337 13.647 13.3337 13.0869 13.3337 11.9668V5.8335L9.33366 1.8335Z" stroke="#667085" stroke-width="1.5" stroke-linecap="round" stroke-linejoin="round"/>
</svg>
