<svg width="25" height="24" viewBox="0 0 25 24" fill="none" xmlns="http://www.w3.org/2000/svg">
<path d="M12.7773 19.9963H21.7773M3.77734 19.9963H5.45189C5.94107 19.9963 6.18566 19.9963 6.41583 19.9411C6.61991 19.8921 6.815 19.8113 6.99394 19.7016C7.19577 19.5779 7.36873 19.405 7.71463 19.0591L20.2774 6.49632C21.1058 5.66789 21.1058 4.32475 20.2774 3.49632C19.4489 2.66789 18.1058 2.66789 17.2774 3.49632L4.7146 16.0591C4.3687 16.405 4.19575 16.5779 4.07206 16.7797C3.96241 16.9587 3.8816 17.1538 3.8326 17.3579C3.77734 17.588 3.77734 17.8326 3.77734 18.3218V19.9963Z" stroke="#2E90FA" stroke-width="2" stroke-linecap="round" stroke-linejoin="round"/>
</svg>
