<svg width="25" height="24" viewBox="0 0 25 24" fill="none" xmlns="http://www.w3.org/2000/svg">
<path d="M18.2773 17H7.27734M18.2773 13H7.27734M3.77734 9H21.7773M8.57734 3H16.9773C18.6575 3 19.4976 3 20.1393 3.32698C20.7038 3.6146 21.1627 4.07354 21.4504 4.63803C21.7773 5.27976 21.7773 6.11984 21.7773 7.8V16.2C21.7773 17.8802 21.7773 18.7202 21.4504 19.362C21.1627 19.9265 20.7038 20.3854 20.1393 20.673C19.4976 21 18.6575 21 16.9773 21H8.57734C6.89719 21 6.05711 21 5.41537 20.673C4.85089 20.3854 4.39194 19.9265 4.10432 19.362C3.77734 18.7202 3.77734 17.8802 3.77734 16.2V7.8C3.77734 6.11984 3.77734 5.27976 4.10432 4.63803C4.39194 4.07354 4.85089 3.6146 5.41537 3.32698C6.05711 3 6.89719 3 8.57734 3Z" stroke="#2E90FA" stroke-width="2" stroke-linecap="round" stroke-linejoin="round"/>
</svg>
