<svg width="28" height="28" viewBox="0 0 28 28" fill="none" xmlns="http://www.w3.org/2000/svg">
<path d="M4.64243 27.5H23.1073C24.2388 27.4988 25.3236 27.0489 26.1237 26.2488C26.9239 25.4488 27.374 24.3641 27.3753 23.2326V4.76741C27.374 3.63593 26.9239 2.55118 26.1237 1.75116C25.3236 0.951133 24.2388 0.501175 23.1073 0.5H4.64243C3.51102 0.501245 2.42631 0.951245 1.62628 1.75127C0.826255 2.55129 0.37625 3.636 0.375 4.76741V23.2326C0.376245 24.364 0.826248 25.4487 1.62628 26.2487C2.4263 27.0487 3.51102 27.4988 4.64243 27.5ZM23.1073 26.2568H7.42017V9.42694H26.1321V23.2326C26.1311 24.0345 25.8121 24.8032 25.2451 25.3702C24.678 25.9371 23.9092 26.256 23.1073 26.2568ZM4.64243 1.74318H23.1073C23.9092 1.74397 24.678 2.06283 25.2451 2.6298C25.8122 3.19676 26.1312 3.96552 26.1321 4.76741V8.18377H1.61819V4.76741C1.61911 3.96561 1.93803 3.19692 2.50499 2.62997C3.07194 2.06301 3.84063 1.7441 4.64243 1.74318ZM1.61819 9.42694H6.17699V26.2568H4.64243C3.84063 26.2559 3.07194 25.937 2.50499 25.37C1.93803 24.8031 1.61911 24.0344 1.61819 23.2326V9.42694Z" fill="#2E90FA"/>
<path d="M21.6172 13.1328H10.8755C10.7106 13.1328 10.5525 13.1983 10.436 13.3149C10.3194 13.4314 10.2539 13.5896 10.2539 13.7544C10.2539 13.9193 10.3194 14.0774 10.436 14.1939C10.5525 14.3105 10.7106 14.376 10.8755 14.376H21.6172C21.782 14.376 21.9401 14.3105 22.0567 14.1939C22.1733 14.0774 22.2388 13.9193 22.2388 13.7544C22.2388 13.5896 22.1733 13.4314 22.0567 13.3149C21.9401 13.1983 21.782 13.1328 21.6172 13.1328Z" fill="#2E90FA"/>
<path d="M21.6172 16.9766H10.8755C10.7106 16.9766 10.5525 17.0421 10.436 17.1586C10.3194 17.2752 10.2539 17.4333 10.2539 17.5982C10.2539 17.763 10.3194 17.9211 10.436 18.0377C10.5525 18.1543 10.7106 18.2198 10.8755 18.2198H21.6172C21.782 18.2198 21.9401 18.1543 22.0567 18.0377C22.1733 17.9211 22.2388 17.763 22.2388 17.5982C22.2388 17.4333 22.1733 17.2752 22.0567 17.1586C21.9401 17.0421 21.782 16.9766 21.6172 16.9766Z" fill="#2E90FA"/>
<path d="M21.6172 20.8125H10.8755C10.7106 20.8125 10.5525 20.878 10.436 20.9946C10.3194 21.1111 10.2539 21.2692 10.2539 21.4341C10.2539 21.599 10.3194 21.7571 10.436 21.8736C10.5525 21.9902 10.7106 22.0557 10.8755 22.0557H21.6172C21.782 22.0557 21.9401 21.9902 22.0567 21.8736C22.1733 21.7571 22.2388 21.599 22.2388 21.4341C22.2388 21.2692 22.1733 21.1111 22.0567 20.9946C21.9401 20.878 21.782 20.8125 21.6172 20.8125Z" fill="#2E90FA"/>
</svg>
