<svg width="26" height="26" viewBox="0 0 26 26" fill="none" xmlns="http://www.w3.org/2000/svg">
<path d="M18.4 1.6L24.4 7.6M24.4 1.6L18.4 7.6M25 13V19.24C25 21.2562 25 22.2643 24.6076 23.0344C24.2625 23.7118 23.7118 24.2625 23.0344 24.6076C22.2643 25 21.2562 25 19.24 25H6.76C4.74381 25 3.73572 25 2.96563 24.6076C2.28825 24.2625 1.73752 23.7118 1.39238 23.0344C1 22.2643 1 21.2562 1 19.24V6.76C1 4.74381 1 3.73572 1.39238 2.96563C1.73752 2.28825 2.28825 1.73752 2.96563 1.39238C3.73572 1 4.74381 1 6.76 1H13M1.17461 22.5116C1.73758 20.4863 3.59508 19 5.79972 19H14.1997C15.3149 19 15.8725 19 16.3362 19.0922C18.2403 19.471 19.7287 20.9595 20.1075 22.8636C20.1997 23.3272 20.1997 23.8848 20.1997 25M15.4 10C15.4 12.651 13.251 14.8 10.6 14.8C7.94903 14.8 5.8 12.651 5.8 10C5.8 7.34903 7.94903 5.2 10.6 5.2C13.251 5.2 15.4 7.34903 15.4 10Z" stroke="#FCFCFD" stroke-width="2" stroke-linecap="round" stroke-linejoin="round"/>
</svg>
