<svg width="16" height="17" viewBox="0 0 16 17" fill="none" xmlns="http://www.w3.org/2000/svg">
<path d="M11.15 1.85L14.65 5.35M14.65 1.85L11.15 5.35M15 8.5V12.14C15 13.3161 15 13.9042 14.7711 14.3534C14.5698 14.7485 14.2485 15.0698 13.8534 15.2711C13.4042 15.5 12.8161 15.5 11.64 15.5H4.36C3.18389 15.5 2.59583 15.5 2.14662 15.2711C1.75148 15.0698 1.43022 14.7485 1.22889 14.3534C1 13.9042 1 13.3161 1 12.14V4.86C1 3.68389 1 3.09583 1.22889 2.64662C1.43022 2.25148 1.75148 1.93022 2.14662 1.72889C2.59583 1.5 3.18389 1.5 4.36 1.5H8M1.10186 14.0484C1.43026 12.867 2.51379 12 3.79984 12H8.69984C9.35036 12 9.67561 12 9.94609 12.0538C11.0568 12.2747 11.9251 13.143 12.146 14.2537C12.1998 14.5242 12.1998 14.8495 12.1998 15.5M9.4 6.75C9.4 8.2964 8.1464 9.55 6.6 9.55C5.0536 9.55 3.8 8.2964 3.8 6.75C3.8 5.2036 5.0536 3.95 6.6 3.95C8.1464 3.95 9.4 5.2036 9.4 6.75Z" stroke="#2E90FA" stroke-width="2" stroke-linecap="round" stroke-linejoin="round"/>
</svg>
