<svg width="26" height="20" viewBox="0 0 26 20" fill="none" xmlns="http://www.w3.org/2000/svg">
<path d="M3.99123 0.431641H1.45157C1.20176 0.431641 1 0.633382 1 0.879954V7.87685C1 8.12342 1.20176 8.32836 1.45157 8.32836H3.99123C4.23783 8.32836 4.43959 8.12662 4.43959 7.87685V0.876752C4.43639 0.630179 4.23783 0.431641 3.99123 0.431641ZM3.54286 7.42853H1.89352V1.32507H3.54286V7.42853Z" fill="#B93815" stroke="#B93815" stroke-width="0.150002"/>
<path d="M8.82046 8.7833C8.83647 8.7833 8.84928 8.7833 8.86209 8.7801L14.5851 8.27735C14.63 8.27095 14.6716 8.26134 14.7164 8.24213C15.184 8.05319 15.3794 7.75859 15.4594 7.54404C15.6196 7.10213 15.4274 6.70825 15.4178 6.69865C15.3217 6.46488 15.0655 5.84045 11.6932 5.53303C11.674 5.52663 11.658 5.52342 11.6355 5.52022C12.497 4.90539 13.4802 4.93101 13.7941 4.95343L17.5636 7.82583C17.8262 8.04038 18.1336 8.15887 18.4475 8.15887C18.8254 8.15887 19.0944 7.99555 19.1905 7.93471C19.5203 7.66252 19.6068 7.3519 19.6228 7.14376C19.658 6.65382 19.341 6.27595 19.3026 6.23432L15.4851 1.88248C15.437 1.82804 15.3858 1.78961 15.3217 1.764C13.493 0.995458 6.67792 0.957031 5.32963 0.957031H5.22714C4.98375 0.957031 4.78198 1.15877 4.78198 1.40535V7.15016C4.78198 7.3455 4.90688 7.51201 5.08943 7.57606L8.67954 8.76409C8.72758 8.7737 8.77562 8.7833 8.82046 8.7833ZM5.67871 3.47079C5.75877 3.58607 5.87407 3.67253 6.02459 3.67253H7.56184C7.80844 3.67253 8.0102 3.47399 8.0102 3.22422C8.0102 2.97764 7.80844 2.7759 7.56184 2.7759H6.02459C5.87087 2.7759 5.75877 2.86557 5.67871 2.98085V1.85046C8.59948 1.86327 13.429 2.02018 14.8862 2.55175L18.6332 6.81713C18.835 7.0637 18.6749 7.1982 18.6716 7.2078C18.6684 7.21101 18.3674 7.32949 18.1176 7.12454L14.2361 4.16568C14.1784 4.12084 14.1047 4.09202 14.0311 4.07922C14.0311 4.07922 13.8453 4.05039 13.5507 4.05039C12.9774 4.05039 11.8821 4.16247 10.9086 4.95022C10.7997 5.0591 10.4666 5.44017 10.5979 5.85966C10.6427 6.00696 10.7901 6.26634 11.2256 6.3464C11.3153 6.36241 11.3825 6.37202 11.421 6.38483C11.469 6.40404 11.5138 6.41685 11.5651 6.42005C13.3105 6.58016 14.4378 6.87797 14.6108 7.07971C14.6108 7.07971 14.646 7.16938 14.6204 7.23342C14.6011 7.28786 14.5339 7.3423 14.4346 7.39353L8.8749 7.88348L5.67871 6.82674V3.47079Z" fill="#B93815" stroke="#B93815" stroke-width="0.150002"/>
<path d="M24.5515 11.6699H22.0118C21.7652 11.6699 21.5635 11.8717 21.5635 12.1182V19.1151C21.5635 19.3649 21.7652 19.5666 22.0118 19.5666H24.5515C24.7981 19.5666 24.9999 19.3649 24.9999 19.1151V12.1182C24.9999 11.8717 24.8013 11.6699 24.5515 11.6699ZM24.1063 18.67H22.4602V12.5665H24.1063V18.67Z" fill="#B93815" stroke="#B93815" stroke-width="0.150002"/>
<path d="M20.9135 12.416L17.3202 11.2247C17.2626 11.2055 17.2017 11.1991 17.1409 11.2055L11.4146 11.7115C11.3698 11.7147 11.3282 11.7243 11.2833 11.7435C10.8157 11.9356 10.6204 12.2302 10.5403 12.4448C10.3834 12.8835 10.5756 13.2774 10.5852 13.287C10.6812 13.5207 10.9342 14.1484 14.313 14.459C14.3322 14.4654 14.3514 14.4654 14.3674 14.4718C13.5027 15.0834 12.5195 15.0578 12.2057 15.0322L8.43942 12.163C8.1736 11.942 7.86615 11.8268 7.5491 11.8268C7.17119 11.8268 6.90537 11.9901 6.8125 12.0509C6.47943 12.3263 6.39296 12.6337 6.38015 12.8451C6.34172 13.3382 6.66198 13.7129 6.694 13.7577L10.5147 18.1032C10.5627 18.1544 10.614 18.196 10.678 18.2216C12.5131 18.9902 19.3315 19.0286 20.683 19.0286H20.7694C21.0128 19.0286 21.2146 18.8333 21.2146 18.5835V12.8387C21.2146 12.6465 21.0929 12.4736 20.9135 12.416ZM20.3211 18.1416C17.4003 18.1288 12.5772 17.9655 11.1168 17.4339L7.36655 13.1621C7.35374 13.1493 7.26086 13.018 7.26727 12.9123C7.27367 12.8899 7.27367 12.8291 7.33132 12.7778C7.33132 12.7778 7.63877 12.6561 7.88857 12.8611L11.7669 15.82C11.8278 15.8648 11.8982 15.8936 11.9719 15.9064C11.9719 15.9064 12.1544 15.932 12.4491 15.932C13.0223 15.932 14.1176 15.82 15.0912 15.0322C15.2001 14.9265 15.5364 14.5455 15.4051 14.126C15.3602 13.9819 15.2129 13.7193 14.7742 13.6392C14.6813 13.6264 14.6172 13.6136 14.5756 13.6008C14.5276 13.588 14.4859 13.5688 14.4347 13.5688C12.6893 13.4119 11.5652 13.1077 11.3922 12.9155C11.3826 12.8931 11.357 12.8131 11.3826 12.749C11.4018 12.6946 11.4659 12.6433 11.5652 12.5953L17.1249 12.1054L20.3211 13.1589V18.1416Z" fill="#B93815" stroke="#B93815" stroke-width="0.150002"/>
<path d="M9.19835 5.52058C9.19835 5.27401 8.99659 5.07227 8.75319 5.07227H7.21594C6.97254 5.07227 6.76758 5.27401 6.76758 5.52058C6.76758 5.76715 6.96934 5.96889 7.21594 5.96889H8.75319C8.99979 5.96569 9.19835 5.76715 9.19835 5.52058Z" fill="#B93815" stroke="#B93815" stroke-width="0.150002"/>
<path d="M16.4077 14.141C16.4077 14.3843 16.6063 14.5861 16.8561 14.5861H18.3901C18.6367 14.5861 18.8385 14.3843 18.8385 14.141C18.8385 13.8912 18.6367 13.6895 18.3901 13.6895H16.8561C16.6063 13.6895 16.4077 13.8912 16.4077 14.141Z" fill="#B93815" stroke="#B93815" stroke-width="0.150002"/>
<path d="M17.6025 16.4314C17.6025 16.6812 17.8011 16.8766 18.0477 16.8766H19.5849C19.8315 16.8766 20.0333 16.6812 20.0333 16.4314C20.0333 16.1817 19.8315 15.9863 19.5849 15.9863H18.0477C17.7979 15.9863 17.6025 16.1817 17.6025 16.4314Z" fill="#B93815" stroke="#B93815" stroke-width="0.150002"/>
</svg>
