<svg width="9" height="12" viewBox="0 0 9 12" fill="none" xmlns="http://www.w3.org/2000/svg">
<path d="M4.35623 10.6354H0.810462C0.774637 10.6354 0.740279 10.6208 0.714948 10.5949C0.689616 10.5689 0.675385 10.5337 0.675385 10.4969V1.49695C0.675385 1.46022 0.689616 1.425 0.714948 1.39904C0.740279 1.37307 0.774637 1.35848 0.810462 1.35848H4.72769C4.76352 1.35848 4.79787 1.37307 4.82321 1.39904C4.84854 1.425 4.86277 1.46022 4.86277 1.49695V4.40464C4.86277 4.47808 4.89123 4.54852 4.9419 4.60045C4.99256 4.65238 5.06127 4.68156 5.13292 4.68156H7.96954C8.00536 4.68156 8.03972 4.69615 8.06505 4.72211C8.09038 4.74808 8.10462 4.7833 8.10462 4.82002V6.38325C8.10462 6.4567 8.13308 6.52713 8.18374 6.57907C8.23441 6.631 8.30312 6.66017 8.37477 6.66017H8.50985C8.5815 6.66017 8.65021 6.631 8.70087 6.57907C8.75154 6.52713 8.78 6.4567 8.78 6.38325V4.30633C8.78006 4.2332 8.75189 4.16302 8.70166 4.1111L5.41929 0.750638C5.36886 0.698633 5.30036 0.669254 5.22883 0.668945H0.270154C0.198505 0.668945 0.12979 0.698121 0.0791263 0.750054C0.0284626 0.801987 0 0.872424 0 0.945868V11.0536C0 11.127 0.0284626 11.1974 0.0791263 11.2494C0.12979 11.3013 0.198505 11.3305 0.270154 11.3305H4.35623C4.42788 11.3305 4.49659 11.3013 4.54726 11.2494C4.59792 11.1974 4.62638 11.127 4.62638 11.0536V10.9151C4.62674 10.8785 4.62002 10.8422 4.6066 10.8083C4.59318 10.7744 4.57334 10.7435 4.54822 10.7175C4.5231 10.6915 4.4932 10.6708 4.46024 10.6567C4.42729 10.6427 4.39194 10.6354 4.35623 10.6354ZM5.5368 2.18925C5.53717 2.16215 5.5453 2.13576 5.56016 2.11335C5.57503 2.09093 5.59599 2.07348 5.62044 2.06317C5.64489 2.05285 5.67175 2.05011 5.6977 2.05529C5.72366 2.06048 5.74755 2.07335 5.76643 2.09233L7.38736 3.75387C7.40641 3.77323 7.4194 3.79798 7.42468 3.82494C7.42995 3.85191 7.42728 3.87987 7.41699 3.90527C7.4067 3.93067 7.38927 3.95236 7.36691 3.96756C7.34455 3.98276 7.31828 3.9908 7.29145 3.99064H5.67053C5.63471 3.99064 5.60035 3.97605 5.57502 3.95008C5.54968 3.92412 5.53545 3.8889 5.53545 3.85218L5.5368 2.18925Z" fill="#FFBC9E"/>
<path d="M6.63096 6.92145V10.0285L5.70974 9.24484C5.65802 9.20074 5.59212 9.178 5.52492 9.18108C5.45772 9.18415 5.39406 9.21281 5.34638 9.26145L5.23832 9.37361C5.21238 9.39942 5.19176 9.43031 5.17768 9.46443C5.1636 9.49856 5.15634 9.53524 5.15634 9.5723C5.15634 9.60936 5.1636 9.64604 5.17768 9.68017C5.19176 9.7143 5.21238 9.74518 5.23832 9.77099L6.77819 11.2484C6.82822 11.2963 6.89412 11.3229 6.96257 11.3229C7.03103 11.3229 7.09692 11.2963 7.14695 11.2484L8.68683 9.77099C8.71277 9.74518 8.73339 9.7143 8.74747 9.68017C8.76155 9.64604 8.76881 9.60936 8.76881 9.5723C8.76881 9.53524 8.76155 9.49856 8.74747 9.46443C8.73339 9.43031 8.71277 9.39942 8.68683 9.37361L8.57742 9.26145C8.52974 9.21281 8.46608 9.18415 8.39888 9.18108C8.33168 9.178 8.26577 9.20074 8.21406 9.24484L7.30634 10.0285V6.92145C7.30634 6.84801 7.27788 6.77757 7.22722 6.72564C7.17656 6.67371 7.10784 6.64453 7.03619 6.64453H6.90111C6.82946 6.64453 6.76075 6.67371 6.71009 6.72564C6.65942 6.77757 6.63096 6.84801 6.63096 6.92145Z" fill="#FFBC9E"/>
</svg>
