<svg width="12" height="13" viewBox="0 0 12 13" fill="none" xmlns="http://www.w3.org/2000/svg">
<g clip-path="url(#clip0_9084_129462)">
<path d="M4.19014 5.3466C4.53814 6.07141 5.01253 6.75073 5.61332 7.35152C6.21411 7.95231 6.89343 8.4267 7.61824 8.7747C7.68059 8.80463 7.71176 8.8196 7.7512 8.8311C7.89138 8.87196 8.06351 8.84261 8.18222 8.7576C8.21563 8.73368 8.24421 8.7051 8.30136 8.64795C8.47617 8.47315 8.56357 8.38574 8.65146 8.3286C8.9829 8.1131 9.41019 8.1131 9.74164 8.3286C9.82953 8.38574 9.91693 8.47315 10.0917 8.64795L10.1892 8.74538C10.4549 9.0111 10.5877 9.14396 10.6599 9.28666C10.8035 9.57044 10.8035 9.90557 10.6599 10.1893C10.5877 10.332 10.4549 10.4649 10.1892 10.7306L10.1103 10.8094C9.84554 11.0743 9.71313 11.2067 9.53312 11.3078C9.33336 11.42 9.02312 11.5007 8.79401 11.5C8.58753 11.4994 8.44642 11.4593 8.1642 11.3792C6.6475 10.9487 5.21632 10.1365 4.02233 8.94251C2.82834 7.74852 2.0161 6.31734 1.58562 4.80064C1.50551 4.51842 1.46546 4.3773 1.46485 4.17083C1.46417 3.94172 1.54485 3.63147 1.65706 3.43172C1.75818 3.25171 1.89059 3.1193 2.1554 2.85449L2.23422 2.77567C2.49994 2.50995 2.6328 2.37709 2.77549 2.30492C3.05927 2.16138 3.3944 2.16138 3.67818 2.30492C3.82087 2.37709 3.95373 2.50995 4.21945 2.77567L4.31689 2.87311C4.49169 3.04791 4.57909 3.13531 4.63624 3.2232C4.85173 3.55464 4.85173 3.98193 4.63624 4.31338C4.57909 4.40127 4.49169 4.48867 4.31689 4.66347C4.25973 4.72063 4.23115 4.74921 4.20723 4.78261C4.12223 4.90133 4.09288 5.07346 4.13374 5.21363C4.14524 5.25308 4.1602 5.28425 4.19014 5.3466Z" stroke="#667085" stroke-width="1.2153" stroke-linecap="round" stroke-linejoin="round"/>
</g>
<defs>
<clipPath id="clip0_9084_129462">
<rect width="12" height="12" fill="white" transform="translate(0 0.919922)"/>
</clipPath>
</defs>
</svg>
