<svg width="13" height="12" viewBox="0 0 13 12" fill="none" xmlns="http://www.w3.org/2000/svg">
<path d="M0.724416 2.0768C0.724416 1.95698 0.772518 1.84206 0.858139 1.75733C0.94376 1.6726 1.05989 1.625 1.18098 1.625L5.74657 1.625C5.86765 1.625 5.98378 1.6726 6.0694 1.75733C6.15502 1.84206 6.20312 1.95698 6.20312 2.0768C6.20312 2.19663 6.15502 2.31155 6.0694 2.39628C5.98378 2.48101 5.86765 2.52861 5.74657 2.52861L1.18098 2.52861C1.05989 2.52861 0.94376 2.48101 0.858139 2.39628C0.772518 2.31155 0.724416 2.19663 0.724416 2.0768Z" fill="#667085"/>
<path d="M8.33628 2.0768C8.33628 1.95698 8.38438 1.84206 8.47 1.75733C8.55563 1.6726 8.67175 1.625 8.79284 1.625L11.9888 1.625C12.1098 1.625 12.226 1.6726 12.3116 1.75733C12.3972 1.84206 12.4453 1.95698 12.4453 2.0768C12.4453 2.19663 12.3972 2.31155 12.3116 2.39628C12.226 2.48101 12.1098 2.52861 11.9888 2.52861L8.79284 2.52861C8.67175 2.52861 8.55563 2.48101 8.47 2.39628C8.38438 2.31155 8.33628 2.19663 8.33628 2.0768Z" fill="#667085"/>
<path d="M0.729081 5.99868C0.729081 5.87885 0.777182 5.76393 0.862804 5.67921C0.948425 5.59448 1.06455 5.54687 1.18564 5.54687L2.7075 5.54687C2.82859 5.54687 2.94472 5.59448 3.03034 5.67921C3.11596 5.76393 3.16406 5.87885 3.16406 5.99868C3.16406 6.1185 3.11596 6.23342 3.03034 6.31815C2.94472 6.40288 2.82859 6.45048 2.7075 6.45048L1.18564 6.45048C1.06455 6.45048 0.948425 6.40288 0.862804 6.31815C0.777182 6.23342 0.729081 6.1185 0.729081 5.99868Z" fill="#667085"/>
<path d="M5.14037 5.99868C5.14037 5.87885 5.18847 5.76393 5.27409 5.67921C5.35971 5.59448 5.47584 5.54687 5.59693 5.54687L11.9888 5.54687C12.1098 5.54687 12.226 5.59448 12.3116 5.67921C12.3972 5.76393 12.4453 5.87885 12.4453 5.99868C12.4453 6.1185 12.3972 6.23342 12.3116 6.31815C12.226 6.40288 12.1098 6.45048 11.9888 6.45048L5.59693 6.45048C5.47584 6.45048 5.35971 6.40288 5.27409 6.31815C5.18847 6.23342 5.14037 6.1185 5.14037 5.99868Z" fill="#667085"/>
<path d="M0.730369 9.91274C0.730369 9.79291 0.77847 9.678 0.864091 9.59327C0.949713 9.50854 1.06584 9.46094 1.18693 9.46094L7.73094 9.46094C7.85203 9.46094 7.96816 9.50854 8.05378 9.59327C8.1394 9.678 8.1875 9.79292 8.1875 9.91274C8.1875 10.0326 8.1394 10.1475 8.05378 10.2322C7.96816 10.3169 7.85203 10.3645 7.73094 10.3645L1.18693 10.3645C1.06584 10.3645 0.949713 10.3169 0.864091 10.2322C0.77847 10.1475 0.730369 10.0326 0.730369 9.91274Z" fill="#667085"/>
<path d="M10.0103 9.91274C10.0103 9.79291 10.0584 9.678 10.1441 9.59327C10.2297 9.50854 10.3458 9.46094 10.4669 9.46094L11.9888 9.46094C12.1098 9.46094 12.226 9.50854 12.3116 9.59327C12.3972 9.678 12.4453 9.79292 12.4453 9.91274C12.4453 10.0326 12.3972 10.1475 12.3116 10.2322C12.226 10.3169 12.1098 10.3645 11.9888 10.3645L10.4669 10.3645C10.3458 10.3645 10.2297 10.3169 10.1441 10.2322C10.0584 10.1475 10.0103 10.0326 10.0103 9.91274Z" fill="#667085"/>
<path d="M7.2694 9.90878C7.2694 9.55134 7.37651 9.20194 7.57718 8.90474C7.77785 8.60755 8.06307 8.37591 8.39677 8.23913C8.73047 8.10235 9.09766 8.06656 9.45192 8.13629C9.80617 8.20602 10.1316 8.37814 10.387 8.63088C10.6424 8.88363 10.8163 9.20564 10.8868 9.55621C10.9572 9.90677 10.9211 10.2701 10.7829 10.6004C10.6446 10.9306 10.4106 11.2128 10.1102 11.4114C9.80992 11.61 9.45683 11.716 9.09564 11.716C8.61129 11.716 8.14678 11.5256 7.80429 11.1867C7.46181 10.8478 7.2694 10.3881 7.2694 9.90878ZM10.0088 9.90878C10.0088 9.73006 9.9552 9.55536 9.85487 9.40676C9.75453 9.25816 9.61192 9.14235 9.44507 9.07395C9.27822 9.00556 9.09463 8.98767 8.9175 9.02253C8.74037 9.0574 8.57767 9.14346 8.44997 9.26983C8.32226 9.3962 8.2353 9.55721 8.20007 9.73249C8.16483 9.90777 8.18292 10.0895 8.25203 10.2546C8.32114 10.4197 8.43818 10.5608 8.58834 10.6601C8.7385 10.7594 8.91504 10.8124 9.09564 10.8124C9.33781 10.8124 9.57007 10.7172 9.74131 10.5477C9.91255 10.3783 10.0088 10.1484 10.0088 9.90878Z" fill="#667085"/>
<path d="M2.40221 5.99471C2.40221 5.63728 2.50932 5.28787 2.70999 4.99068C2.91066 4.69349 3.19588 4.46185 3.52958 4.32507C3.86328 4.18828 4.23048 4.15249 4.58473 4.22223C4.93899 4.29196 5.26439 4.46408 5.51979 4.71682C5.7752 4.96956 5.94913 5.29158 6.0196 5.64214C6.09006 5.99271 6.0539 6.35608 5.91567 6.6863C5.77745 7.01653 5.54338 7.29878 5.24305 7.49736C4.94273 7.69594 4.58965 7.80193 4.22845 7.80193C3.7441 7.80193 3.27959 7.61152 2.93711 7.27261C2.59462 6.93369 2.40221 6.47402 2.40221 5.99471ZM5.14157 5.99471C5.14157 5.816 5.08802 5.64129 4.98768 5.4927C4.88735 5.3441 4.74474 5.22828 4.57789 5.15989C4.41103 5.0915 4.22744 5.0736 4.05031 5.10847C3.87318 5.14334 3.71048 5.2294 3.58278 5.35577C3.45508 5.48214 3.36811 5.64315 3.33288 5.81843C3.29764 5.99371 3.31573 6.1754 3.38484 6.34051C3.45395 6.50562 3.57099 6.64675 3.72115 6.74604C3.87131 6.84532 4.04785 6.89832 4.22845 6.89832C4.47062 6.89832 4.70288 6.80312 4.87412 6.63366C5.04537 6.4642 5.14157 6.23437 5.14157 5.99471Z" fill="#667085"/>
<path d="M5.44128 2.08065C5.44128 1.72322 5.54838 1.37381 5.74905 1.07662C5.94972 0.779423 6.23494 0.547788 6.56864 0.411004C6.90234 0.27422 7.26954 0.238432 7.62379 0.308163C7.97805 0.377895 8.30345 0.550015 8.55886 0.802759C8.81426 1.0555 8.98819 1.37752 9.05866 1.72808C9.12912 2.07865 9.09296 2.44202 8.95474 2.77224C8.81651 3.10247 8.58244 3.38471 8.28212 3.58329C7.98179 3.78187 7.62871 3.88786 7.26751 3.88786C6.78316 3.88786 6.31865 3.69746 5.97617 3.35854C5.63368 3.01963 5.44128 2.55995 5.44128 2.08065ZM8.18063 2.08065C8.18063 1.90193 8.12708 1.72723 8.02674 1.57863C7.92641 1.43004 7.7838 1.31422 7.61695 1.24583C7.4501 1.17744 7.2665 1.15954 7.08937 1.19441C6.91224 1.22927 6.74954 1.31533 6.62184 1.4417C6.49414 1.56808 6.40717 1.72908 6.37194 1.90437C6.33671 2.07965 6.35479 2.26133 6.4239 2.42645C6.49301 2.59156 6.61005 2.73268 6.76021 2.83197C6.91037 2.93126 7.08691 2.98426 7.26751 2.98426C7.50969 2.98426 7.74194 2.88906 7.91318 2.7196C8.08443 2.55014 8.18063 2.3203 8.18063 2.08065Z" fill="#667085"/>
</svg>
