<svg width="16" height="17" viewBox="0 0 16 17" fill="none" xmlns="http://www.w3.org/2000/svg">
<path d="M2.66733 15.0476C3.06905 15.1693 3.61165 15.1693 4.53398 15.1693H11.4673C12.3897 15.1693 12.9323 15.1693 13.334 15.0476M2.66733 15.0476C2.5812 15.0215 2.50154 14.9898 2.426 14.9513C2.04968 14.7595 1.74372 14.4536 1.55197 14.0773C1.33398 13.6494 1.33398 13.0894 1.33398 11.9693V5.03594C1.33398 3.91583 1.33398 3.35578 1.55197 2.92796C1.74372 2.55163 2.04968 2.24567 2.426 2.05392C2.85383 1.83594 3.41388 1.83594 4.53398 1.83594H11.4673C12.5874 1.83594 13.1475 1.83594 13.5753 2.05392C13.9516 2.24567 14.2576 2.55163 14.4493 2.92796C14.6673 3.35578 14.6673 3.91583 14.6673 5.03594V11.9693C14.6673 13.0894 14.6673 13.6494 14.4493 14.0773C14.2576 14.4536 13.9516 14.7595 13.5753 14.9513C13.4998 14.9898 13.4201 15.0215 13.334 15.0476M2.66733 15.0476C2.66755 14.508 2.67079 14.2225 2.71856 13.9824C2.92897 12.9245 3.7559 12.0976 4.81374 11.8872C5.07134 11.8359 5.38111 11.8359 6.00065 11.8359H10.0007C10.6202 11.8359 10.93 11.8359 11.1876 11.8872C12.2454 12.0976 13.0723 12.9245 13.2827 13.9824C13.3305 14.2225 13.3337 14.508 13.334 15.0476M10.6673 6.83594C10.6673 8.3087 9.47341 9.5026 8.00065 9.5026C6.52789 9.5026 5.33398 8.3087 5.33398 6.83594C5.33398 5.36318 6.52789 4.16927 8.00065 4.16927C9.47341 4.16927 10.6673 5.36318 10.6673 6.83594Z" stroke="#667085" stroke-width="1.5" stroke-linecap="round" stroke-linejoin="round"/>
</svg>
