<svg width="16" height="15" viewBox="0 0 16 15" fill="none" xmlns="http://www.w3.org/2000/svg">
<path d="M7.52437 1.79912C7.67803 1.48783 7.75486 1.33218 7.85916 1.28245C7.9499 1.23918 8.05533 1.23918 8.14607 1.28245C8.25037 1.33218 8.3272 1.48783 8.48086 1.79912L9.93864 4.75243C9.98401 4.84433 10.0067 4.89028 10.0398 4.92596C10.0692 4.95755 10.1044 4.98314 10.1435 5.00132C10.1876 5.02186 10.2383 5.02927 10.3398 5.04409L13.6006 5.52071C13.944 5.5709 14.1157 5.596 14.1951 5.67987C14.2643 5.75284 14.2968 5.85311 14.2836 5.95276C14.2685 6.06729 14.1442 6.18836 13.8956 6.4305L11.5369 8.72785C11.4634 8.79947 11.4266 8.83528 11.4029 8.87788C11.3819 8.91561 11.3684 8.95705 11.3632 8.99991C11.3573 9.04832 11.366 9.0989 11.3834 9.20007L11.9399 12.445C11.9986 12.7872 12.028 12.9584 11.9728 13.0599C11.9248 13.1483 11.8395 13.2102 11.7406 13.2286C11.627 13.2496 11.4734 13.1688 11.166 13.0072L8.25086 11.4741C8.16003 11.4264 8.11461 11.4025 8.06677 11.3931C8.0244 11.3848 7.98083 11.3848 7.93847 11.3931C7.89062 11.4025 7.8452 11.4264 7.75438 11.4741L4.83922 13.0072C4.53188 13.1688 4.37821 13.2496 4.26459 13.2286C4.16573 13.2102 4.08042 13.1483 4.03243 13.0599C3.97727 12.9584 4.00662 12.7872 4.06532 12.445L4.62186 9.20007C4.63921 9.0989 4.64789 9.04832 4.64202 8.99991C4.63682 8.95705 4.62335 8.91561 4.60234 8.87788C4.57862 8.83528 4.54186 8.79947 4.46833 8.72785L2.10964 6.43049C1.86105 6.18836 1.73675 6.06729 1.72162 5.95276C1.70846 5.85311 1.74097 5.75284 1.8101 5.67987C1.88956 5.596 2.06125 5.5709 2.40463 5.52071L5.66548 5.04409C5.76689 5.02927 5.81759 5.02186 5.86175 5.00132C5.90085 4.98314 5.93605 4.95755 5.96539 4.92596C5.99854 4.89028 6.02122 4.84433 6.06659 4.75243L7.52437 1.79912Z" stroke="#667085" stroke-width="2" stroke-linecap="round" stroke-linejoin="round"/>
</svg>
