<svg width="12" height="12" viewBox="0 0 12 12" fill="none" xmlns="http://www.w3.org/2000/svg">
<path d="M2.38895 5.13807C2.45808 5.17437 2.53596 5.19059 2.6138 5.1849C2.69164 5.1792 2.76635 5.15183 2.82948 5.10586C2.89262 5.05989 2.94166 4.99716 2.97109 4.92475C3.00051 4.85234 3.00915 4.77313 2.99601 4.69606L2.87544 3.99153L3.38662 3.49207C3.44187 3.43737 3.48083 3.36834 3.49915 3.29273C3.51747 3.21711 3.51442 3.13788 3.49035 3.06389C3.46628 2.98991 3.42214 2.9241 3.36286 2.87381C3.30358 2.82352 3.2315 2.79075 3.15468 2.77915L2.4484 2.67431L2.13231 2.0331C2.09772 1.96298 2.04423 1.90395 1.97791 1.86268C1.91159 1.82141 1.83506 1.79953 1.75698 1.79953C1.6789 1.79953 1.60237 1.82141 1.53604 1.86268C1.46972 1.90395 1.41624 1.96298 1.38165 2.0331L1.06514 2.67431L0.358852 2.77705C0.281542 2.78823 0.208896 2.82085 0.149126 2.87122C0.0893556 2.9216 0.0448461 2.98771 0.0206291 3.0621C-0.00358786 3.13649 -0.00654648 3.21618 0.0120878 3.29216C0.030722 3.36814 0.0702059 3.43739 0.126076 3.49207L0.637263 3.99153L0.516688 4.69606C0.503496 4.77319 0.512108 4.85247 0.541549 4.92494C0.57099 4.99742 0.620086 5.0602 0.683287 5.10618C0.746487 5.15217 0.821271 5.17953 0.899183 5.18516C0.977095 5.1908 1.05503 5.17449 1.12417 5.13807L1.75886 4.80552L2.38895 5.13807ZM1.48631 4.00034L1.50055 3.91647C1.51204 3.84948 1.50711 3.7807 1.48618 3.71605C1.46525 3.6514 1.42894 3.59281 1.38039 3.54533L1.31885 3.48536L1.40258 3.47278C1.46965 3.46284 1.5333 3.43673 1.58807 3.3967C1.64284 3.35667 1.68708 3.30391 1.717 3.24297L1.75886 3.16622L1.79696 3.24297C1.82701 3.30394 1.8714 3.35668 1.92632 3.39664C1.98124 3.4366 2.04504 3.46259 2.11221 3.47236L2.19595 3.48494L2.1344 3.54491C2.08585 3.59239 2.04954 3.65098 2.02861 3.71563C2.00768 3.78028 2.00275 3.84906 2.01425 3.91605L2.02848 3.99992L1.95312 3.95798C1.89302 3.92632 1.82614 3.90978 1.75823 3.90978C1.69033 3.90978 1.62344 3.92632 1.56335 3.95798L1.48631 4.00034ZM4.74309 2.31408L4.62252 3.01861C4.60932 3.09573 4.61794 3.17501 4.64738 3.24749C4.67682 3.31996 4.72591 3.38274 4.78911 3.42873C4.85232 3.47471 4.9271 3.50207 5.00501 3.5077C5.08292 3.51334 5.16086 3.49703 5.23 3.46062L5.86176 3.12806L6.49352 3.46062C6.56266 3.49703 6.64059 3.51334 6.71851 3.5077C6.79642 3.50207 6.8712 3.47471 6.9344 3.42873C6.9976 3.38274 7.0467 3.31996 7.07614 3.24749C7.10558 3.17501 7.11419 3.09573 7.101 3.01861L6.98043 2.31408L7.49203 1.81461C7.54729 1.75988 7.58624 1.69083 7.60454 1.61518C7.62284 1.53953 7.61975 1.46027 7.59564 1.38628C7.57152 1.31229 7.52732 1.24648 7.46799 1.19621C7.40865 1.14595 7.33652 1.11323 7.25968 1.10169L6.55297 0.998949L6.23856 0.355645C6.20006 0.290164 6.14516 0.235884 6.0793 0.198173C6.01343 0.160462 5.93888 0.140625 5.86302 0.140625C5.78715 0.140625 5.7126 0.160462 5.64673 0.198173C5.58087 0.235884 5.52597 0.290164 5.48747 0.355645L5.1718 0.996853L4.4651 1.0996C4.38782 1.11084 4.31523 1.14351 4.25551 1.1939C4.1958 1.2443 4.15134 1.31043 4.12717 1.3848C4.103 1.45918 4.10008 1.53884 4.11873 1.6148C4.13739 1.69075 4.17688 1.75996 4.23274 1.81461L4.74309 2.31408ZM5.50841 1.7949C5.57566 1.7852 5.63954 1.75924 5.69454 1.71927C5.74953 1.67931 5.79399 1.62653 5.82408 1.56551L5.86176 1.48877L5.89944 1.56551C5.92952 1.62653 5.97398 1.67931 6.02898 1.71927C6.08398 1.75924 6.14786 1.7852 6.21511 1.7949L6.29884 1.80748L6.2373 1.86745C6.18875 1.91493 6.15244 1.97352 6.13151 2.03817C6.11058 2.10283 6.10565 2.17161 6.11714 2.23859L6.13138 2.32246L6.0556 2.28262C5.99555 2.25103 5.92875 2.23453 5.86092 2.23453C5.7931 2.23453 5.72629 2.25103 5.66624 2.28262L5.59047 2.32246L5.6047 2.23859C5.6162 2.17161 5.61127 2.10283 5.59034 2.03817C5.5694 1.97352 5.5331 1.91493 5.48454 1.86745L5.423 1.80748L5.50841 1.7949ZM11.7046 3.06222C11.6804 2.98786 11.636 2.92175 11.5763 2.87136C11.5166 2.82097 11.444 2.7883 11.3668 2.77705L10.6605 2.67431L10.3415 2.0331C10.303 1.96761 10.2482 1.91332 10.1823 1.8756C10.1165 1.83787 10.042 1.81803 9.96612 1.81803C9.89028 1.81803 9.81575 1.83787 9.74992 1.8756C9.68409 1.91332 9.62923 1.96761 9.59079 2.0331L9.2747 2.67431L8.56842 2.77705C8.49117 2.78836 8.41863 2.82107 8.35897 2.8715C8.2993 2.92192 8.25491 2.98805 8.23078 3.06242C8.20666 3.13678 8.20378 3.21642 8.22245 3.29234C8.24113 3.36827 8.28062 3.43744 8.33648 3.49207L8.84766 3.99153L8.72709 4.69606C8.71395 4.77313 8.72258 4.85234 8.75201 4.92475C8.78144 4.99716 8.83048 5.05989 8.89362 5.10586C8.95675 5.15183 9.03146 5.1792 9.1093 5.1849C9.18714 5.19059 9.26502 5.17437 9.33415 5.13807L9.96633 4.80552L10.5981 5.13807C10.6672 5.17449 10.7452 5.1908 10.8231 5.18516C10.901 5.17953 10.9758 5.15217 11.039 5.10618C11.1022 5.0602 11.1513 4.99742 11.1807 4.92494C11.2102 4.85247 11.2188 4.77319 11.2056 4.69606L11.085 3.99153L11.5974 3.49207C11.6532 3.43736 11.6926 3.36812 11.7112 3.29216C11.7298 3.2162 11.7268 3.13656 11.7025 3.06222H11.7046ZM10.3415 3.54491C10.2929 3.59239 10.2566 3.65098 10.2357 3.71563C10.2147 3.78028 10.2098 3.84906 10.2213 3.91605L10.2355 3.99992L10.1598 3.95798C10.0997 3.92632 10.0328 3.90978 9.96487 3.90978C9.89696 3.90978 9.83008 3.92632 9.76998 3.95798L9.69462 3.99992L9.70885 3.91605C9.72035 3.84906 9.71542 3.78028 9.69449 3.71563C9.67356 3.65098 9.63725 3.59239 9.5887 3.54491L9.52715 3.48494L9.61089 3.47236C9.67806 3.46259 9.74186 3.4366 9.79678 3.39664C9.8517 3.35668 9.89609 3.30394 9.92614 3.24297L9.96424 3.16622L10.0023 3.24297C10.0324 3.30394 10.0768 3.35668 10.1317 3.39664C10.1866 3.4366 10.2504 3.46259 10.3176 3.47236L10.4013 3.48494L10.3415 3.54491ZM9.03229 7.08644H7.0562C7.0562 7.08644 7.31954 5.26179 7.31954 5.24124C7.32065 5.05463 7.25785 4.87329 7.14161 4.72746C7.02537 4.58163 6.86273 4.48013 6.68082 4.4399C6.4989 4.39967 6.30871 4.42313 6.14198 4.50638C5.97525 4.58963 5.84206 4.72763 5.76463 4.89736C5.76463 4.89736 4.81008 6.60375 4.74184 6.71824C4.48017 7.15689 4.40439 7.25083 4.18711 7.25083H3.8057C3.66206 7.04658 3.45711 6.89355 3.22067 6.81399C2.98423 6.73443 2.72861 6.73249 2.49099 6.80844C2.25337 6.8844 2.04613 7.0343 1.8994 7.23634C1.75268 7.43838 1.67411 7.68204 1.67513 7.93188V10.6863C1.67546 10.9985 1.79943 11.2978 2.01982 11.5186C2.24022 11.7393 2.53905 11.8635 2.85073 11.8638C3.12496 11.8627 3.38996 11.7646 3.59889 11.5866C3.60391 11.5866 3.6081 11.5904 3.61312 11.5908C3.61814 11.5913 8.10579 11.8638 8.12756 11.8638C8.34093 11.8635 8.54877 11.7958 8.7216 11.6705C8.89444 11.5452 9.0235 11.3685 9.09049 11.1656L9.99689 8.43302C10.048 8.27859 10.0617 8.11423 10.0372 7.95342C10.0126 7.79262 9.95026 7.63994 9.85539 7.5079C9.76225 7.37682 9.639 7.27009 9.49604 7.19674C9.35307 7.12339 9.19459 7.08556 9.03397 7.08644H9.03229ZM3.1886 10.6863C3.19019 10.7317 3.18263 10.7771 3.16636 10.8195C3.15009 10.862 3.12545 10.9008 3.0939 10.9335C3.06235 10.9663 3.02454 10.9923 2.98272 11.0101C2.94091 11.0279 2.89595 11.037 2.85053 11.037C2.8051 11.037 2.76014 11.0279 2.71833 11.0101C2.67651 10.9923 2.63871 10.9663 2.60715 10.9335C2.5756 10.9008 2.55096 10.862 2.53469 10.8195C2.51842 10.7771 2.51086 10.7317 2.51245 10.6863V7.93188C2.51086 7.88641 2.51842 7.84108 2.53469 7.79859C2.55096 7.75611 2.5756 7.71735 2.60715 7.68461C2.63871 7.65188 2.67651 7.62584 2.71833 7.60806C2.76014 7.59028 2.8051 7.58111 2.85053 7.58111C2.89595 7.58111 2.94091 7.59028 2.98272 7.60806C3.02454 7.62584 3.06235 7.65188 3.0939 7.68461C3.12545 7.71735 3.15009 7.75611 3.16636 7.79859C3.18263 7.84108 3.19019 7.88641 3.1886 7.93188V10.6863ZM9.20102 8.17008L8.29461 10.9027C8.28234 10.9404 8.25813 10.9731 8.22565 10.9958C8.19316 11.0185 8.15417 11.03 8.11458 11.0285L4.01713 10.7768C4.01922 10.7471 4.02592 8.09292 4.02592 8.09292H4.18711C4.89883 8.09292 5.19818 7.59303 5.46068 7.15228C5.52264 7.04828 6.45877 5.37669 6.45877 5.37669L6.15775 7.44919C6.14917 7.50869 6.15346 7.56934 6.17033 7.62703C6.18719 7.68472 6.21625 7.7381 6.25552 7.78356C6.29478 7.82902 6.34335 7.86549 6.39792 7.8905C6.4525 7.91551 6.5118 7.92848 6.57181 7.92852H9.03397C9.06173 7.92861 9.08906 7.93536 9.11368 7.9482C9.1383 7.96104 9.15949 7.9796 9.17548 8.00233C9.19247 8.02613 9.20363 8.05361 9.20807 8.08253C9.2125 8.11145 9.21009 8.14101 9.20102 8.16882V8.17008Z" fill="#667085"/>
</svg>
