<svg width="16" height="17" viewBox="0 0 16 17" fill="none" xmlns="http://www.w3.org/2000/svg">
<path d="M9.33268 2.01318V4.76688C9.33268 5.14025 9.33268 5.32693 9.40534 5.46954C9.46926 5.59498 9.57125 5.69697 9.69669 5.76088C9.8393 5.83354 10.026 5.83354 10.3993 5.83354H13.153M6.33268 8.50016L9.66602 11.8335M9.66602 8.50016L6.33268 11.8335M9.33268 1.8335H5.86602C4.74591 1.8335 4.18586 1.8335 3.75803 2.05148C3.38171 2.24323 3.07575 2.54919 2.884 2.92552C2.66602 3.35334 2.66602 3.91339 2.66602 5.0335V11.9668C2.66602 13.0869 2.66602 13.647 2.884 14.0748C3.07575 14.4511 3.38171 14.7571 3.75803 14.9488C4.18586 15.1668 4.74591 15.1668 5.86602 15.1668H10.1327C11.2528 15.1668 11.8128 15.1668 12.2407 14.9488C12.617 14.7571 12.9229 14.4511 13.1147 14.0748C13.3327 13.647 13.3327 13.0869 13.3327 11.9668V5.8335L9.33268 1.8335Z" stroke="#667085" stroke-width="1.5" stroke-linecap="round" stroke-linejoin="round"/>
</svg>
