<svg width="37" height="38" viewBox="0 0 37 38" fill="none" xmlns="http://www.w3.org/2000/svg">
<path d="M24.3848 31.6C24.3848 34.5823 21.9672 37 18.9848 37C16.0025 37 13.5848 34.5823 13.5848 31.6M22.2185 8.6294C23.0024 7.81955 23.4848 6.71611 23.4848 5.5C23.4848 3.01472 21.4701 1 18.9848 1C16.4995 1 14.4848 3.01472 14.4848 5.5C14.4848 6.71611 14.9672 7.81955 15.7511 8.6294M1.9691 12.3813C1.94327 9.7689 3.35174 7.32936 5.62708 6.04552M36.0005 12.3813C36.0264 9.7689 34.6179 7.32936 32.3426 6.04551M29.7848 17.56C29.7848 15.0776 28.647 12.6968 26.6216 10.9415C24.5962 9.18614 21.8492 8.2 18.9848 8.2C16.1205 8.2 13.3735 9.18614 11.3481 10.9415C9.32268 12.6968 8.18482 15.0776 8.18482 17.56C8.18482 21.6672 7.16626 24.671 5.89534 26.8204C4.44683 29.2701 3.72258 30.495 3.75118 30.7876C3.7839 31.1223 3.84415 31.2279 4.11564 31.4265C4.35293 31.6 5.54514 31.6 7.92956 31.6H30.0401C32.4245 31.6 33.6167 31.6 33.854 31.4265C34.1255 31.2279 34.1857 31.1223 34.2185 30.7876C34.2471 30.495 33.5228 29.2701 32.0743 26.8204C30.8034 24.671 29.7848 21.6672 29.7848 17.56Z" stroke="#101828" stroke-width="2" stroke-linecap="round" stroke-linejoin="round"/>
</svg>
