<svg width="69" height="55" viewBox="0 0 69 55" fill="none" xmlns="http://www.w3.org/2000/svg">
<path d="M2.1703 29.7522L6.62086 32.2603C6.96289 32.4545 7.34937 32.5568 7.74266 32.5572C7.96399 32.557 8.18412 32.5249 8.3963 32.4619C8.69102 32.376 8.96531 32.2313 9.20266 32.0366C9.44001 31.8419 9.6355 31.6012 9.77737 31.3289L10.4991 29.9553L12.8044 31.8791L9.59422 36.3347C9.02804 37.1206 8.79723 38.0993 8.95257 39.0554C9.10792 40.0116 9.63668 40.8668 10.4226 41.4331L10.8083 41.7111C11.4283 42.1588 12.1737 42.3994 12.9384 42.3988C13.2632 42.3982 13.5866 42.3547 13.9 42.2694C13.9303 42.8124 14.0816 43.3418 14.3428 43.8188C14.6041 44.2957 14.9688 44.7082 15.4101 45.0261L15.7957 45.3039C16.4144 45.7521 17.1589 45.9935 17.9229 45.9936C18.2486 45.9936 18.573 45.9504 18.8874 45.8652C18.9179 46.4076 19.0693 46.9363 19.3304 47.4126C19.5915 47.889 19.9558 48.301 20.3966 48.6185L20.7822 48.8964C21.4021 49.3442 22.1476 49.5849 22.9123 49.5841C23.2363 49.5836 23.5589 49.5403 23.8716 49.4553C23.8788 49.582 23.8924 49.7082 23.9125 49.8336C23.9882 50.3074 24.1572 50.7616 24.4096 51.1697C24.6621 51.5778 24.993 51.9318 25.3831 52.2112L25.7688 52.4891C26.555 53.0545 27.5335 53.2848 28.4893 53.1294C29.4452 52.9741 30.3004 52.4458 30.8671 51.6606L32.1498 49.8804L34.1642 51.4908C34.7719 52.0118 35.5162 52.3476 36.3089 52.4585C37.1016 52.5694 37.9095 52.4507 38.6368 52.1165C39.3641 51.7823 39.9804 51.2466 40.4126 50.5728C40.8447 49.899 41.0747 49.1155 41.0751 48.3151C41.712 48.599 42.4097 48.7191 43.1049 48.6646C43.8 48.6101 44.4705 48.3826 45.0553 48.0029C45.6401 47.6232 46.1208 47.1034 46.4535 46.4906C46.7862 45.8778 46.9604 45.1916 46.9603 44.4943C47.4941 44.7328 48.0722 44.8559 48.6569 44.8555C48.7602 44.8555 48.8643 44.8516 48.9684 44.844C50.0018 44.769 50.9706 44.3131 51.6871 43.5646C52.4035 42.8161 52.8166 41.8283 52.8464 40.7926C53.4643 41.1376 54.1604 41.3184 54.8682 41.3175C54.9738 41.3175 55.0802 41.3137 55.1865 41.3057C55.7375 41.2654 56.275 41.1164 56.7681 40.8674C57.2612 40.6184 57.7002 40.2742 58.0597 39.8548L58.1151 39.7905C58.4661 39.3841 58.7337 38.9125 58.9025 38.4026C59.0713 37.8928 59.138 37.3547 59.0988 36.8191C59.0596 36.2835 58.9152 35.7608 58.674 35.281C58.4328 34.8012 58.0994 34.3735 57.693 34.0226L56.237 32.7669C57.2623 32.1544 58.1606 31.3509 58.8832 30.3999L58.9453 30.5316C59.1289 30.9252 59.4209 31.2582 59.7871 31.4916C60.1533 31.725 60.5785 31.849 61.0127 31.8492C61.3286 31.8489 61.6411 31.7836 61.9307 31.6575L66.6186 29.6267C66.9001 29.5047 67.1543 29.3275 67.3661 29.1055C67.5779 28.8835 67.743 28.6212 67.8516 28.3342C67.9602 28.0472 68.0101 27.7414 67.9983 27.4348C67.9866 27.1282 67.9134 26.827 67.7831 26.5492L56.4229 2.31847C56.1745 1.79122 55.7351 1.37805 55.1936 1.16265C54.6521 0.94726 54.0489 0.945741 53.5063 1.1584L48.6887 3.05666C48.3969 3.17168 48.1317 3.34537 47.9096 3.56698C47.6875 3.7886 47.5133 4.05343 47.3977 4.34508C47.2821 4.63673 47.2276 4.949 47.2375 5.26257C47.2474 5.57614 47.3216 5.88434 47.4554 6.1681L48.1511 7.6434L47.5532 7.89832C45.6195 8.30425 44.2834 8.25006 42.2961 7.69147L37.4838 6.33872C36.1345 5.95833 34.7033 5.98148 33.367 6.40531L28.7212 7.87435C27.7694 8.17558 26.8908 8.67181 26.1415 9.33141C25.3264 9.05198 23.7018 8.66607 21.5146 8.97927L22.2201 7.63605C22.4902 7.11962 22.5539 6.51983 22.3983 5.95819C22.2427 5.39655 21.8794 4.91505 21.3821 4.61122L16.9588 1.92002C16.6908 1.75703 16.3922 1.65076 16.0816 1.60777C15.7709 1.56478 15.4547 1.58599 15.1525 1.67009C14.8504 1.75419 14.5687 1.89939 14.3249 2.09671C14.0811 2.29403 13.8803 2.53927 13.7351 2.81727L1.26365 26.6936C0.985568 27.2208 0.924733 27.836 1.09415 28.4075C1.26356 28.979 1.64979 29.4616 2.1703 29.7522ZM11.7636 40.3853L11.3778 40.1067C10.9436 39.7937 10.6514 39.3211 10.5655 38.7928C10.4797 38.2645 10.6073 37.7237 10.9201 37.2894L15.8337 30.4692C15.9886 30.2542 16.1844 30.0717 16.4099 29.9323C16.6353 29.7929 16.886 29.6993 17.1477 29.6568C17.4093 29.6143 17.6768 29.6238 17.9348 29.6847C18.1928 29.7456 18.4362 29.8567 18.6513 30.0117L19.0368 30.2894C19.4706 30.6027 19.7624 31.0752 19.8482 31.6034C19.9341 32.1316 19.8069 32.6723 19.4946 33.1068L14.5809 39.9268C14.2678 40.3607 13.7952 40.6527 13.2671 40.7387C12.7389 40.8246 12.1982 40.6975 11.7636 40.3853ZM18.2538 44.3326C17.9922 44.3759 17.7246 44.3669 17.4666 44.3062C17.2085 44.2454 16.965 44.134 16.7503 43.9785L16.3648 43.7008C15.9309 43.3876 15.6391 42.915 15.5532 42.3868C15.4674 41.8586 15.5946 41.3179 15.907 40.8834L19.5458 35.8326C19.7002 35.6171 19.8959 35.4344 20.1214 35.295C20.3469 35.1556 20.5978 35.0623 20.8596 35.0204C20.968 35.0028 21.0778 34.9939 21.1876 34.9939C21.6098 34.9939 22.0212 35.1274 22.363 35.3752L22.7487 35.6531C22.9638 35.808 23.1462 36.0038 23.2856 36.2292C23.425 36.4547 23.5186 36.7053 23.5611 36.9669C23.6036 37.2285 23.5942 37.496 23.5334 37.7539C23.4725 38.0119 23.3615 38.2554 23.2065 38.4704L19.5679 43.5211C19.4133 43.7365 19.2176 43.9191 18.992 44.0584C18.7665 44.1976 18.5156 44.2908 18.2538 44.3326ZM21.737 47.5706L21.3513 47.2927C20.9175 46.9794 20.6257 46.5068 20.5398 45.9786C20.454 45.4505 20.5812 44.9098 20.8935 44.4753L23.4892 40.8725C23.8025 40.4387 24.275 40.1468 24.8032 40.0609C25.3314 39.9751 25.872 40.1022 26.3065 40.4146L26.6923 40.6925C27.1266 41.0054 27.4189 41.478 27.5047 42.0064C27.5906 42.5348 27.463 43.0756 27.1501 43.5099L24.5544 47.1128C24.2411 47.5466 23.7685 47.8384 23.2403 47.9242C22.7122 48.01 22.1715 47.8829 21.737 47.5706ZM29.5411 50.7055C29.2277 51.1392 28.7551 51.431 28.227 51.5168C27.6988 51.6026 27.1582 51.4755 26.7236 51.1633L26.338 50.8854C25.9037 50.5725 25.6114 50.0998 25.5256 49.5715C25.4397 49.0431 25.5673 48.5023 25.8802 48.0679L27.4326 45.9128C27.7458 45.479 28.2184 45.1872 28.7465 45.1013C29.2747 45.0155 29.8154 45.1427 30.2499 45.455L30.6356 45.733C30.8507 45.8879 31.0331 46.0836 31.1725 46.3091C31.3119 46.5345 31.4055 46.7852 31.448 47.0468C31.4906 47.3084 31.4811 47.5758 31.4203 47.8338C31.3594 48.0918 31.2484 48.3352 31.0935 48.5503L29.5411 50.7055ZM48.9167 4.9473C48.9496 4.86328 48.9995 4.787 49.0634 4.72327C49.1273 4.65954 49.2037 4.60975 49.2878 4.57704L54.1053 2.67892C54.2612 2.61777 54.4345 2.61817 54.5901 2.68004C54.7457 2.74191 54.872 2.86063 54.9433 3.01214L66.3036 27.2423C66.341 27.3222 66.3621 27.4087 66.3654 27.4968C66.3688 27.5849 66.3545 27.6728 66.3232 27.7553C66.292 27.8377 66.2446 27.9131 66.1837 27.9769C66.1229 28.0407 66.0498 28.0916 65.9689 28.1267L61.2811 30.1574C61.1242 30.2263 60.9466 30.231 60.7863 30.1705C60.6259 30.1101 60.4956 29.9893 60.4232 29.834L59.8104 28.5344C59.7849 28.3933 59.7226 28.2614 59.63 28.152L48.9333 5.47102C48.8945 5.38962 48.873 5.30105 48.8701 5.2109C48.8672 5.12076 48.8831 5.031 48.9167 4.9473ZM29.214 9.43259L33.8591 7.96328C34.892 7.63574 35.9981 7.61784 37.041 7.9118L41.8539 9.26455C44.1294 9.90457 45.7302 9.9604 47.9716 9.47984C48.0228 9.46895 48.0727 9.45313 48.1208 9.43259L48.8487 9.12239L58.0721 28.6795C57.3208 29.9415 56.2253 30.9631 54.9141 31.6247L51.0557 28.2936L38.4053 15.786C37.6137 15.0046 36.6373 14.4361 35.5669 14.1333L33.3899 13.5193C33.3165 13.4989 33.2408 13.4886 33.1647 13.4885C31.8302 13.4941 30.7331 14.2239 29.9909 15.5992C29.6703 16.204 29.4411 16.853 29.3108 17.525C29.3063 17.5516 29.3031 17.5784 29.3013 17.6053C29.2958 17.6861 29.2892 17.7658 29.2815 17.8444C29.2068 18.6134 28.9611 19.3559 28.5624 20.0176C28.1636 20.6793 27.622 21.2434 26.9771 21.6688C26.28 22.1195 25.4877 22.4021 24.6627 22.4943C23.8377 22.5864 23.0026 22.4856 22.2232 22.1998L23.4055 18.5912C23.6882 17.728 24.0066 16.864 24.3516 16.0233L25.7678 12.5726C26.0803 11.8307 26.5504 11.1656 27.1454 10.6234C27.7405 10.0812 28.4463 9.6749 29.214 9.43259ZM24.3618 10.5842C24.5752 10.6151 24.7686 10.6523 24.943 10.6915C24.6745 11.0856 24.4456 11.5053 24.2594 11.9443L22.84 15.4031C22.4798 16.2805 22.1477 17.182 21.8526 18.0828L20.4364 22.4063C20.3734 22.5985 20.384 22.8072 20.466 22.992C20.548 23.1769 20.6957 23.3247 20.8804 23.407L21.1855 23.5432C22.2538 24.0323 23.429 24.2418 24.6006 24.152C25.7722 24.0622 26.9017 23.6761 27.883 23.0298C28.7301 22.4704 29.4415 21.7287 29.9649 20.8589C30.4883 19.9891 30.8106 19.0133 30.9083 18.0028C30.9159 17.9253 30.9226 17.847 30.9283 17.7679C30.9889 17.4683 31.4939 15.2292 33.0678 15.1278L35.1241 15.7077C35.9285 15.9352 36.6623 16.3625 37.2572 16.9498L49.9272 29.4763C49.9408 29.4899 49.9545 29.5017 49.9681 29.5139L56.6255 35.2604C56.8695 35.4711 57.0697 35.7278 57.2146 36.0158C57.3594 36.3039 57.4461 36.6177 57.4696 36.9392C57.4931 37.2608 57.4531 37.5839 57.3518 37.8899C57.2505 38.196 57.0898 38.4792 56.879 38.7231L56.8236 38.7873C56.6038 39.0441 56.3352 39.255 56.0335 39.4076C55.7318 39.5602 55.4029 39.6516 55.0658 39.6765C54.7313 39.7023 54.3951 39.6614 54.0765 39.5563C53.758 39.4511 53.4635 39.2836 53.2102 39.0637L51.4177 37.5145C51.4122 37.5097 51.4072 37.5047 51.4017 37.4999L46.8328 33.5532L46.6298 33.3779C46.5488 33.3067 46.4544 33.2523 46.3522 33.2178C46.2501 33.1832 46.1421 33.1693 46.0345 33.1767C45.9269 33.1841 45.8218 33.2127 45.7253 33.261C45.6288 33.3092 45.5429 33.376 45.4724 33.4576C45.4018 33.5392 45.3482 33.634 45.3145 33.7365C45.2808 33.8389 45.2677 33.947 45.276 34.0546C45.2843 34.1621 45.3138 34.2669 45.3628 34.363C45.4118 34.4591 45.4793 34.5445 45.5615 34.6144L45.6999 34.7339C46.2425 35.2025 48.3192 36.9966 50.3417 38.7444C50.8487 39.1894 51.1589 39.817 51.2046 40.49C51.2504 41.163 51.0279 41.8267 50.5858 42.3362C50.1437 42.8457 49.5179 43.1595 48.8452 43.2091C48.1724 43.2587 47.5074 43.04 46.9954 42.6008L45.5166 41.3234L45.5144 41.3215L42.2227 38.4774C42.1416 38.4063 42.0473 38.352 41.9451 38.3176C41.843 38.2832 41.7351 38.2693 41.6276 38.2768C41.52 38.2843 41.4151 38.313 41.3187 38.3612C41.2223 38.4094 41.1364 38.4762 41.0659 38.5578C40.9955 38.6394 40.9419 38.7341 40.9082 38.8364C40.8745 38.9388 40.8614 39.0469 40.8696 39.1543C40.8778 39.2618 40.9072 39.3666 40.9561 39.4626C41.005 39.5586 41.0725 39.6441 41.1545 39.7139L44.4454 42.5568C44.6997 42.7759 44.9083 43.0429 45.0593 43.3426C45.2103 43.6423 45.3008 43.9689 45.3255 44.3036C45.3502 44.6382 45.3086 44.9745 45.2032 45.2932C45.0979 45.6118 44.9307 45.9065 44.7113 46.1605C44.4919 46.4145 44.2246 46.6227 43.9247 46.7733C43.6247 46.9238 43.2981 47.0138 42.9633 47.038C42.6286 47.0622 42.2924 47.0202 41.9739 46.9144C41.6554 46.8085 41.3609 46.6409 41.1073 46.4212L37.8161 43.5791C37.735 43.5081 37.6407 43.4538 37.5386 43.4194C37.4364 43.385 37.3285 43.3711 37.221 43.3786C37.1134 43.3861 37.0085 43.4147 36.9121 43.463C36.8157 43.5112 36.7298 43.578 36.6594 43.6596C36.5889 43.7411 36.5353 43.8358 36.5016 43.9382C36.4679 44.0406 36.4548 44.1486 36.463 44.2561C36.4712 44.3635 36.5007 44.4683 36.5496 44.5643C36.5985 44.6604 36.6659 44.7458 36.7479 44.8157L38.4108 46.2521L38.558 46.3792C38.8142 46.5977 39.0247 46.8646 39.1773 47.1648C39.3299 47.4649 39.4217 47.7922 39.4473 48.1279C39.4729 48.4637 39.4319 48.8011 39.3266 49.1209C39.2212 49.4407 39.0537 49.7365 38.8336 49.9913C38.6135 50.2461 38.3452 50.4549 38.0441 50.6055C37.743 50.7562 37.415 50.8459 37.0792 50.8693C36.7433 50.8927 36.4061 50.8495 36.087 50.7421C35.7679 50.6347 35.4731 50.4652 35.2198 50.2434C35.2119 50.2366 35.2039 50.2298 35.1958 50.2236L32.9525 48.431C33.1728 47.7021 33.1599 46.9226 32.9158 46.2014C32.6717 45.4801 32.2084 44.8531 31.5908 44.4079L31.205 44.1299C30.5621 43.6655 29.7849 43.4243 28.992 43.4429C29.2264 42.7085 29.2226 41.9188 28.9811 41.1868C28.7396 40.4547 28.2729 39.8177 27.6476 39.3668L27.2618 39.0889C26.6187 38.6246 25.8414 38.3836 25.0484 38.4026C25.2828 37.6682 25.279 36.8785 25.0375 36.1464C24.7961 35.4142 24.3293 34.7772 23.704 34.3264L23.3182 34.0484C22.7063 33.6056 21.9714 33.3649 21.2161 33.3599C21.5403 32.5969 21.5958 31.7464 21.3734 30.9477C21.151 30.149 20.6639 29.4496 19.9919 28.964L19.6063 28.6863C18.8203 28.1201 17.8416 27.8893 16.8855 28.0447C15.9294 28.2001 15.0741 28.7289 14.5079 29.5148L13.7619 30.5497L11.2751 28.4759L20.5358 10.8439C21.7812 10.5039 23.0819 10.4156 24.3618 10.5842ZM2.71213 27.4495L15.1828 3.57385C15.2242 3.4937 15.2818 3.42301 15.3519 3.36625C15.4221 3.30948 15.5032 3.26787 15.5902 3.24404C15.6483 3.2278 15.7083 3.21956 15.7686 3.21953C15.8888 3.21976 16.0066 3.25312 16.109 3.31594L20.5324 6.00796C20.6752 6.09526 20.7796 6.2336 20.8243 6.39496C20.869 6.55632 20.8507 6.72864 20.7731 6.87702L8.32998 30.5693C8.28896 30.6474 8.2327 30.7164 8.16454 30.7723C8.09637 30.8282 8.01769 30.8698 7.93314 30.8948C7.84859 30.9197 7.7599 30.9275 7.67231 30.9175C7.58472 30.9076 7.50001 30.8802 7.4232 30.8369L2.97263 28.3286C2.82301 28.2451 2.71199 28.1064 2.66331 27.9421C2.61463 27.7778 2.63216 27.601 2.71213 27.4495Z" fill="#6873BD" stroke="#3E4784" stroke-width="2"/>
</svg>
