<svg width="56" height="56" viewBox="0 0 56 56" fill="none" xmlns="http://www.w3.org/2000/svg">
<rect x="4" y="4" width="48" height="48" rx="24" fill="#3247FF"/>
<rect x="4" y="4" width="48" height="48" rx="24" stroke="#3247FF" stroke-width="8"/>
<path d="M21.0515 28.8143C21.6094 28.8143 22.0618 29.2666 22.0618 29.8246V30.4492L22.4311 30.4495L22.4672 30.445C22.4905 30.4389 22.5123 30.427 22.5301 30.4102C23.448 29.5443 24.2494 29.0625 24.9626 28.9819C26.199 28.8422 27.4548 29.0377 28.3341 29.6488L28.4631 29.7436L28.5964 29.8422C29.0414 30.1559 29.5381 30.3512 30.092 30.4296L30.2787 30.4514L33.284 30.4495L33.3634 30.4823L33.4608 30.5268C33.9644 30.7807 34.2166 31.2978 34.2265 32.0021C34.2279 32.1017 34.2254 32.197 34.2188 32.2878C35.3038 31.7654 36.0959 31.3775 36.5932 31.1246L36.683 31.0787L37.0902 30.8659C37.8816 30.4615 38.2979 30.4278 39.0887 30.685C40.1158 31.0189 40.3056 32.9426 39.4999 33.4915C38.6217 34.0897 32.8172 37.1147 31.9869 37.2738C31.3979 37.3867 31.0284 37.4125 30.639 37.3735L30.5908 37.3683L30.5417 37.3625L30.3242 37.3312C30.2991 37.3272 30.249 37.3189 30.1949 37.3099L30.1403 37.3008L29.6566 37.2148C29.4244 37.1705 29.0972 37.106 28.6748 37.0212L28.512 36.9884L23.8491 36.0307H22.0618V36.7523C22.0618 37.3103 21.6094 37.7626 21.0515 37.7626H17.0103C16.4523 37.7626 16 37.3103 16 36.7523V29.8246C16 29.2666 16.4523 28.8143 17.0103 28.8143H21.0515ZM21.0515 29.6802H17.0103C16.9306 29.6802 16.866 29.7449 16.866 29.8246V36.7523C16.866 36.832 16.9306 36.8966 17.0103 36.8966H21.0515C21.1312 36.8966 21.1958 36.832 21.1958 36.7523L21.1963 35.6564L21.1923 35.5977C21.1923 35.5777 21.1936 35.5581 21.1963 35.5389L21.1958 29.8246C21.1958 29.7449 21.1312 29.6802 21.0515 29.6802ZM25.0599 29.8424C24.5731 29.8974 23.9184 30.291 23.1243 31.0401C22.9603 31.1949 22.7499 31.2896 22.5272 31.3109L22.4311 31.3155L22.0618 31.3152V35.1647H23.892L23.9799 35.1737L28.5962 36.122C29.2494 36.2538 29.7056 36.3438 29.9638 36.3915L30.0242 36.4026L30.604 36.4974L30.7254 36.5118C31.0232 36.5417 31.3114 36.5215 31.8239 36.4233C32.4655 36.3004 37.5748 33.6501 38.826 32.8937L38.8977 32.8498L39.0124 32.7758C39.2412 32.6199 39.1418 31.6128 38.821 31.5085C38.2559 31.3248 38.0665 31.3341 37.4714 31.6433L37.3549 31.7048L37.2308 31.7703C36.991 31.8955 36.6485 32.0676 36.2029 32.2868L36.031 32.3711L33.6406 33.5243C33.5793 33.5536 33.5145 33.5672 33.4508 33.5667C33.2479 33.6555 33.0036 33.7036 32.7168 33.711C32.5218 33.716 32.2277 33.7192 31.8344 33.7206L31.6822 33.721L28.8296 33.7111C28.5905 33.7095 28.3979 33.5144 28.3996 33.2752C28.4012 33.0361 28.5963 32.8436 28.8354 32.8452C30.4222 32.8558 31.5537 32.8582 32.2266 32.8524L32.3241 32.8514L32.7695 32.8423C33.226 32.8169 33.3561 32.6635 33.361 32.1103L33.3606 32.0144L33.3569 31.9109C33.341 31.6467 33.2781 31.4763 33.1714 31.3726L33.1294 31.3368L33.0969 31.3152L30.2388 31.3155L30.0501 31.295C29.241 31.1916 28.543 30.9022 27.9319 30.4275C27.2594 29.9052 26.1549 29.7186 25.0599 29.8424ZM19.0309 33.4328C19.7483 33.4328 20.3298 34.0143 20.3298 34.7317C20.3298 35.4491 19.7483 36.0307 19.0309 36.0307C18.3135 36.0307 17.7319 35.4491 17.7319 34.7317C17.7319 34.0143 18.3135 33.4328 19.0309 33.4328ZM19.0309 34.2987C18.7917 34.2987 18.5979 34.4926 18.5979 34.7317C18.5979 34.9708 18.7917 35.1647 19.0309 35.1647C19.27 35.1647 19.4639 34.9708 19.4639 34.7317C19.4639 34.4926 19.27 34.2987 19.0309 34.2987ZM31.1544 19C33.7848 19 35.9172 21.1324 35.9172 23.7628C35.9172 26.3932 33.7848 28.5256 31.1544 28.5256C28.524 28.5256 26.3916 26.3932 26.3916 23.7628C26.3916 21.1324 28.524 19 31.1544 19ZM31.1544 19.866C29.0022 19.866 27.2575 21.6106 27.2575 23.7628C27.2575 25.915 29.0022 27.6597 31.1544 27.6597C33.3066 27.6597 35.0512 25.915 35.0512 23.7628C35.0512 21.6106 33.3066 19.866 31.1544 19.866ZM31.147 20.8487C31.2992 20.8487 31.4316 20.9327 31.4316 21.1311V21.4102C31.8451 21.464 32.2123 21.6186 32.4571 21.854C32.6424 22.0389 32.7516 22.244 32.7516 22.4323C32.7516 22.6273 32.6093 22.7585 32.4241 22.7585C32.2719 22.7585 32.1594 22.7013 32.0138 22.5466C31.726 22.2205 31.4679 22.0927 31.0974 22.0927C30.6409 22.0927 30.3497 22.3415 30.3497 22.6845C30.3497 22.9703 30.5548 23.1653 30.975 23.2594L31.6466 23.4141C32.4638 23.5957 32.8575 23.9992 32.8575 24.6649C32.8575 25.4382 32.3017 25.9695 31.4117 26.067V26.336C31.4117 26.5377 31.2794 26.6218 31.1305 26.6218C30.9783 26.6218 30.846 26.5377 30.846 26.336V26.0703C30.3861 26.0266 29.9726 25.8753 29.7079 25.6299C29.5061 25.4517 29.3936 25.2466 29.3936 25.0482C29.3936 24.8229 29.5458 24.6918 29.7476 24.6918C29.8733 24.6918 29.9659 24.7288 30.1347 24.9003C30.4324 25.2264 30.76 25.3777 31.1536 25.3777C31.6797 25.3777 31.9741 25.1356 31.9741 24.7523C31.9741 24.4564 31.7723 24.2816 31.2827 24.1639L30.6111 24.0059C29.8568 23.8344 29.4631 23.4007 29.4631 22.7484C29.4631 22.0019 30.009 21.4808 30.8658 21.4001V21.1311C30.8658 20.9294 30.9982 20.8487 31.147 20.8487Z" fill="#D1FADF" stroke="#D1FADF" stroke-width="0.55"/>
</svg>
