<svg width="16" height="17" viewBox="0 0 16 17" fill="none" xmlns="http://www.w3.org/2000/svg">
<path d="M7.9974 10.4974C9.10196 10.4974 9.9974 9.60196 9.9974 8.4974C9.9974 7.39283 9.10196 6.4974 7.9974 6.4974C6.89283 6.4974 5.9974 7.39283 5.9974 8.4974C5.9974 9.60196 6.89283 10.4974 7.9974 10.4974Z" stroke="#2E90FA" stroke-width="2" stroke-linecap="round" stroke-linejoin="round"/>
<path d="M12.9307 10.4974C12.842 10.6985 12.8155 10.9215 12.8547 11.1378C12.8939 11.3541 12.997 11.5536 13.1507 11.7107L13.1907 11.7507C13.3147 11.8746 13.413 12.0216 13.4801 12.1835C13.5472 12.3453 13.5818 12.5188 13.5818 12.6941C13.5818 12.8693 13.5472 13.0428 13.4801 13.2046C13.413 13.3665 13.3147 13.5136 13.1907 13.6374C13.0669 13.7614 12.9198 13.8597 12.758 13.9268C12.5961 13.9939 12.4226 14.0284 12.2474 14.0284C12.0722 14.0284 11.8987 13.9939 11.7368 13.9268C11.5749 13.8597 11.4279 13.7614 11.3041 13.6374L11.2641 13.5974C11.1069 13.4437 10.9074 13.3406 10.6911 13.3014C10.4749 13.2622 10.2518 13.2887 10.0507 13.3774C9.85355 13.4619 9.68538 13.6022 9.56693 13.7811C9.44848 13.9599 9.38492 14.1695 9.38406 14.3841V14.4974C9.38406 14.851 9.24359 15.1902 8.99354 15.4402C8.74349 15.6903 8.40435 15.8307 8.05073 15.8307C7.69711 15.8307 7.35797 15.6903 7.10792 15.4402C6.85787 15.1902 6.7174 14.851 6.7174 14.4974V14.4374C6.71223 14.2167 6.64081 14.0027 6.5124 13.8232C6.384 13.6437 6.20455 13.5069 5.9974 13.4307C5.79632 13.342 5.57327 13.3155 5.357 13.3547C5.14074 13.3939 4.94118 13.497 4.78406 13.6507L4.74406 13.6907C4.62023 13.8147 4.47318 13.913 4.31132 13.9801C4.14945 14.0472 3.97595 14.0818 3.80073 14.0818C3.62551 14.0818 3.45201 14.0472 3.29014 13.9801C3.12828 13.913 2.98123 13.8147 2.8574 13.6907C2.73343 13.5669 2.63508 13.4198 2.56798 13.258C2.50088 13.0961 2.46635 12.9226 2.46635 12.7474C2.46635 12.5722 2.50088 12.3987 2.56798 12.2368C2.63508 12.0749 2.73343 11.9279 2.8574 11.8041L2.8974 11.7641C3.05109 11.6069 3.15419 11.4074 3.1934 11.1911C3.23261 10.9749 3.20614 10.7518 3.1174 10.5507C3.03289 10.3535 2.89257 10.1854 2.71371 10.0669C2.53485 9.94848 2.32525 9.88492 2.11073 9.88406H1.9974C1.64377 9.88406 1.30464 9.74359 1.05459 9.49354C0.804538 9.24349 0.664063 8.90435 0.664062 8.55073C0.664062 8.19711 0.804538 7.85797 1.05459 7.60792C1.30464 7.35787 1.64377 7.2174 1.9974 7.2174H2.0574C2.27806 7.21223 2.49207 7.14081 2.6716 7.0124C2.85112 6.884 2.98787 6.70455 3.06406 6.4974C3.15281 6.29632 3.17928 6.07327 3.14007 5.857C3.10085 5.64074 2.99775 5.44118 2.84406 5.28406L2.80406 5.24406C2.68009 5.12023 2.58175 4.97318 2.51465 4.81132C2.44755 4.64945 2.41301 4.47595 2.41301 4.30073C2.41301 4.12551 2.44755 3.95201 2.51465 3.79014C2.58175 3.62828 2.68009 3.48123 2.80406 3.3574C2.92789 3.23343 3.07494 3.13508 3.23681 3.06798C3.39867 3.00088 3.57218 2.96635 3.7474 2.96635C3.92262 2.96635 4.09612 3.00088 4.25798 3.06798C4.41985 3.13508 4.5669 3.23343 4.69073 3.3574L4.73073 3.3974C4.88785 3.55109 5.08741 3.65419 5.30367 3.6934C5.51993 3.73261 5.74298 3.70614 5.94406 3.6174H5.9974C6.19457 3.53289 6.36274 3.39257 6.48119 3.21371C6.59964 3.03485 6.66321 2.82525 6.66406 2.61073V2.4974C6.66406 2.14377 6.80454 1.80464 7.05459 1.55459C7.30464 1.30454 7.64377 1.16406 7.9974 1.16406C8.35102 1.16406 8.69016 1.30454 8.9402 1.55459C9.19025 1.80464 9.33073 2.14377 9.33073 2.4974V2.5574C9.33158 2.77192 9.39515 2.98151 9.5136 3.16037C9.63205 3.33923 9.80022 3.47955 9.9974 3.56406C10.1985 3.65281 10.4215 3.67928 10.6378 3.64007C10.8541 3.60085 11.0536 3.49775 11.2107 3.34406L11.2507 3.30406C11.3746 3.18009 11.5216 3.08175 11.6835 3.01465C11.8453 2.94755 12.0188 2.91301 12.1941 2.91301C12.3693 2.91301 12.5428 2.94755 12.7046 3.01465C12.8665 3.08175 13.0136 3.18009 13.1374 3.30406C13.2614 3.42789 13.3597 3.57494 13.4268 3.73681C13.4939 3.89867 13.5284 4.07218 13.5284 4.2474C13.5284 4.42262 13.4939 4.59612 13.4268 4.75798C13.3597 4.91985 13.2614 5.0669 13.1374 5.19073L13.0974 5.23073C12.9437 5.38785 12.8406 5.58741 12.8014 5.80367C12.7622 6.01993 12.7887 6.24298 12.8774 6.44406V6.4974C12.9619 6.69457 13.1022 6.86274 13.2811 6.98119C13.4599 7.09964 13.6695 7.16321 13.8841 7.16406H13.9974C14.351 7.16406 14.6902 7.30454 14.9402 7.55459C15.1903 7.80464 15.3307 8.14377 15.3307 8.4974C15.3307 8.85102 15.1903 9.19016 14.9402 9.4402C14.6902 9.69025 14.351 9.83073 13.9974 9.83073H13.9374C13.7229 9.83158 13.5133 9.89515 13.3344 10.0136C13.1556 10.1321 13.0152 10.3002 12.9307 10.4974Z" stroke="#2E90FA" stroke-width="2" stroke-linecap="round" stroke-linejoin="round"/>
</svg>
