<svg width="30" height="25" viewBox="0 0 36 35" fill="none" xmlns="http://www.w3.org/2000/svg">
<path d="M16.9803 1.43601C17.3231 0.741483 18.3135 0.741483 18.6563 1.43601L23.3765 10.9987C23.5126 11.2743 23.7753 11.4654 24.0794 11.5098L34.6366 13.0529C35.4028 13.1649 35.7082 14.1068 35.1535 14.6471L27.5159 22.0861C27.2954 22.3008 27.1948 22.6103 27.2468 22.9136L29.0491 33.4218C29.1801 34.1853 28.3787 34.7675 27.6931 34.407L18.2533 29.4427C17.9809 29.2995 17.6556 29.2995 17.3833 29.4427L7.9435 34.407C7.25789 34.7675 6.45647 34.1853 6.58741 33.4218L8.3897 22.9136C8.44172 22.6103 8.34111 22.3008 8.12067 22.0861L0.48305 14.6471C-0.0716919 14.1068 0.233701 13.1649 0.999951 13.0529L11.5571 11.5098C11.8612 11.4654 12.124 11.2743 12.26 10.9987L16.9803 1.43601Z" fill="#3247FF"/>
</svg>
