<svg width="30" height="25" viewBox="0 0 37 35" fill="none" xmlns="http://www.w3.org/2000/svg">
<path d="M17.7226 1.35154C18.0654 0.65701 19.0558 0.65701 19.3986 1.35154L24.1189 10.9143C24.2549 11.1898 24.5177 11.3809 24.8217 11.4253L35.3789 12.9684C36.1452 13.0804 36.4506 14.0223 35.8958 14.5626L28.2582 22.0017C28.0378 22.2164 27.9371 22.5258 27.9892 22.8291L29.7914 33.3374C29.9224 34.1009 29.121 34.6831 28.4354 34.3225L18.9956 29.3582C18.7233 29.215 18.3979 29.215 18.1256 29.3582L8.68581 34.3225C8.0002 34.6831 7.19878 34.1009 7.32973 33.3374L9.13201 22.8291C9.18403 22.5258 9.08342 22.2164 8.86298 22.0017L1.22536 14.5626C0.670618 14.0223 0.976011 13.0804 1.74226 12.9684L12.2995 11.4253C12.6035 11.3809 12.8663 11.1898 13.0023 10.9143L17.7226 1.35154Z" fill="#B5B6BA"/>
</svg>
