<svg width="16" height="14" viewBox="0 0 16 14" fill="none" xmlns="http://www.w3.org/2000/svg">
<path d="M11.0007 1.16797L14.334 4.5013M14.334 1.16797L11.0007 4.5013M10.6673 12.5013V11.7013C10.6673 10.5812 10.6673 10.0211 10.4493 9.59332C10.2576 9.217 9.95162 8.91104 9.5753 8.71929C9.14748 8.5013 8.58742 8.5013 7.46732 8.5013H4.53398C3.41388 8.5013 2.85383 8.5013 2.426 8.71929C2.04968 8.91104 1.74372 9.217 1.55197 9.59332C1.33398 10.0211 1.33398 10.5812 1.33398 11.7013V12.5013M8.33398 3.5013C8.33398 4.78997 7.28932 5.83464 6.00065 5.83464C4.71199 5.83464 3.66732 4.78997 3.66732 3.5013C3.66732 2.21264 4.71199 1.16797 6.00065 1.16797C7.28932 1.16797 8.33398 2.21264 8.33398 3.5013Z" stroke="#475467" stroke-width="2" stroke-linecap="round" stroke-linejoin="round"/>
</svg>
