<svg width="16" height="17" viewBox="0 0 16 17" fill="none" xmlns="http://www.w3.org/2000/svg">
<path d="M10.6673 4.5L12.6673 2.5M12.6673 2.5L14.6673 4.5M12.6673 2.5V6.5M10.6673 14.5V13.7C10.6673 12.5799 10.6673 12.0198 10.4493 11.592C10.2576 11.2157 9.95162 10.9097 9.5753 10.718C9.14748 10.5 8.58742 10.5 7.46732 10.5H4.53398C3.41388 10.5 2.85383 10.5 2.426 10.718C2.04968 10.9097 1.74372 11.2157 1.55197 11.592C1.33398 12.0198 1.33398 12.5799 1.33398 13.7V14.5M8.33398 5.5C8.33398 6.78866 7.28932 7.83333 6.00065 7.83333C4.71199 7.83333 3.66732 6.78866 3.66732 5.5C3.66732 4.21134 4.71199 3.16667 6.00065 3.16667C7.28932 3.16667 8.33398 4.21134 8.33398 5.5Z" stroke="#2E90FA" stroke-width="1.5" stroke-linecap="round" stroke-linejoin="round"/>
</svg>
