<svg width="16" height="17" viewBox="0 0 16 17" fill="none" xmlns="http://www.w3.org/2000/svg">
<path d="M10.6663 4.5L12.6663 2.5M12.6663 2.5L14.6663 4.5M12.6663 2.5V6.5M10.6663 14.5V13.7C10.6663 12.5799 10.6663 12.0198 10.4484 11.592C10.2566 11.2157 9.95065 10.9097 9.57432 10.718C9.1465 10.5 8.58645 10.5 7.46634 10.5H4.53301C3.4129 10.5 2.85285 10.5 2.42503 10.718C2.0487 10.9097 1.74274 11.2157 1.55099 11.592C1.33301 12.0198 1.33301 12.5799 1.33301 13.7V14.5M8.33301 5.5C8.33301 6.78866 7.28834 7.83333 5.99967 7.83333C4.71101 7.83333 3.66634 6.78866 3.66634 5.5C3.66634 4.21134 4.71101 3.16667 5.99967 3.16667C7.28834 3.16667 8.33301 4.21134 8.33301 5.5Z" stroke="#667085" stroke-width="1.5" stroke-linecap="round" stroke-linejoin="round"/>
</svg>
