<svg width="17" height="16" viewBox="0 0 17 16" fill="none" xmlns="http://www.w3.org/2000/svg">
<g clip-path="url(#clip0_11290_12661)">
<path d="M5.22216 7.33333H3.28883C2.91546 7.33333 2.72878 7.33333 2.58617 7.406C2.46073 7.46991 2.35874 7.5719 2.29483 7.69734C2.22216 7.83995 2.22216 8.02663 2.22216 8.4V14M11.2222 7.33333H13.1555C13.5289 7.33333 13.7155 7.33333 13.8582 7.406C13.9836 7.46991 14.0856 7.5719 14.1495 7.69734C14.2222 7.83995 14.2222 8.02663 14.2222 8.4V14M11.2222 14V4.13333C11.2222 3.3866 11.2222 3.01323 11.0768 2.72801C10.949 2.47713 10.745 2.27316 10.4942 2.14532C10.2089 2 9.83557 2 9.08883 2H7.3555C6.60876 2 6.23539 2 5.95018 2.14532C5.69929 2.27316 5.49532 2.47713 5.36749 2.72801C5.22216 3.01323 5.22216 3.3866 5.22216 4.13333V14M14.8888 14H1.5555M7.5555 4.66667H8.88883M7.5555 7.33333H8.88883M7.5555 10H8.88883" stroke="#027A48" stroke-width="1.5" stroke-linecap="round" stroke-linejoin="round"/>
</g>
<defs>
<clipPath id="clip0_11290_12661">
<rect width="16" height="16" fill="white" transform="translate(0.222168)"/>
</clipPath>
</defs>
</svg>
