<svg width="30" height="20" viewBox="0 0 30 20" fill="none" xmlns="http://www.w3.org/2000/svg">
<g style="mix-blend-mode:multiply">
<rect width="30" height="20" rx="10" fill="#ECFDF3"/>
<path d="M9.26047 8.82059C9.35482 8.87012 9.46111 8.89226 9.56735 8.88449C9.67359 8.87672 9.77555 8.83936 9.86172 8.77662C9.94788 8.71388 10.0148 8.62827 10.055 8.52944C10.0951 8.43061 10.1069 8.32251 10.089 8.21733L9.92443 7.25577L10.6221 6.5741C10.6975 6.49944 10.7507 6.40524 10.7757 6.30203C10.8007 6.19883 10.7965 6.09069 10.7637 5.98972C10.7308 5.88874 10.6706 5.79892 10.5897 5.73029C10.5088 5.66165 10.4104 5.61692 10.3056 5.6011L9.34161 5.45801L8.9102 4.58288C8.86299 4.48718 8.79 4.40662 8.69948 4.35028C8.60896 4.29395 8.50451 4.2641 8.39795 4.2641C8.29138 4.2641 8.18694 4.29395 8.09641 4.35028C8.00589 4.40662 7.9329 4.48718 7.88569 4.58288L7.45371 5.45801L6.48977 5.59823C6.38425 5.61349 6.2851 5.65801 6.20353 5.72676C6.12195 5.79551 6.06121 5.88574 6.02815 5.98727C5.9951 6.08879 5.99107 6.19755 6.0165 6.30126C6.04193 6.40496 6.09582 6.49947 6.17207 6.5741L6.86975 7.25577L6.70518 8.21733C6.68718 8.32258 6.69893 8.43079 6.73911 8.5297C6.77929 8.62862 6.8463 8.7143 6.93256 8.77706C7.01882 8.83982 7.12088 8.87716 7.22722 8.88485C7.33355 8.89254 7.43992 8.87028 7.53428 8.82059L8.40052 8.36671L9.26047 8.82059ZM8.02854 7.26779L8.04797 7.15332C8.06366 7.0619 8.05693 6.96803 8.02836 6.87979C7.99979 6.79155 7.95024 6.71158 7.88398 6.64679L7.79998 6.56494L7.91426 6.54777C8.00579 6.5342 8.09267 6.49857 8.16742 6.44393C8.24217 6.3893 8.30255 6.3173 8.34338 6.23412L8.40052 6.12938L8.45251 6.23412C8.49352 6.31733 8.55411 6.38931 8.62907 6.44385C8.70402 6.49839 8.79109 6.53386 8.88278 6.5472L8.99706 6.56437L8.91306 6.64621C8.84679 6.71101 8.79724 6.79097 8.76868 6.87921C8.74011 6.96745 8.73338 7.06133 8.74907 7.15275L8.7685 7.26722L8.66565 7.20998C8.58362 7.16677 8.49234 7.14419 8.39966 7.14419C8.30698 7.14419 8.2157 7.16677 8.13368 7.20998L8.02854 7.26779ZM12.4734 4.96636L12.3089 5.92791C12.2909 6.03317 12.3026 6.14137 12.3428 6.24028C12.383 6.3392 12.45 6.42488 12.5362 6.48765C12.6225 6.55041 12.7246 6.58774 12.8309 6.59544C12.9372 6.60313 13.0436 6.58087 13.138 6.53117L14.0002 6.07729L14.8624 6.53117C14.9568 6.58087 15.0632 6.60313 15.1695 6.59544C15.2758 6.58774 15.3779 6.55041 15.4642 6.48765C15.5504 6.42488 15.6174 6.3392 15.6576 6.24028C15.6978 6.14137 15.7095 6.03317 15.6915 5.92791L15.527 4.96636L16.2252 4.28468C16.3006 4.20998 16.3538 4.11574 16.3788 4.01249C16.4037 3.90924 16.3995 3.80107 16.3666 3.70009C16.3337 3.5991 16.2734 3.50928 16.1924 3.44068C16.1114 3.37209 16.013 3.32742 15.9081 3.31168L14.9436 3.17145L14.5145 2.29346C14.4619 2.20409 14.387 2.13001 14.2971 2.07854C14.2072 2.02707 14.1055 2 14.0019 2C13.8984 2 13.7966 2.02707 13.7067 2.07854C13.6168 2.13001 13.5419 2.20409 13.4894 2.29346L13.0585 3.16859L12.094 3.30882C11.9886 3.32416 11.8895 3.36874 11.808 3.43753C11.7265 3.50631 11.6658 3.59656 11.6328 3.69807C11.5998 3.79958 11.5958 3.90831 11.6213 4.01197C11.6468 4.11563 11.7007 4.21009 11.7769 4.28468L12.4734 4.96636ZM13.5179 4.25778C13.6097 4.24453 13.6969 4.20911 13.772 4.15456C13.847 4.10001 13.9077 4.02799 13.9488 3.9447L14.0002 3.83996L14.0516 3.9447C14.0927 4.02799 14.1534 4.10001 14.2284 4.15456C14.3035 4.20911 14.3907 4.24453 14.4825 4.25778L14.5967 4.27495L14.5128 4.3568C14.4465 4.4216 14.3969 4.50156 14.3684 4.5898C14.3398 4.67804 14.3331 4.77191 14.3488 4.86333L14.3682 4.9778L14.2648 4.92343C14.1828 4.88031 14.0916 4.85779 13.9991 4.85779C13.9065 4.85779 13.8153 4.88031 13.7334 4.92343L13.6299 4.9778L13.6494 4.86333C13.6651 4.77191 13.6583 4.67804 13.6298 4.5898C13.6012 4.50156 13.5516 4.4216 13.4854 4.3568L13.4014 4.27495L13.5179 4.25778ZM21.9746 5.98743C21.9416 5.88595 21.881 5.79572 21.7995 5.72695C21.718 5.65817 21.619 5.61359 21.5135 5.59823L20.5496 5.45801L20.1142 4.58288C20.0617 4.4935 19.9868 4.4194 19.897 4.36791C19.8071 4.31643 19.7054 4.28935 19.6019 4.28935C19.4984 4.28935 19.3967 4.31643 19.3068 4.36791C19.217 4.4194 19.1421 4.4935 19.0896 4.58288L18.6582 5.45801L17.6943 5.59823C17.5889 5.61367 17.4899 5.65831 17.4084 5.72713C17.327 5.79595 17.2664 5.88621 17.2335 5.9877C17.2006 6.0892 17.1966 6.19789 17.2221 6.30151C17.2476 6.40513 17.3015 6.49954 17.3777 6.5741L18.0754 7.25577L17.9108 8.21733C17.8929 8.32251 17.9047 8.43061 17.9449 8.52944C17.985 8.62827 18.052 8.71388 18.1381 8.77662C18.2243 8.83936 18.3263 8.87672 18.4325 8.88449C18.5387 8.89226 18.645 8.87012 18.7394 8.82059L19.6022 8.36671L20.4644 8.82059C20.5588 8.87028 20.6651 8.89254 20.7715 8.88485C20.8778 8.87716 20.9799 8.83982 21.0661 8.77706C21.1524 8.7143 21.2194 8.62862 21.2596 8.5297C21.2998 8.43079 21.3115 8.32258 21.2935 8.21733L21.129 7.25577L21.8283 6.5741C21.9045 6.49943 21.9583 6.40493 21.9836 6.30126C22.0089 6.19759 22.0048 6.08889 21.9718 5.98743H21.9746ZM20.1142 6.64621C20.0479 6.71101 19.9983 6.79097 19.9698 6.87921C19.9412 6.96745 19.9345 7.06133 19.9502 7.15275L19.9696 7.26722L19.8662 7.20998C19.7841 7.16677 19.6929 7.14419 19.6002 7.14419C19.5075 7.14419 19.4162 7.16677 19.3342 7.20998L19.2313 7.26722L19.2508 7.15275C19.2665 7.06133 19.2597 6.96745 19.2312 6.87921C19.2026 6.79097 19.1531 6.71101 19.0868 6.64621L19.0028 6.56437L19.1171 6.5472C19.2088 6.53386 19.2958 6.49839 19.3708 6.44385C19.4457 6.38931 19.5063 6.31733 19.5473 6.23412L19.5993 6.12938L19.6513 6.23412C19.6923 6.31733 19.7529 6.38931 19.8279 6.44385C19.9028 6.49839 19.9899 6.53386 20.0816 6.5472L20.1959 6.56437L20.1142 6.64621ZM18.3274 11.4797H15.6304C15.6304 11.4797 15.9898 8.98943 15.9898 8.96139C15.9913 8.7067 15.9056 8.4592 15.747 8.26017C15.5883 8.06114 15.3664 7.92262 15.1181 7.86771C14.8698 7.8128 14.6102 7.84483 14.3827 7.95845C14.1551 8.07207 13.9733 8.26041 13.8676 8.49206C13.8676 8.49206 12.5649 10.821 12.4717 10.9772C12.1146 11.5759 12.0112 11.7041 11.7146 11.7041H11.1941C10.998 11.4253 10.7183 11.2165 10.3956 11.1079C10.0729 10.9993 9.72405 10.9967 9.39974 11.1003C9.07543 11.204 8.79259 11.4086 8.59233 11.6843C8.39208 11.9601 8.28485 12.2926 8.28624 12.6336V16.3928C8.28669 16.8189 8.45588 17.2275 8.75668 17.5288C9.05748 17.8301 9.46532 17.9995 9.89072 18C10.265 17.9985 10.6267 17.8645 10.9118 17.6217C10.9187 17.6217 10.9244 17.6268 10.9312 17.6274C10.9381 17.628 17.0629 18 17.0926 18C17.3838 17.9995 17.6675 17.9072 17.9034 17.7361C18.1392 17.5651 18.3154 17.324 18.4068 17.047L19.6439 13.3176C19.7136 13.1068 19.7324 12.8825 19.6988 12.663C19.6653 12.4435 19.5803 12.2352 19.4508 12.055C19.3236 11.876 19.1554 11.7304 18.9603 11.6303C18.7652 11.5302 18.5489 11.4785 18.3297 11.4797H18.3274ZM10.3518 16.3928C10.354 16.4549 10.3437 16.5168 10.3215 16.5747C10.2993 16.6327 10.2657 16.6856 10.2226 16.7303C10.1795 16.775 10.1279 16.8105 10.0709 16.8348C10.0138 16.8591 9.95243 16.8716 9.89044 16.8716C9.82844 16.8716 9.76708 16.8591 9.71001 16.8348C9.65294 16.8105 9.60134 16.775 9.55828 16.7303C9.51522 16.6856 9.48158 16.6327 9.45938 16.5747C9.43717 16.5168 9.42685 16.4549 9.42903 16.3928V12.6336C9.42685 12.5715 9.43717 12.5097 9.45938 12.4517C9.48158 12.3937 9.51522 12.3408 9.55828 12.2961C9.60134 12.2515 9.65294 12.2159 9.71001 12.1917C9.76708 12.1674 9.82844 12.1549 9.89044 12.1549C9.95243 12.1549 10.0138 12.1674 10.0709 12.1917C10.1279 12.2159 10.1795 12.2515 10.2226 12.2961C10.2657 12.3408 10.2993 12.3937 10.3215 12.4517C10.3437 12.5097 10.354 12.5715 10.3518 12.6336V16.3928ZM18.5577 12.9587L17.3206 16.6882C17.3039 16.7397 17.2708 16.7843 17.2265 16.8153C17.1821 16.8462 17.1289 16.8619 17.0749 16.8599L11.4826 16.5165C11.4855 16.4758 11.4946 12.8534 11.4946 12.8534H11.7146C12.686 12.8534 13.0945 12.1711 13.4528 11.5696C13.5374 11.4277 14.815 9.14626 14.815 9.14626L14.4042 11.9748C14.3925 12.056 14.3983 12.1388 14.4213 12.2175C14.4444 12.2963 14.484 12.3691 14.5376 12.4312C14.5912 12.4932 14.6575 12.543 14.732 12.5771C14.8065 12.6113 14.8874 12.629 14.9693 12.629H18.3297C18.3676 12.6291 18.4049 12.6384 18.4385 12.6559C18.4721 12.6734 18.501 12.6987 18.5228 12.7298C18.546 12.7623 18.5612 12.7997 18.5673 12.8392C18.5733 12.8787 18.5701 12.919 18.5577 12.957V12.9587Z" fill="#027A48"/>
</g>
</svg>
