<svg width="56" height="57" viewBox="0 0 56 57" fill="none" xmlns="http://www.w3.org/2000/svg">
<rect x="4" y="4.5" width="48" height="48" rx="24" fill="#FEF0C7"/>
<path d="M27.9988 24.5002V28.5002M27.9988 32.5002H28.0088M26.2888 19.3602L17.8188 33.5002C17.6442 33.8026 17.5518 34.1455 17.5508 34.4947C17.5498 34.8439 17.6403 35.1873 17.8132 35.4907C17.9862 35.7941 18.2355 36.047 18.5365 36.2241C18.8375 36.4012 19.1796 36.4964 19.5288 36.5002H36.4688C36.818 36.4964 37.1601 36.4012 37.4611 36.2241C37.7621 36.047 38.0114 35.7941 38.1844 35.4907C38.3573 35.1873 38.4478 34.8439 38.4468 34.4947C38.4458 34.1455 38.3534 33.8026 38.1788 33.5002L29.7088 19.3602C29.5305 19.0663 29.2795 18.8233 28.98 18.6547C28.6805 18.4861 28.3425 18.3975 27.9988 18.3975C27.6551 18.3975 27.3171 18.4861 27.0176 18.6547C26.7181 18.8233 26.4671 19.0663 26.2888 19.3602Z" stroke="#DC6803" stroke-width="2" stroke-linecap="round" stroke-linejoin="round"/>
<rect x="4" y="4.5" width="48" height="48" rx="24" stroke="#FFFAEB" stroke-width="8"/>
</svg>
