<svg width="6" height="6" viewBox="0 0 6 6" fill="none" xmlns="http://www.w3.org/2000/svg">
<path d="M4.14986 0.689446L4.84604 0.689446C4.91067 0.689183 4.97464 0.702422 5.03386 0.728313C5.09308 0.754205 5.14623 0.792179 5.18992 0.839803C5.23362 0.887426 5.26688 0.94365 5.28758 1.00487C5.30829 1.0661 5.31598 1.13097 5.31016 1.19534C5.23257 1.90943 4.98856 2.59536 4.59774 3.19802C4.24145 3.75871 3.76607 4.23409 3.20538 4.59038C2.59998 4.98257 1.91071 5.22663 1.19341 5.3028C1.12924 5.3086 1.06456 5.30098 1.0035 5.28041C0.942438 5.25984 0.886326 5.22679 0.838738 5.18335C0.79115 5.13991 0.753128 5.08703 0.727094 5.02809C0.70106 4.96915 0.687583 4.90544 0.687522 4.841L0.687522 4.14482C0.686414 4.0322 0.726295 3.92302 0.799731 3.83763C0.873168 3.75224 0.975149 3.69646 1.08667 3.6807C1.30946 3.65132 1.52821 3.59682 1.73876 3.51826C1.82182 3.48704 1.91208 3.48028 1.99887 3.49879C2.08565 3.5173 2.16531 3.5603 2.2284 3.62269L2.52312 3.9174C3.10409 3.58705 3.58513 3.10602 3.91548 2.52504L3.62076 2.23033C3.55837 2.16723 3.51537 2.08757 3.49687 2.00079C3.47836 1.91401 3.48511 1.82374 3.51634 1.74068C3.5949 1.53014 3.6494 1.31138 3.67878 1.08859C3.69468 0.975862 3.75146 0.872912 3.83832 0.799318C3.92518 0.725725 4.03605 0.686622 4.14986 0.689446Z" stroke="#101828" stroke-width="0.46412" stroke-linecap="round" stroke-linejoin="round"/>
</svg>
