<svg width="37" height="39" viewBox="0 0 37 39" fill="none" xmlns="http://www.w3.org/2000/svg">
<g filter="url(#filter0_iiii_3_2467)">
<path d="M34.0003 18.5557C34.0068 21.0488 33.4243 23.5082 32.3002 25.7336C30.9675 28.4002 28.9186 30.6432 26.3832 32.2111C23.8477 33.7791 20.9257 34.6103 17.9446 34.6114C15.4515 34.6179 12.9921 34.0354 10.7667 32.9114L0 36.5003L3.58892 25.7336C2.46489 23.5082 1.8824 21.0488 1.8889 18.5557C1.89006 15.5746 2.72118 12.6526 4.28917 10.1172C5.85716 7.58167 8.1001 5.53282 10.7667 4.20007C12.9921 3.07604 15.4515 2.49355 17.9446 2.50005H18.889C22.8262 2.71726 26.5448 4.37906 29.333 7.16727C32.1212 9.95547 33.7831 13.6741 34.0003 17.6113V18.5557Z" stroke="#D0D6FF" strokeWidth="4.29888" stroke-linecap="round" stroke-linejoin="round"/>
</g>
<defs>
<filter id="filter0_iiii_3_2467" x="-4.50328" y="0.350586" width="45.3604" height="40.6532" filterUnits="userSpaceOnUse" color-interpolation-filters="sRGB">
<feFlood flood-opacity="0" result="BackgroundImageFix"/>
<feBlend mode="normal" in="SourceGraphic" in2="BackgroundImageFix" result="shape"/>
<feColorMatrix in="SourceAlpha" type="matrix" values="0 0 0 0 0 0 0 0 0 0 0 0 0 0 0 0 0 0 127 0" result="hardAlpha"/>
<feOffset/>
<feGaussianBlur stdDeviation="0.588466"/>
<feComposite in2="hardAlpha" operator="arithmetic" k2="-1" k3="1"/>
<feColorMatrix type="matrix" values="0 0 0 0 1 0 0 0 0 1 0 0 0 0 1 0 0 0 0.3 0"/>
<feBlend mode="normal" in2="shape" result="effect1_innerShadow_3_2467"/>
<feColorMatrix in="SourceAlpha" type="matrix" values="0 0 0 0 0 0 0 0 0 0 0 0 0 0 0 0 0 0 127 0" result="hardAlpha"/>
<feOffset dx="-2.35386" dy="2.35386"/>
<feGaussianBlur stdDeviation="2.35386"/>
<feComposite in2="hardAlpha" operator="arithmetic" k2="-1" k3="1"/>
<feColorMatrix type="matrix" values="0 0 0 0 1 0 0 0 0 1 0 0 0 0 1 0 0 0 0.25 0"/>
<feBlend mode="normal" in2="effect1_innerShadow_3_2467" result="effect2_innerShadow_3_2467"/>
<feColorMatrix in="SourceAlpha" type="matrix" values="0 0 0 0 0 0 0 0 0 0 0 0 0 0 0 0 0 0 127 0" result="hardAlpha"/>
<feOffset dx="4.70773"/>
<feGaussianBlur stdDeviation="4.70773"/>
<feComposite in2="hardAlpha" operator="arithmetic" k2="-1" k3="1"/>
<feColorMatrix type="matrix" values="0 0 0 0 0.220833 0 0 0 0 0.220833 0 0 0 0 0.220833 0 0 0 0.28 0"/>
<feBlend mode="normal" in2="effect2_innerShadow_3_2467" result="effect3_innerShadow_3_2467"/>
<feColorMatrix in="SourceAlpha" type="matrix" values="0 0 0 0 0 0 0 0 0 0 0 0 0 0 0 0 0 0 127 0" result="hardAlpha"/>
<feOffset dx="2.35386" dy="2.35386"/>
<feGaussianBlur stdDeviation="3.5308"/>
<feComposite in2="hardAlpha" operator="arithmetic" k2="-1" k3="1"/>
<feColorMatrix type="matrix" values="0 0 0 0 0.2 0 0 0 0 0.199167 0 0 0 0 0.199217 0 0 0 0.1 0"/>
<feBlend mode="normal" in2="effect3_innerShadow_3_2467" result="effect4_innerShadow_3_2467"/>
</filter>
</defs>
</svg>
