<svg width="31" height="26" viewBox="0 0 31 26" fill="none" xmlns="http://www.w3.org/2000/svg">
<path d="M30.5237 3.58342C29.4104 4.07675 28.2144 4.41009 26.957 4.56075C28.2544 3.78448 29.2249 2.56271 29.6877 1.12342C28.4688 1.84741 27.1348 2.35701 25.7437 2.63009C24.8082 1.63124 23.5691 0.969189 22.2188 0.746719C20.8685 0.524249 19.4825 0.753809 18.276 1.39976C17.0695 2.04571 16.1101 3.0719 15.5466 4.31903C14.9831 5.56615 14.8471 6.96442 15.1597 8.29675C12.6899 8.17275 10.2739 7.53082 8.06826 6.41263C5.86265 5.29443 3.91681 3.72497 2.35702 1.80609C1.82369 2.72609 1.51702 3.79275 1.51702 4.92875C1.51643 5.95141 1.76827 6.95841 2.2502 7.8604C2.73212 8.76238 3.42924 9.53147 4.27969 10.0994C3.29339 10.068 2.32885 9.80153 1.46636 9.32209V9.40209C1.46626 10.8364 1.9624 12.2266 2.8706 13.3367C3.7788 14.4469 5.04312 15.2087 6.44902 15.4928C5.53407 15.7404 4.57481 15.7768 3.64369 15.5994C4.04035 16.8336 4.81302 17.9128 5.85351 18.686C6.89401 19.4592 8.15025 19.8877 9.44636 19.9114C7.24613 21.6386 4.52887 22.5755 1.73169 22.5714C1.2362 22.5716 0.741125 22.5426 0.249023 22.4848C3.08833 24.3103 6.39348 25.2792 9.76902 25.2754C21.1957 25.2754 27.4424 15.8114 27.4424 7.60342C27.4424 7.33675 27.4357 7.06742 27.4237 6.80075C28.6387 5.92205 29.6876 4.83395 30.521 3.58742L30.5237 3.58342Z" fill="white"/>
</svg>
